SplineFontDB: 3.2
FontName: PhlattGrotesk-Regular
FullName: Phlatt Grotesk Regular
FamilyName: Phlatt Grotesk
Weight: Regular
Copyright: Copyright (c) 2023, RandomMaerks (Bao Nguyen). All rights reserved.
UComments: "2023-1-31: Created with FontForge (http://fontforge.org)"
Version: 1.0
ItalicAngle: 0
UnderlinePosition: -100
UnderlineWidth: 50
Ascent: 800
Descent: 200
InvalidEm: 0
LayerCount: 2
Layer: 0 0 "Back" 1
Layer: 1 0 "Fore" 0
XUID: [1021 36 -67577861 28661]
StyleMap: 0x0040
FSType: 0
OS2Version: 0
OS2_WeightWidthSlopeOnly: 0
OS2_UseTypoMetrics: 1
CreationTime: 1675165020
ModificationTime: 1690683931
PfmFamily: 33
TTFWeight: 400
TTFWidth: 5
LineGap: 90
VLineGap: 90
OS2TypoAscent: 0
OS2TypoAOffset: 1
OS2TypoDescent: 0
OS2TypoDOffset: 1
OS2TypoLinegap: 90
OS2WinAscent: 0
OS2WinAOffset: 1
OS2WinDescent: 0
OS2WinDOffset: 1
HheadAscent: 0
HheadAOffset: 1
HheadDescent: 0
HheadDOffset: 1
OS2Vendor: 'Rand'
Lookup: 1 0 0 "'smcp' Lowercase to Small Capitals in Latin lookup 0" { "'smcp' Lowercase to Small Capitals in Latin lookup 0 subtable"  } ['smcp' ('latn' <'dflt' > ) ]
Lookup: 1 0 0 "'c2sc' Capitals to Small Capitals in Latin lookup 0" { "'c2sc' Capitals to Small Capitals in Latin lookup 0 subtable"  } ['c2sc' ('latn' <'dflt' > ) ]
Lookup: 1 0 0 "'locl' Localized Forms lookup 0" { "'locl' Localized Forms lookup 0-1" ("locl") } ['locl' ('latn' <'ROM ' > ) ]
Lookup: 1 0 0 "'locl' Localized Forms lookup 1" { "'locl' Localized Forms lookup 1-1" ("loclBGR") } ['locl' ('cyrl' <'BGR ' > ) ]
Lookup: 4 0 1 "'liga' Standard Ligatures lookup 14" { "'liga' Standard Ligatures lookup 14-1"  } ['liga' ('DFLT' <'dflt' > 'cyrl' <'BGR ' 'dflt' > 'grek' <'dflt' > 'hani' <'dflt' > 'latn' <'ROM ' 'dflt' > ) ]

StartChar: n
Encoding: 110 110 0
GlifName: n
Width: 558
VWidth: 900
Flags: HMW
AnchorPoint: "Bottom1" 284 0 basechar 0
AnchorPoint: "Top1" 284 578 basechar 0
LayerCount: 2
Fore
SplineSet
411 288 m 2
 411 376 366 426 286 426 c 0
 202 426 147 372 147 290 c 1
 122 290 l 1
 122 412 194 491 306 491 c 0
 414 491 480 418 480 297 c 2
 480 0 l 1
 411 0 l 1
 411 288 l 2
78 477 m 1
 147 477 l 1
 147 0 l 1
 78 0 l 1
 78 477 l 1
EndSplineSet
Substitution2: "'smcp' Lowercase to Small Capitals in Latin lookup 0 subtable" n.sc
Substitution2: "'ss07' Style Set 7 lookup 15-1" n.ss07
EndChar

StartChar: h
Encoding: 104 104 1
GlifName: h
Width: 558
VWidth: 900
Flags: HMW
AnchorPoint: "Bottom1" 284 0 basechar 0
AnchorPoint: "Top1" 113 779 basechar 0
LayerCount: 2
Fore
SplineSet
411 288 m 2
 411 376 366 426 286 426 c 0
 202 426 147 372 147 290 c 1
 122 290 l 1
 122 412 194 491 306 491 c 0
 414 491 480 418 480 297 c 2
 480 0 l 1
 411 0 l 1
 411 288 l 2
78 684 m 1
 147 684 l 1
 147 0 l 1
 78 0 l 1
 78 684 l 1
EndSplineSet
Substitution2: "'smcp' Lowercase to Small Capitals in Latin lookup 0 subtable" h.sc
Substitution2: "'ss07' Style Set 7 lookup 15-1" h.ss07
EndChar

StartChar: m
Encoding: 109 109 2
GlifName: m
Width: 783
VWidth: 900
Flags: HMW
AnchorPoint: "Bottom1" 391 0 basechar 0
AnchorPoint: "Top1" 394 578 basechar 0
LayerCount: 2
Fore
SplineSet
636 306 m 6
 636 382 601 426 538 426 c 4
 470 426 426 379 426 308 c 5
 392 308 l 5
 392 420 456 491 554 491 c 4
 648 491 705 425 705 315 c 6
 705 0 l 5
 636 0 l 5
 636 306 l 6
357 306 m 6
 357 382 322 426 259 426 c 4
 191 426 147 379 147 308 c 5
 122 308 l 5
 122 420 184 491 279 491 c 4
 371 491 426 425 426 315 c 6
 426 0 l 5
 357 0 l 5
 357 306 l 6
78 477 m 5
 147 477 l 5
 147 0 l 5
 78 0 l 5
 78 477 l 5
EndSplineSet
Substitution2: "'smcp' Lowercase to Small Capitals in Latin lookup 0 subtable" m.sc
Substitution2: "'ss07' Style Set 7 lookup 15-1" m.ss07
EndChar

StartChar: u
Encoding: 117 117 3
GlifName: u
Width: 540
VWidth: 900
Flags: HMW
AnchorPoint: "Bottom1" 274 0 basechar 0
AnchorPoint: "Top2" 446 379 basechar 0
AnchorPoint: "Top1" 277 578 basechar 0
LayerCount: 2
Fore
SplineSet
147 180 m 6
 147 97 188 51 263 51 c 4
 342 51 393 102 393 178 c 5
 418 178 l 5
 418 61 349 -14 243 -14 c 4
 140 -14 78 56 78 171 c 6
 78 477 l 5
 147 477 l 5
 147 180 l 6
462 0 m 1
 393 0 l 1
 393 477 l 1
 462 477 l 1
 462 0 l 1
EndSplineSet
Substitution2: "'smcp' Lowercase to Small Capitals in Latin lookup 0 subtable" u.sc
Substitution2: "'ss07' Style Set 7 lookup 15-1" u.ss07
EndChar

StartChar: i
Encoding: 105 105 4
GlifName: i
Width: 225
VWidth: 900
Flags: HMW
AnchorPoint: "Bottom1" 112 0 basechar 0
LayerCount: 2
Fore
SplineSet
78 477 m 1
 147 477 l 1
 147 0 l 1
 78 0 l 1
 78 477 l 1
64 616 m 4
 64 643 85 665 112 665 c 4
 139 665 161 643 161 616 c 4
 161 589 139 568 112 568 c 4
 85 568 64 589 64 616 c 4
EndSplineSet
Substitution2: "'smcp' Lowercase to Small Capitals in Latin lookup 0 subtable" i.sc
Substitution2: "'ss07' Style Set 7 lookup 15-1" i.ss07
EndChar

StartChar: l
Encoding: 108 108 5
GlifName: l
Width: 243
VWidth: 900
Flags: HMW
AnchorPoint: "Top2" 288 495 basechar 0
AnchorPoint: "Bottom1" 158 0 basechar 0
AnchorPoint: "Top1" 113 779 basechar 0
LayerCount: 2
Fore
SplineSet
147 684 m 5
 147 114 l 6
 147 72 163 60 187 60 c 4
 198 60 207 61 214 63 c 5
 214 -3 l 5
 205 -5 195 -6 184 -6 c 4
 119 -6 78 25 78 106 c 6
 78 684 l 5
 147 684 l 5
EndSplineSet
Substitution2: "'smcp' Lowercase to Small Capitals in Latin lookup 0 subtable" l.sc
Substitution2: "'ss07' Style Set 7 lookup 15-1" l.ss07
EndChar

StartChar: o
Encoding: 111 111 6
GlifName: o
Width: 540
VWidth: 900
Flags: HMW
AnchorPoint: "Bottom1" 266 0 basechar 0
AnchorPoint: "Top2" 437 379 basechar 0
AnchorPoint: "Top1" 269 578 basechar 0
LayerCount: 2
Fore
SplineSet
60 254 m 6
 60 393 148 491 271 491 c 4
 401 491 480 400 480 252 c 6
 480 226 l 2
 480 87 391 -12 266 -12 c 0
 138 -12 60 80 60 228 c 6
 60 254 l 6
129 237 m 6
 129 120 179 54 268 54 c 0
 354 54 411 126 411 235 c 2
 411 243 l 6
 411 360 360 426 268 426 c 4
 184 426 129 354 129 245 c 6
 129 237 l 6
EndSplineSet
Substitution2: "'smcp' Lowercase to Small Capitals in Latin lookup 0 subtable" o.sc
Substitution2: "'ss07' Style Set 7 lookup 15-1" o.ss07
EndChar

StartChar: e
Encoding: 101 101 7
GlifName: e
Width: 522
VWidth: 900
Flags: HMW
AnchorPoint: "Bottom1" 266 0 basechar 0
AnchorPoint: "Top1" 271 578 basechar 0
LayerCount: 2
Fore
SplineSet
129 237 m 2
 129 120 179 54 268 54 c 0
 334 54 384 84 393 130 c 1
 462 130 l 1
 453 43 376 -12 266 -12 c 0
 138 -12 60 80 60 228 c 2
 60 254 l 2
 60 394 148 491 271 491 c 0
 385 491 462 415 462 253 c 2
 462 229 l 1
 104 229 l 1
 104 289 l 1
 393 289 l 1
 393 382 339 426 268 426 c 0
 184 426 129 354 129 245 c 2
 129 237 l 2
EndSplineSet
Substitution2: "'smcp' Lowercase to Small Capitals in Latin lookup 0 subtable" e.sc
Substitution2: "'ss07' Style Set 7 lookup 15-1" e.ss07
EndChar

StartChar: c
Encoding: 99 99 8
GlifName: c
Width: 522
VWidth: 900
Flags: HMW
AnchorPoint: "Top1" 265 578 basechar 0
AnchorPoint: "Bottom1" 266 0 basechar 0
LayerCount: 2
Fore
SplineSet
129 237 m 2
 129 120 179 54 268 54 c 0
 334 54 384 90 393 145 c 1
 462 145 l 1
 453 50 376 -12 266 -12 c 0
 138 -12 60 80 60 228 c 2
 60 254 l 2
 60 394 148 491 271 491 c 0
 385 491 453 434 462 333 c 1
 393 333 l 1
 384 392 339 426 268 426 c 0
 184 426 129 354 129 245 c 2
 129 237 l 2
EndSplineSet
Substitution2: "'smcp' Lowercase to Small Capitals in Latin lookup 0 subtable" c.sc
Substitution2: "'ss07' Style Set 7 lookup 15-1" c.ss07
EndChar

StartChar: a
Encoding: 97 97 9
GlifName: a
Width: 513
VWidth: 900
Flags: HMW
AnchorPoint: "Bottom1" 238 0 basechar 0
AnchorPoint: "Top1" 247 578 basechar 0
LayerCount: 2
Fore
SplineSet
60 125 m 2
 60 215 136 275 249 275 c 0
 313 275 361 267 390 252 c 9
 390 154 l 2
 390 60 313 -12 212 -12 c 0
 120 -12 60 41 60 124 c 2
 60 125 l 2
129 124 m 2
 129 82 170 54 230 54 c 0
 304 54 357 104 357 172 c 2
 357 201 l 17
 339 208 301 212 257 212 c 0
 178 212 129 178 129 125 c 2
 129 124 l 2
357 136 m 2
 357 306 l 2
 357 385 317 428 243 428 c 0
 179 428 145 387 138 335 c 1
 69 335 l 1
 77 423 145 491 249 491 c 0
 359 491 426 425 426 315 c 2
 426 136 l 2
 426 85 427 36 429 0 c 1
 361 0 l 1
 359 40 357 83 357 136 c 2
EndSplineSet
Substitution2: "'smcp' Lowercase to Small Capitals in Latin lookup 0 subtable" a.sc
Substitution2: "'ss07' Style Set 7 lookup 15-1" a.ss07
Substitution2: "'ss01' Style Set 1 lookup 3-1" a.ss01
EndChar

StartChar: s
Encoding: 115 115 10
GlifName: s
Width: 486
VWidth: 900
Flags: HMW
AnchorPoint: "Top1" 238 578 basechar 0
AnchorPoint: "Bottom1" 248 0 basechar 0
LayerCount: 2
Fore
SplineSet
133 353 m 4
 133 300 189 283 251 269 c 4
 335 250 430 230 430 136 c 4
 430 44 363 -12 252 -12 c 4
 142 -12 65 46 56 136 c 5
 124 136 l 5
 133 86 182 52 249 52 c 4
 321 52 362 80 362 129 c 4
 362 177 296 190 226 206 c 4
 148 224 65 252 65 346 c 4
 65 432 137 491 239 491 c 4
 347 491 413 438 421 342 c 5
 353 342 l 5
 345 397 303 428 237 428 c 4
 175 428 133 398 133 353 c 4
EndSplineSet
Substitution2: "'smcp' Lowercase to Small Capitals in Latin lookup 0 subtable" s.sc
Substitution2: "'ss07' Style Set 7 lookup 15-1" s.ss07
EndChar

StartChar: b
Encoding: 98 98 11
GlifName: b
Width: 558
VWidth: 900
Flags: HMW
AnchorPoint: "Top1" 300 590 basechar 0
AnchorPoint: "Bottom1" 286 0 basechar 0
LayerCount: 2
Fore
SplineSet
78 684 m 1
 147 684 l 1
 147 0 l 1
 78 0 l 1
 78 684 l 1
123 281 m 2
 123 407 198 491 308 491 c 0
 424 491 498 398 498 252 c 2
 498 226 l 2
 498 87 414 -12 295 -12 c 0
 189 -12 123 69 123 201 c 2
 123 281 l 2
147 210 m 2
 147 112 196 54 279 54 c 0
 371 54 429 125 429 235 c 2
 429 243 l 2
 429 359 379 426 289 426 c 0
 203 426 147 365 147 272 c 2
 147 210 l 2
EndSplineSet
Substitution2: "'smcp' Lowercase to Small Capitals in Latin lookup 0 subtable" b.sc
Substitution2: "'ss07' Style Set 7 lookup 15-1" b.ss07
EndChar

StartChar: d
Encoding: 100 100 12
GlifName: d
Width: 558
VWidth: 900
Flags: HMW
AnchorPoint: "Top1" 240 590 basechar 0
AnchorPoint: "Bottom1" 266 0 basechar 0
AnchorPoint: "Top2" 602 495 basechar 0
LayerCount: 2
Fore
SplineSet
480 684 m 1
 411 684 l 1
 411 0 l 1
 480 0 l 1
 480 684 l 1
435 281 m 2
 435 407 360 491 250 491 c 0
 134 491 60 398 60 252 c 2
 60 226 l 2
 60 87 144 -12 263 -12 c 0
 369 -12 435 69 435 201 c 2
 435 281 l 2
411 210 m 2
 411 112 362 54 279 54 c 0
 187 54 129 125 129 235 c 2
 129 243 l 2
 129 359 179 426 269 426 c 0
 355 426 411 365 411 272 c 2
 411 210 l 2
EndSplineSet
Substitution2: "'smcp' Lowercase to Small Capitals in Latin lookup 0 subtable" d.sc
Substitution2: "'ss07' Style Set 7 lookup 15-1" d.ss07
EndChar

StartChar: p
Encoding: 112 112 13
GlifName: p
Width: 558
VWidth: 900
Flags: HMW
AnchorPoint: "Top1" 284 578 basechar 0
LayerCount: 2
Fore
SplineSet
78 477 m 1
 147 477 l 1
 147 -180 l 1
 78 -180 l 1
 78 477 l 1
123 281 m 2
 123 407 198 491 308 491 c 0
 424 491 498 398 498 252 c 2
 498 226 l 2
 498 87 414 -12 295 -12 c 0
 189 -12 123 69 123 201 c 2
 123 281 l 2
147 210 m 2
 147 112 196 54 279 54 c 0
 371 54 429 125 429 235 c 2
 429 243 l 2
 429 359 379 426 289 426 c 0
 203 426 147 365 147 272 c 2
 147 210 l 2
EndSplineSet
Substitution2: "'smcp' Lowercase to Small Capitals in Latin lookup 0 subtable" p.sc
Substitution2: "'ss07' Style Set 7 lookup 15-1" p.ss07
EndChar

StartChar: q
Encoding: 113 113 14
GlifName: q
Width: 558
VWidth: 900
Flags: HMW
LayerCount: 2
Fore
SplineSet
480 477 m 5
 411 477 l 5
 411 -180 l 5
 480 -180 l 5
 480 477 l 5
435 281 m 6
 435 407 360 491 250 491 c 4
 134 491 60 398 60 252 c 6
 60 226 l 6
 60 87 144 -12 263 -12 c 4
 369 -12 435 69 435 201 c 6
 435 281 l 6
411 210 m 6
 411 112 362 54 279 54 c 4
 187 54 129 125 129 235 c 6
 129 243 l 6
 129 359 179 426 269 426 c 4
 355 426 411 365 411 272 c 6
 411 210 l 6
EndSplineSet
Substitution2: "'smcp' Lowercase to Small Capitals in Latin lookup 0 subtable" q.sc
Substitution2: "'ss07' Style Set 7 lookup 15-1" q.ss07
EndChar

StartChar: r
Encoding: 114 114 15
GlifName: r
Width: 382
VWidth: 900
Flags: HMW
AnchorPoint: "Top1" 202 578 basechar 0
AnchorPoint: "Bottom1" 114 0 basechar 0
LayerCount: 2
Fore
SplineSet
331 480 m 5
 331 411 l 5
 313 413 302 415 277 415 c 4
 193 415 147 367 147 281 c 5
 122 281 l 5
 122 409 178 482 279 482 c 4
 301 482 313 482 331 480 c 5
78 477 m 5
 147 477 l 5
 147 0 l 5
 78 0 l 5
 78 477 l 5
EndSplineSet
Substitution2: "'smcp' Lowercase to Small Capitals in Latin lookup 0 subtable" r.sc
Substitution2: "'ss07' Style Set 7 lookup 15-1" r.ss07
EndChar

StartChar: t
Encoding: 116 116 16
GlifName: t
Width: 353
VWidth: 900
Flags: HMW
AnchorPoint: "Top2" 306 556 basechar 0
AnchorPoint: "Top1" 159 665 basechar 0
AnchorPoint: "Bottom1" 238 0 basechar 0
LayerCount: 2
Fore
SplineSet
311 4 m 5
 300 2 287 0 273 0 c 4
 181 0 122 36 122 130 c 6
 122 416 l 5
 43 416 l 5
 43 477 l 5
 122 477 l 5
 122 573 l 5
 190 600 l 5
 190 477 l 5
 311 477 l 5
 311 416 l 5
 190 416 l 5
 190 139 l 6
 190 86 224 65 275 65 c 4
 289 65 300 66 311 68 c 5
 311 4 l 5
EndSplineSet
Substitution2: "'smcp' Lowercase to Small Capitals in Latin lookup 0 subtable" t.sc
Substitution2: "'ss07' Style Set 7 lookup 15-1" t.ss07
EndChar

StartChar: f
Encoding: 102 102 17
GlifName: f
Width: 353
VWidth: 900
Flags: HMW
AnchorPoint: "Top1" 232 764 basechar 0
LayerCount: 2
Fore
SplineSet
311 687 m 1
 311 624 l 1
 300 626 289 626 275 626 c 0
 224 626 190 606 190 536 c 2
 190 477 l 1
 311 477 l 1
 311 416 l 1
 190 416 l 1
 190 0 l 1
 122 0 l 1
 122 416 l 1
 43 416 l 1
 43 477 l 1
 122 477 l 1
 122 544 l 2
 122 649 181 690 273 690 c 0
 287 690 300 689 311 687 c 1
EndSplineSet
Substitution2: "'smcp' Lowercase to Small Capitals in Latin lookup 0 subtable" f.sc
Substitution2: "'ss07' Style Set 7 lookup 15-1" f.ss07
EndChar

StartChar: g
Encoding: 103 103 18
GlifName: g
Width: 558
VWidth: 900
Flags: HMW
AnchorPoint: "Top1" 265 578 basechar 0
AnchorPoint: "Bottom1" 266 -189 basechar 0
LayerCount: 2
Fore
SplineSet
411 246 m 6
 411 147 362 90 277 90 c 4
 187 90 129 154 129 253 c 6
 129 261 l 6
 129 365 179 426 267 426 c 4
 355 426 411 366 411 272 c 6
 411 246 l 6
435 281 m 6
 435 407 360 491 249 491 c 4
 134 491 60 401 60 261 c 6
 60 253 l 6
 60 120 144 24 262 24 c 4
 369 24 435 105 435 237 c 6
 435 281 l 6
480 477 m 5
 411 477 l 5
 411 22 l 6
 411 -76 364 -128 272 -128 c 4
 193 -128 140 -95 129 -40 c 5
 60 -40 l 5
 70 -134 147 -190 267 -190 c 4
 400 -190 480 -114 480 13 c 6
 480 477 l 5
EndSplineSet
Substitution2: "'smcp' Lowercase to Small Capitals in Latin lookup 0 subtable" g.sc
Substitution2: "'ss07' Style Set 7 lookup 15-1" g.ss07
EndChar

StartChar: j
Encoding: 106 106 19
GlifName: j
Width: 225
VWidth: 900
Flags: HMW
LayerCount: 2
Fore
SplineSet
78 477 m 5
 147 477 l 5
 147 -20 l 6
 147 -133 94 -177 14 -177 c 4
 0 -177 -14 -176 -25 -174 c 5
 -25 -108 l 5
 -14 -110 -3 -111 11 -111 c 4
 51 -111 78 -90 78 -12 c 6
 78 477 l 5
64 616 m 24
 64 643 85 665 112 665 c 24
 139 665 161 643 161 616 c 24
 161 589 139 568 112 568 c 24
 85 568 64 589 64 616 c 24
EndSplineSet
Substitution2: "'smcp' Lowercase to Small Capitals in Latin lookup 0 subtable" j.sc
Substitution2: "'ss07' Style Set 7 lookup 15-1" j.ss07
EndChar

StartChar: k
Encoding: 107 107 20
GlifName: k
Width: 504
VWidth: 900
Flags: HMW
AnchorPoint: "Top1" 113 779 basechar 0
AnchorPoint: "Bottom1" 266 0 basechar 0
LayerCount: 2
Fore
SplineSet
372 0 m 5
 189 252 l 5
 241 302 l 5
 460 0 l 5
 372 0 l 5
364 477 m 5
 460 477 l 5
 112 130 l 5
 112 225 l 5
 364 477 l 5
78 684 m 5
 147 684 l 5
 147 0 l 5
 78 0 l 5
 78 684 l 5
EndSplineSet
Substitution2: "'smcp' Lowercase to Small Capitals in Latin lookup 0 subtable" k.sc
Substitution2: "'ss07' Style Set 7 lookup 15-1" k.ss07
EndChar

StartChar: v
Encoding: 118 118 21
GlifName: v
Width: 535
VWidth: 900
Flags: HMW
AnchorPoint: "Top1" 267 578 basechar 0
AnchorPoint: "Bottom1" 269 0 basechar 0
LayerCount: 2
Fore
SplineSet
51 477 m 5
 126 477 l 5
 269 70 l 5
 413 477 l 5
 484 477 l 5
 313 0 l 5
 222 0 l 5
 51 477 l 5
EndSplineSet
Substitution2: "'smcp' Lowercase to Small Capitals in Latin lookup 0 subtable" v.sc
Substitution2: "'ss07' Style Set 7 lookup 15-1" v.ss07
EndChar

StartChar: w
Encoding: 119 119 22
GlifName: w
Width: 711
VWidth: 900
Flags: HMW
AnchorPoint: "Top1" 355 578 basechar 0
AnchorPoint: "Bottom1" 359 0 basechar 0
LayerCount: 2
Fore
SplineSet
51 477 m 5
 123 477 l 5
 214 70 l 5
 310 477 l 5
 401 477 l 5
 498 70 l 5
 588 477 l 5
 660 477 l 5
 547 0 l 5
 446 0 l 5
 357 405 l 5
 268 0 l 5
 164 0 l 5
 51 477 l 5
EndSplineSet
Substitution2: "'smcp' Lowercase to Small Capitals in Latin lookup 0 subtable" w.sc
Substitution2: "'ss07' Style Set 7 lookup 15-1" w.ss07
EndChar

StartChar: x
Encoding: 120 120 23
GlifName: x
Width: 499
VWidth: 900
Flags: HMW
AnchorPoint: "Top1" 256 578 basechar 0
AnchorPoint: "Bottom1" 251 0 basechar 0
LayerCount: 2
Fore
SplineSet
51 477 m 1
 132 477 l 1
 249 280 l 1
 365 477 l 1
 448 477 l 1
 303 238 l 1
 448 0 l 1
 367 0 l 1
 250 197 l 1
 134 0 l 1
 51 0 l 1
 196 238 l 1
 51 477 l 1
EndSplineSet
Substitution2: "'smcp' Lowercase to Small Capitals in Latin lookup 0 subtable" x.sc
Substitution2: "'ss07' Style Set 7 lookup 15-1" x.ss07
EndChar

StartChar: y
Encoding: 121 121 24
GlifName: y
Width: 535
VWidth: 900
Flags: HMW
AnchorPoint: "Bottom1" 392 0 basechar 0
AnchorPoint: "Top1" 274 578 basechar 0
LayerCount: 2
Fore
SplineSet
51 477 m 5
 126 477 l 5
 269 113 l 5
 413 477 l 5
 484 477 l 5
 225 -180 l 5
 150 -180 l 5
 231 27 l 5
 51 477 l 5
EndSplineSet
Substitution2: "'smcp' Lowercase to Small Capitals in Latin lookup 0 subtable" y.sc
Substitution2: "'ss07' Style Set 7 lookup 15-1" y.ss07
EndChar

StartChar: z
Encoding: 122 122 25
GlifName: z
Width: 460
VWidth: 900
Flags: HMW
AnchorPoint: "Bottom1" 233 0 basechar 0
AnchorPoint: "Top1" 229 578 basechar 0
LayerCount: 2
Fore
SplineSet
51 0 m 1
 410 0 l 1
 410 62 l 1
 116 62 l 1
 410 385 l 1
 410 477 l 1
 51 477 l 1
 51 415 l 1
 345 415 l 1
 51 92 l 1
 51 0 l 1
EndSplineSet
Substitution2: "'smcp' Lowercase to Small Capitals in Latin lookup 0 subtable" z.sc
Substitution2: "'ss07' Style Set 7 lookup 15-1" z.ss07
EndChar

StartChar: I
Encoding: 73 73 26
GlifName: I_
Width: 447
VWidth: 900
Flags: HMW
AnchorPoint: "Bottom1" 228 0 basechar 0
AnchorPoint: "Top1" 229 720 basechar 0
LayerCount: 2
Fore
SplineSet
397 639 m 5
 397 571 l 5
 258 571 l 5
 258 68 l 5
 397 68 l 5
 397 0 l 5
 51 0 l 5
 51 68 l 5
 190 68 l 5
 190 571 l 5
 51 571 l 5
 51 639 l 5
 397 639 l 5
EndSplineSet
Substitution2: "'c2sc' Capitals to Small Capitals in Latin lookup 0 subtable" i.sc
Substitution2: "'ss07' Style Set 7 lookup 15-1" I.ss07
Substitution2: "'ss02' Style Set 2 lookup 4-1" I.ss02
EndChar

StartChar: H
Encoding: 72 72 27
GlifName: H_
Width: 612
VWidth: 900
Flags: HMW
AnchorPoint: "Top1" 307 720 basechar 0
AnchorPoint: "Bottom1" 309 0 basechar 0
LayerCount: 2
Fore
SplineSet
78 639 m 5
 147 639 l 5
 147 353 l 5
 465 353 l 5
 465 639 l 5
 534 639 l 5
 534 0 l 5
 465 0 l 5
 465 284 l 5
 147 284 l 5
 147 0 l 5
 78 0 l 5
 78 639 l 5
EndSplineSet
Substitution2: "'c2sc' Capitals to Small Capitals in Latin lookup 0 subtable" h.sc
Substitution2: "'ss07' Style Set 7 lookup 15-1" H.ss07
EndChar

StartChar: N
Encoding: 78 78 28
GlifName: N_
Width: 612
VWidth: 900
Flags: HMW
AnchorPoint: "Bottom1" 310 0 basechar 0
AnchorPoint: "Top1" 304 720 basechar 0
LayerCount: 2
Fore
SplineSet
78 639 m 1
 165 639 l 1
 465 104 l 1
 465 639 l 1
 534 639 l 1
 534 0 l 1
 447 0 l 1
 147 535 l 1
 147 0 l 1
 78 0 l 1
 78 639 l 1
EndSplineSet
Substitution2: "'c2sc' Capitals to Small Capitals in Latin lookup 0 subtable" n.sc
Substitution2: "'ss07' Style Set 7 lookup 15-1" N.ss07
EndChar

StartChar: M
Encoding: 77 77 29
GlifName: M_
Width: 765
VWidth: 900
Flags: HMW
AnchorPoint: "Bottom1" 384 0 basechar 0
AnchorPoint: "Top1" 384 720 basechar 0
LayerCount: 2
Fore
SplineSet
78 639 m 1
 165 639 l 1
 382 135 l 1
 600 639 l 1
 687 639 l 1
 687 0 l 1
 618 0 l 1
 618 517 l 1
 417 45 l 1
 348 45 l 1
 147 517 l 1
 147 0 l 1
 78 0 l 1
 78 639 l 1
EndSplineSet
Substitution2: "'c2sc' Capitals to Small Capitals in Latin lookup 0 subtable" m.sc
Substitution2: "'ss07' Style Set 7 lookup 15-1" M.ss07
EndChar

StartChar: O
Encoding: 79 79 30
GlifName: O_
Width: 630
VWidth: 900
Flags: HMW
AnchorPoint: "Bottom1" 311 0 basechar 0
AnchorPoint: "Top2" 486 542 basechar 0
AnchorPoint: "Top1" 315 720 basechar 0
LayerCount: 2
Fore
SplineSet
60 335 m 2
 60 522 166 653 316 653 c 0
 474 653 570 532 570 333 c 2
 570 307 l 2
 570 120 462 -12 311 -12 c 0
 156 -12 60 110 60 309 c 2
 60 335 l 2
129 309 m 2
 129 146 195 54 313 54 c 0
 426 54 501 155 501 307 c 2
 501 333 l 2
 501 496 434 588 313 588 c 0
 202 588 129 487 129 335 c 2
 129 309 l 2
EndSplineSet
Substitution2: "'c2sc' Capitals to Small Capitals in Latin lookup 0 subtable" o.sc
Substitution2: "'ss07' Style Set 7 lookup 15-1" O.ss07
EndChar

StartChar: L
Encoding: 76 76 31
GlifName: L_
Width: 515
VWidth: 900
Flags: HMW
AnchorPoint: "Top2" 261 556 basechar 0
AnchorPoint: "Top1" 273 720 basechar 0
AnchorPoint: "Bottom1" 274 0 basechar 0
LayerCount: 2
Fore
SplineSet
78 0 m 5
 78 639 l 5
 147 639 l 5
 147 68 l 5
 465 68 l 5
 465 0 l 5
 78 0 l 5
EndSplineSet
Substitution2: "'c2sc' Capitals to Small Capitals in Latin lookup 0 subtable" l.sc
Substitution2: "'ss07' Style Set 7 lookup 15-1" L.ss07
EndChar

StartChar: E
Encoding: 69 69 32
GlifName: E_
Width: 524
VWidth: 900
Flags: HMW
AnchorPoint: "Bottom1" 275 0 basechar 0
AnchorPoint: "Top1" 273 720 basechar 0
LayerCount: 2
Fore
SplineSet
147 283 m 1
 147 68 l 1
 465 68 l 1
 465 0 l 1
 78 0 l 1
 78 639 l 1
 465 639 l 1
 465 571 l 1
 147 571 l 1
 147 351 l 1
 447 351 l 1
 447 283 l 1
 147 283 l 1
EndSplineSet
Substitution2: "'c2sc' Capitals to Small Capitals in Latin lookup 0 subtable" e.sc
Substitution2: "'ss07' Style Set 7 lookup 15-1" E.ss07
EndChar

StartChar: F
Encoding: 70 70 33
GlifName: F_
Width: 524
VWidth: 900
Flags: HMW
AnchorPoint: "Top1" 270 720 basechar 0
LayerCount: 2
Fore
SplineSet
147 283 m 1
 447 283 l 1
 447 351 l 1
 147 351 l 1
 147 571 l 1
 465 571 l 1
 465 639 l 1
 78 639 l 1
 78 0 l 1
 147 0 l 1
 147 283 l 1
EndSplineSet
Substitution2: "'c2sc' Capitals to Small Capitals in Latin lookup 0 subtable" f.sc
Substitution2: "'ss07' Style Set 7 lookup 15-1" F.ss07
EndChar

StartChar: T
Encoding: 84 84 34
GlifName: T_
Width: 537
VWidth: 900
Flags: HMW
AnchorPoint: "Bottom1" 270 0 basechar 0
AnchorPoint: "Top1" 268 720 basechar 0
LayerCount: 2
Fore
SplineSet
487 639 m 5
 487 571 l 5
 303 571 l 5
 303 0 l 5
 235 0 l 5
 235 571 l 5
 51 571 l 5
 51 639 l 5
 487 639 l 5
EndSplineSet
Substitution2: "'c2sc' Capitals to Small Capitals in Latin lookup 0 subtable" t.sc
Substitution2: "'ss07' Style Set 7 lookup 15-1" T.ss07
EndChar

StartChar: G
Encoding: 71 71 35
GlifName: G_
Width: 603
VWidth: 900
Flags: HMW
AnchorPoint: "Top1" 301 720 basechar 0
AnchorPoint: "Bottom1" 292 0 basechar 0
LayerCount: 2
Fore
SplineSet
129 309 m 2
 129 146 189 54 295 54 c 0
 392 54 465 135 465 244 c 2
 465 266 l 1
 273 266 l 1
 273 334 l 1
 534 334 l 1
 534 0 l 1
 465 0 l 1
 465 101 l 1
 422 27 362 -12 292 -12 c 0
 148 -12 60 110 60 309 c 2
 60 335 l 2
 60 521 163 653 306 653 c 0
 430 653 502 587 525 450 c 1
 459 450 l 1
 445 539 393 588 313 588 c 0
 202 588 129 487 129 335 c 2
 129 309 l 2
EndSplineSet
Substitution2: "'c2sc' Capitals to Small Capitals in Latin lookup 0 subtable" g.sc
Substitution2: "'ss07' Style Set 7 lookup 15-1" G.ss07
EndChar

StartChar: C
Encoding: 67 67 36
GlifName: C_
Width: 594
VWidth: 900
Flags: HMW
AnchorPoint: "Top1" 309 720 basechar 0
AnchorPoint: "Bottom1" 302 0 basechar 0
LayerCount: 2
Fore
SplineSet
129 309 m 2
 129 146 192 54 304 54 c 0
 390 54 454 112 465 199 c 1
 534 199 l 1
 523 71 432 -12 302 -12 c 0
 152 -12 60 110 60 309 c 2
 60 335 l 2
 60 522 163 653 307 653 c 0
 442 653 523 578 534 441 c 1
 465 441 l 1
 454 535 396 588 304 588 c 0
 198 588 129 487 129 335 c 2
 129 309 l 2
EndSplineSet
Substitution2: "'c2sc' Capitals to Small Capitals in Latin lookup 0 subtable" c.sc
Substitution2: "'ss07' Style Set 7 lookup 15-1" C.ss07
EndChar

StartChar: R
Encoding: 82 82 37
GlifName: R_
Width: 582
VWidth: 900
Flags: HMW
AnchorPoint: "Bottom1" 292 0 basechar 0
AnchorPoint: "Top1" 291 720 basechar 0
LayerCount: 2
Fore
SplineSet
442 0 m 5
 286 252 l 5
 360 265 l 5
 523 0 l 5
 442 0 l 5
147 238 m 5
 147 0 l 5
 78 0 l 5
 78 639 l 5
 312 639 l 6
 437 639 514 563 514 439 c 6
 514 431 l 6
 514 318 430 238 311 238 c 6
 147 238 l 5
303 571 m 6
 147 571 l 5
 147 306 l 5
 302 306 l 6
 388 306 446 354 446 428 c 6
 446 439 l 6
 446 524 395 571 303 571 c 6
EndSplineSet
Substitution2: "'c2sc' Capitals to Small Capitals in Latin lookup 0 subtable" r.sc
Substitution2: "'ss07' Style Set 7 lookup 15-1" R.ss07
EndChar

StartChar: Q
Encoding: 81 81 38
GlifName: Q_
Width: 630
VWidth: 900
Flags: HMW
LayerCount: 2
Fore
SplineSet
278 279 m 5
 327 324 l 5
 588 23 l 5
 538 -22 l 5
 278 279 l 5
60 335 m 2
 60 522 166 653 316 653 c 0
 474 653 570 532 570 333 c 2
 570 307 l 2
 570 120 462 -12 311 -12 c 0
 156 -12 60 110 60 309 c 2
 60 335 l 2
129 309 m 2
 129 146 195 54 313 54 c 0
 426 54 501 155 501 307 c 2
 501 333 l 2
 501 496 434 588 313 588 c 0
 202 588 129 487 129 335 c 2
 129 309 l 2
EndSplineSet
Substitution2: "'c2sc' Capitals to Small Capitals in Latin lookup 0 subtable" q.sc
Substitution2: "'ss07' Style Set 7 lookup 15-1" Q.ss07
EndChar

StartChar: S
Encoding: 83 83 39
GlifName: S_
Width: 558
VWidth: 900
Flags: HMW
AnchorPoint: "Bottom1" 292 0 basechar 0
AnchorPoint: "Top1" 291 720 basechar 0
LayerCount: 2
Fore
SplineSet
133 475 m 4
 133 409 174 380 320 342 c 4
 453 308 502 261 502 167 c 4
 502 57 421 -12 292 -12 c 4
 159 -12 67 72 56 181 c 5
 124 181 l 5
 136 112 201 54 295 54 c 4
 381 54 434 94 434 159 c 4
 434 217 398 249 302 274 c 4
 120 323 65 368 65 466 c 4
 65 577 152 653 281 653 c 4
 405 653 482 574 493 459 c 5
 425 459 l 5
 414 533 358 588 272 588 c 4
 187 588 133 543 133 475 c 4
EndSplineSet
Substitution2: "'c2sc' Capitals to Small Capitals in Latin lookup 0 subtable" s.sc
Substitution2: "'ss07' Style Set 7 lookup 15-1" S.ss07
EndChar

StartChar: J
Encoding: 74 74 40
GlifName: J_
Width: 484
VWidth: 900
Flags: HMW
AnchorPoint: "Top1" 246 720 basechar 0
AnchorPoint: "Bottom1" 248 0 basechar 0
LayerCount: 2
Fore
SplineSet
98 571 m 5
 98 639 l 5
 408 639 l 5
 408 639 l 5
 408 639 l 5
 408 187 l 6
 408 53 347 -15 227 -15 c 4
 127 -15 56 43 46 159 c 5
 114 159 l 5
 125 88 164 53 227 53 c 4
 305 53 339 96 339 195 c 6
 339 571 l 5
 98 571 l 5
EndSplineSet
Substitution2: "'c2sc' Capitals to Small Capitals in Latin lookup 0 subtable" j.sc
Substitution2: "'ss07' Style Set 7 lookup 15-1" J.ss07
EndChar

StartChar: K
Encoding: 75 75 41
GlifName: K_
Width: 554
VWidth: 900
Flags: HMW
AnchorPoint: "Top1" 291 720 basechar 0
AnchorPoint: "Bottom1" 292 0 basechar 0
LayerCount: 2
Fore
SplineSet
410 0 m 1
 189 333 l 1
 241 383 l 1
 499 0 l 1
 410 0 l 1
423 639 m 1
 510 639 l 1
 112 194 l 1
 112 288 l 1
 423 639 l 1
78 639 m 1
 147 639 l 1
 147 0 l 1
 78 0 l 1
 78 639 l 1
EndSplineSet
Substitution2: "'c2sc' Capitals to Small Capitals in Latin lookup 0 subtable" k.sc
Substitution2: "'ss07' Style Set 7 lookup 15-1" K.ss07
EndChar

StartChar: U
Encoding: 85 85 42
GlifName: U_
Width: 594
VWidth: 900
Flags: HMW
AnchorPoint: "Bottom1" 293 0 basechar 0
AnchorPoint: "Top2" 486 542 basechar 0
AnchorPoint: "Top1" 302 720 basechar 0
LayerCount: 2
Fore
SplineSet
147 228 m 6
 147 117 200 54 295 54 c 4
 387 54 447 122 447 226 c 6
 447 638 l 5
 516 638 l 5
 516 226 l 6
 516 87 423 -12 293 -12 c 4
 160 -12 78 80 78 228 c 6
 78 638 l 5
 147 638 l 5
 147 228 l 6
EndSplineSet
Substitution2: "'c2sc' Capitals to Small Capitals in Latin lookup 0 subtable" u.sc
Substitution2: "'ss07' Style Set 7 lookup 15-1" U.ss07
EndChar

StartChar: B
Encoding: 66 66 43
GlifName: B_
Width: 582
VWidth: 900
Flags: HMW
AnchorPoint: "Top1" 300 720 basechar 0
AnchorPoint: "Bottom1" 302 0 basechar 0
LayerCount: 2
Fore
SplineSet
147 283 m 1
 147 68 l 1
 321 68 l 2
 407 68 454 103 454 167 c 2
 454 179 l 2
 454 241 401 283 320 283 c 2
 147 283 l 1
330 639 m 2
 443 639 514 574 514 467 c 2
 514 459 l 2
 514 397 480 346 425 320 c 1
 485 293 523 242 523 176 c 2
 523 167 l 2
 523 63 450 0 330 0 c 2
 78 0 l 1
 78 639 l 1
 330 639 l 2
321 571 m 2
 147 571 l 1
 147 351 l 1
 320 351 l 2
 396 351 446 392 446 455 c 2
 446 467 l 2
 446 534 401 571 321 571 c 2
EndSplineSet
Substitution2: "'c2sc' Capitals to Small Capitals in Latin lookup 0 subtable" b.sc
Substitution2: "'ss07' Style Set 7 lookup 15-1" B.ss07
EndChar

StartChar: D
Encoding: 68 68 44
GlifName: D_
Width: 609
VWidth: 900
Flags: HMW
AnchorPoint: "Top1" 300 720 basechar 0
AnchorPoint: "Bottom1" 302 0 basechar 0
LayerCount: 2
Fore
SplineSet
294 639 m 2
 452 639 550 524 550 337 c 2
 550 310 l 2
 550 127 444 0 294 0 c 2
 78 0 l 1
 78 639 l 1
 294 639 l 2
285 571 m 2
 147 571 l 1
 147 68 l 1
 285 68 l 2
 404 68 482 167 482 316 c 2
 482 328 l 2
 482 485 412 571 285 571 c 2
EndSplineSet
Substitution2: "'c2sc' Capitals to Small Capitals in Latin lookup 0 subtable" d.sc
Substitution2: "'ss07' Style Set 7 lookup 15-1" D.ss07
EndChar

StartChar: P
Encoding: 80 80 45
GlifName: P_
Width: 582
VWidth: 900
Flags: HMW
AnchorPoint: "Top1" 280 720 basechar 0
LayerCount: 2
Fore
SplineSet
147 238 m 1
 147 0 l 1
 78 0 l 1
 78 639 l 1
 312 639 l 2
 437 639 514 563 514 439 c 2
 514 431 l 2
 514 318 430 238 311 238 c 2
 147 238 l 1
303 571 m 2
 147 571 l 1
 147 306 l 1
 302 306 l 2
 388 306 446 354 446 428 c 2
 446 439 l 2
 446 524 395 571 303 571 c 2
EndSplineSet
Substitution2: "'c2sc' Capitals to Small Capitals in Latin lookup 0 subtable" p.sc
Substitution2: "'ss07' Style Set 7 lookup 15-1" P.ss07
EndChar

StartChar: V
Encoding: 86 86 46
GlifName: V_
Width: 629
VWidth: 900
Flags: HMW
AnchorPoint: "Top1" 314 720 basechar 0
AnchorPoint: "Bottom1" 311 0 basechar 0
LayerCount: 2
Fore
SplineSet
51 639 m 1
 126 639 l 1
 312 70 l 1
 507 639 l 1
 578 639 l 1
 356 0 l 1
 265 0 l 1
 51 639 l 1
EndSplineSet
Substitution2: "'c2sc' Capitals to Small Capitals in Latin lookup 0 subtable" v.sc
Substitution2: "'ss07' Style Set 7 lookup 15-1" V.ss07
EndChar

StartChar: W
Encoding: 87 87 47
GlifName: W_
Width: 842
VWidth: 900
Flags: HMW
AnchorPoint: "Bottom1" 424 0 basechar 0
AnchorPoint: "Top1" 422 720 basechar 0
LayerCount: 2
Fore
SplineSet
51 639 m 1
 123 639 l 1
 256 70 l 1
 377 587 l 1
 469 587 l 1
 587 70 l 1
 719 639 l 1
 791 639 l 1
 636 0 l 1
 536 0 l 1
 425 506 l 1
 310 0 l 1
 206 0 l 1
 51 639 l 1
EndSplineSet
Substitution2: "'c2sc' Capitals to Small Capitals in Latin lookup 0 subtable" w.sc
Substitution2: "'ss07' Style Set 7 lookup 15-1" W.ss07
EndChar

StartChar: X
Encoding: 88 88 48
GlifName: X_
Width: 584
VWidth: 900
Flags: HMW
AnchorPoint: "Bottom1" 302 0 basechar 0
AnchorPoint: "Top1" 300 720 basechar 0
LayerCount: 2
Fore
SplineSet
51 639 m 1
 128 639 l 1
 291 364 l 1
 454 639 l 1
 533 639 l 1
 345 323 l 1
 533 0 l 1
 456 0 l 1
 293 281 l 1
 130 0 l 1
 51 0 l 1
 239 323 l 1
 51 639 l 1
EndSplineSet
Substitution2: "'c2sc' Capitals to Small Capitals in Latin lookup 0 subtable" x.sc
Substitution2: "'ss07' Style Set 7 lookup 15-1" X.ss07
EndChar

StartChar: Y
Encoding: 89 89 49
GlifName: Y_
Width: 584
VWidth: 900
Flags: HMW
AnchorPoint: "Bottom1" 291 0 basechar 0
AnchorPoint: "Top1" 292 720 basechar 0
LayerCount: 2
Fore
SplineSet
257 215 m 5
 51 639 l 5
 126 639 l 5
 291 292 l 5
 456 639 l 5
 533 639 l 5
 326 215 l 5
 326 0 l 5
 257 0 l 5
 257 215 l 5
EndSplineSet
Substitution2: "'c2sc' Capitals to Small Capitals in Latin lookup 0 subtable" y.sc
Substitution2: "'ss07' Style Set 7 lookup 15-1" Y.ss07
EndChar

StartChar: Z
Encoding: 90 90 50
GlifName: Z_
Width: 520
VWidth: 900
Flags: HMW
AnchorPoint: "Top1" 259 720 basechar 0
AnchorPoint: "Bottom1" 261 0 basechar 0
LayerCount: 2
Fore
SplineSet
51 0 m 1
 469 0 l 1
 469 65 l 1
 116 65 l 1
 469 547 l 1
 469 639 l 1
 51 639 l 1
 51 574 l 1
 404 574 l 1
 51 92 l 1
 51 0 l 1
EndSplineSet
Substitution2: "'c2sc' Capitals to Small Capitals in Latin lookup 0 subtable" z.sc
Substitution2: "'ss07' Style Set 7 lookup 15-1" Z.ss07
EndChar

StartChar: A
Encoding: 65 65 51
GlifName: A_
Width: 610
VWidth: 900
Flags: HMW
AnchorPoint: "Bottom1" 310 0 basechar 0
AnchorPoint: "Top1" 309 720 basechar 0
LayerCount: 2
Fore
SplineSet
465 167 m 1
 147 167 l 1
 147 236 l 1
 465 236 l 1
 465 167 l 1
569 0 m 1
 494 0 l 1
 308 565 l 1
 113 0 l 1
 42 0 l 1
 265 639 l 1
 356 639 l 1
 569 0 l 1
EndSplineSet
Substitution2: "'c2sc' Capitals to Small Capitals in Latin lookup 0 subtable" a.sc
Substitution2: "'ss07' Style Set 7 lookup 15-1" A.ss07
EndChar

StartChar: period
Encoding: 46 46 52
GlifName: period
Width: 225
VWidth: 900
Flags: HMW
LayerCount: 2
Fore
SplineSet
64 40 m 0
 64 67 85 89 112 89 c 0
 139 89 161 67 161 40 c 0
 161 13 139 -8 112 -8 c 0
 85 -8 64 13 64 40 c 0
EndSplineSet
Substitution2: "'ss07' Style Set 7 lookup 15-1" period.ss07
EndChar

StartChar: comma
Encoding: 44 44 53
GlifName: comma
Width: 225
VWidth: 900
Flags: HMW
LayerCount: 2
Fore
SplineSet
78 124 m 5
 147 124 l 5
 111 -85 l 1
 69 -85 l 1
 78 124 l 5
EndSplineSet
Substitution2: "'ss07' Style Set 7 lookup 15-1" comma.ss07
EndChar

StartChar: colon
Encoding: 58 58 54
GlifName: colon
Width: 225
VWidth: 900
Flags: HMW
LayerCount: 2
Fore
SplineSet
64 374 m 4
 64 401 85 422 112 422 c 4
 139 422 161 401 161 374 c 4
 161 347 139 325 112 325 c 4
 85 325 64 347 64 374 c 4
64 40 m 4
 64 67 85 89 112 89 c 4
 139 89 161 67 161 40 c 4
 161 13 139 -8 112 -8 c 4
 85 -8 64 13 64 40 c 4
EndSplineSet
Substitution2: "'ss07' Style Set 7 lookup 15-1" colon.ss07
Substitution2: "'case' Case-Sensitive Forms lookup 13-1" colon.case
EndChar

StartChar: semicolon
Encoding: 59 59 55
GlifName: semicolon
Width: 225
VWidth: 900
Flags: HMW
LayerCount: 2
Fore
SplineSet
78 124 m 5
 147 124 l 5
 111 -85 l 1
 69 -85 l 1
 78 124 l 5
64 374 m 0
 64 401 85 422 112 422 c 0
 139 422 161 401 161 374 c 0
 161 347 139 325 112 325 c 0
 85 325 64 347 64 374 c 0
EndSplineSet
Substitution2: "'ss07' Style Set 7 lookup 15-1" semicolon.ss07
Substitution2: "'case' Case-Sensitive Forms lookup 13-1" semicolon.case
EndChar

StartChar: hyphen
Encoding: 45 45 56
GlifName: hyphen
Width: 483
VWidth: 900
Flags: HMW
LayerCount: 2
Fore
SplineSet
433 239 m 5
 51 239 l 5
 51 308 l 5
 433 308 l 5
 433 239 l 5
EndSplineSet
Substitution2: "'ss07' Style Set 7 lookup 15-1" hyphen.ss07
Substitution2: "'case' Case-Sensitive Forms lookup 13-1" hyphen.case
EndChar

StartChar: quotesingle
Encoding: 39 39 57
GlifName: quotesingle
Width: 225
VWidth: 900
Flags: HMW
LayerCount: 2
Fore
SplineSet
78 684 m 5
 147 684 l 5
 138 477 l 5
 78 477 l 5
 78 684 l 5
EndSplineSet
Substitution2: "'ss07' Style Set 7 lookup 15-1" quotesingle.ss07
EndChar

StartChar: quotedbl
Encoding: 34 34 58
GlifName: quotedbl
Width: 351
VWidth: 900
Flags: HMW
LayerCount: 2
Fore
SplineSet
204 684 m 1
 273 684 l 1
 264 477 l 5
 204 477 l 1
 204 684 l 1
78 684 m 1
 147 684 l 1
 138 477 l 5
 78 477 l 1
 78 684 l 1
EndSplineSet
Substitution2: "'ss07' Style Set 7 lookup 15-1" quotedbl.ss07
EndChar

StartChar: exclam
Encoding: 33 33 60
GlifName: exclam
Width: 225
VWidth: 900
Flags: HMW
LayerCount: 2
Fore
SplineSet
78 639 m 5
 147 639 l 5
 147 198 l 5
 78 198 l 5
 78 639 l 5
64 40 m 4
 64 67 85 89 112 89 c 4
 139 89 161 67 161 40 c 4
 161 13 139 -8 112 -8 c 4
 85 -8 64 13 64 40 c 4
EndSplineSet
Substitution2: "'ss07' Style Set 7 lookup 15-1" exclam.ss07
EndChar

StartChar: question
Encoding: 63 63 61
GlifName: question
Width: 513
VWidth: 900
Flags: HMW
LayerCount: 2
Fore
SplineSet
220 198 m 5
 288 198 l 5
 295 254 316 288 376 335 c 4
 430 382 453 423 453 478 c 4
 453 583 374 653 259 653 c 4
 145 653 70 586 60 477 c 5
 129 477 l 5
 139 546 189 588 264 588 c 4
 338 588 384 547 384 482 c 4
 384 444 367 414 321 376 c 4
 255 324 227 274 220 198 c 5
207 40 m 0
 207 67 229 89 256 89 c 0
 283 89 304 67 304 40 c 0
 304 13 283 -8 256 -8 c 0
 229 -8 207 13 207 40 c 0
EndSplineSet
Substitution2: "'ss07' Style Set 7 lookup 15-1" question.ss07
EndChar

StartChar: zero
Encoding: 48 48 62
GlifName: zero
Width: 558
VWidth: 900
Flags: HMW
LayerCount: 2
Fore
SplineSet
69 416 m 6
 69 555 157 653 280 653 c 4
 410 653 489 562 489 414 c 6
 489 226 l 6
 489 87 400 -12 275 -12 c 4
 148 -12 69 80 69 228 c 6
 69 416 l 6
138 228 m 6
 138 116 188 54 277 54 c 4
 363 54 420 122 420 226 c 6
 420 414 l 6
 420 526 369 588 277 588 c 4
 193 588 138 520 138 416 c 6
 138 228 l 6
EndSplineSet
Substitution2: "'ss06' Style Set 6 lookup 11-1" uni24FF
Substitution2: "'ss05' Style Set 5 lookup 10-1" uni24EA
Substitution2: "'dnom' Denominators lookup 11-1" zero.dnom
Substitution2: "'numr' Numerators lookup 10-1" zero.numr
Substitution2: "'subs' Subscript lookup 7-1" uni2080
Substitution2: "'sups' Superscript lookup 6-1" uni2070
Substitution2: "'zero' Slashed Zero lookup 5-1" zero.zero
EndChar

StartChar: one
Encoding: 49 49 63
GlifName: one
Width: 558
VWidth: 900
Flags: HMW
LayerCount: 2
Fore
SplineSet
114 0 m 5
 114 68 l 5
 262 68 l 5
 262 554 l 5
 124 440 l 5
 80 495 l 5
 262 639 l 5
 330 639 l 5
 330 68 l 5
 478 68 l 5
 478 0 l 5
 114 0 l 5
EndSplineSet
Substitution2: "'ss06' Style Set 6 lookup 11-1" uni2776
Substitution2: "'ss05' Style Set 5 lookup 10-1" uni24F5
Substitution2: "'dnom' Denominators lookup 11-1" one.dnom
Substitution2: "'numr' Numerators lookup 10-1" one.numr
Substitution2: "'subs' Subscript lookup 7-1" uni2081
Substitution2: "'sups' Superscript lookup 6-1" uni00B9
EndChar

StartChar: two
Encoding: 50 50 64
GlifName: two
Width: 558
VWidth: 900
Flags: HMW
LayerCount: 2
Fore
SplineSet
86 83 m 5
 272 242 l 6
 375 330 405 382 405 467 c 4
 405 541 357 588 283 588 c 4
 211 588 160 538 149 459 c 5
 81 459 l 5
 90 578 165 653 275 653 c 4
 394 653 473 575 473 458 c 4
 473 362 427 290 290 175 c 6
 159 65 l 5
 477 65 l 5
 477 0 l 5
 86 0 l 5
 86 83 l 5
EndSplineSet
Substitution2: "'ss06' Style Set 6 lookup 11-1" uni2777
Substitution2: "'ss05' Style Set 5 lookup 10-1" uni24F6
Substitution2: "'dnom' Denominators lookup 11-1" two.dnom
Substitution2: "'numr' Numerators lookup 10-1" two.numr
Substitution2: "'subs' Subscript lookup 7-1" uni2082
Substitution2: "'sups' Superscript lookup 6-1" uni00B2
EndChar

StartChar: three
Encoding: 51 51 65
GlifName: three
Width: 558
VWidth: 900
Flags: HMW
LayerCount: 2
Fore
SplineSet
300 378 m 5
 471 556 l 5
 471 639 l 5
 81 639 l 5
 81 574 l 5
 399 574 l 5
 216 378 l 5
 243 319 l 5
 344 319 408 265 408 181 c 4
 408 102 361 51 287 51 c 4
 215 51 164 101 153 180 c 5
 84 180 l 5
 93 61 169 -14 279 -14 c 4
 397 -14 477 64 477 181 c 4
 477 287 407 362 300 378 c 5
EndSplineSet
Substitution2: "'ss06' Style Set 6 lookup 11-1" uni2778
Substitution2: "'ss05' Style Set 5 lookup 10-1" uni24F7
Substitution2: "'dnom' Denominators lookup 11-1" three.dnom
Substitution2: "'numr' Numerators lookup 10-1" three.numr
Substitution2: "'subs' Subscript lookup 7-1" uni2083
Substitution2: "'sups' Superscript lookup 6-1" uni00B3
EndChar

StartChar: four
Encoding: 52 52 66
GlifName: four
Width: 558
VWidth: 900
Flags: HMW
LayerCount: 2
Fore
SplineSet
144.5 248 m 5
 339.5 248 l 5
 339.5 554 l 5
 144.5 248 l 5
65.5 248 m 5
 312.5 639 l 5
 407.5 639 l 5
 407.5 248 l 5
 492.5 248 l 5
 492.5 180 l 5
 407.5 180 l 5
 407.5 0 l 5
 339.5 0 l 5
 339.5 180 l 5
 65.5 180 l 5
 65.5 248 l 5
EndSplineSet
Substitution2: "'ss06' Style Set 6 lookup 11-1" uni2779
Substitution2: "'ss05' Style Set 5 lookup 10-1" uni24F8
Substitution2: "'dnom' Denominators lookup 11-1" four.dnom
Substitution2: "'numr' Numerators lookup 10-1" four.numr
Substitution2: "'subs' Subscript lookup 7-1" uni2084
Substitution2: "'sups' Superscript lookup 6-1" uni2074
EndChar

StartChar: five
Encoding: 53 53 67
GlifName: five
Width: 558
VWidth: 900
Flags: HMW
LayerCount: 2
Fore
SplineSet
416 211 m 0
 416 113 364.190429688 51 280 51 c 0
 207 51 153 101 142 180 c 1
 73 180 l 1
 82 61 161 -14 273 -14 c 0
 399.990234375 -14 485 75 485 212 c 0
 485 345 407 439 297 439 c 0
 244 439 192 418 152 380 c 1
 152 574 l 1
 470 574 l 1
 470 639 l 1
 80 639 l 1
 80 316 l 1
 160 316 l 1
 207 360 235 374 282 374 c 0
 365 374 416 312 416 211 c 0
EndSplineSet
Substitution2: "'ss06' Style Set 6 lookup 11-1" uni277A
Substitution2: "'ss05' Style Set 5 lookup 10-1" uni24F9
Substitution2: "'dnom' Denominators lookup 11-1" five.dnom
Substitution2: "'numr' Numerators lookup 10-1" five.numr
Substitution2: "'subs' Subscript lookup 7-1" uni2085
Substitution2: "'sups' Superscript lookup 6-1" uni2075
EndChar

StartChar: six
Encoding: 54 54 68
GlifName: six
Width: 558
VWidth: 900
Flags: HMW
LayerCount: 2
Fore
SplineSet
107 208 m 5
 107 317.165039062 190.318359375 400 300.122070312 400 c 4
 411.7890625 400 489 314.97265625 489 192 c 6
 489 190 l 6
 489 71.3349609375 407.328125 -12 291.030273438 -12 c 4
 153.958007812 -12 69 96.2880859375 69 271 c 6
 69 330 l 6
 69 523.701171875 162.072265625 652 302.58984375 652 c 4
 406.7265625 652 480.0625 583.153320312 489 477 c 5
 420 477 l 5
 410.036132812 543.673828125 363.2265625 587 301.15625 587 c 4
 206.102539062 587 138 485.153320312 138 343 c 6
 138 251 l 5
 146 199 l 21
 146 116.05078125 208.26171875 54 291.494140625 54 c 4
 369.4609375 54 420 107.486328125 420 190 c 6
 420 192 l 6
 420 277.978515625 366.403320312 335 285.587890625 335 c 4
 204.83984375 335 146 277.672851562 146 199 c 5
 107 208 l 5
EndSplineSet
Substitution2: "'ss06' Style Set 6 lookup 11-1" uni277B
Substitution2: "'ss05' Style Set 5 lookup 10-1" uni24FA
Substitution2: "'dnom' Denominators lookup 11-1" six.dnom
Substitution2: "'numr' Numerators lookup 10-1" six.numr
Substitution2: "'subs' Subscript lookup 7-1" uni2086
Substitution2: "'sups' Superscript lookup 6-1" uni2076
EndChar

StartChar: seven
Encoding: 55 55 69
GlifName: seven
Width: 558
VWidth: 900
Flags: HMW
LayerCount: 2
Fore
SplineSet
155 0 m 5
 232 0 l 5
 474 556 l 5
 474 639 l 5
 84 639 l 5
 84 574 l 5
 409 574 l 5
 155 0 l 5
EndSplineSet
Substitution2: "'ss06' Style Set 6 lookup 11-1" uni277C
Substitution2: "'ss05' Style Set 5 lookup 10-1" uni24FB
Substitution2: "'dnom' Denominators lookup 11-1" seven.dnom
Substitution2: "'numr' Numerators lookup 10-1" seven.numr
Substitution2: "'subs' Subscript lookup 7-1" uni2087
Substitution2: "'sups' Superscript lookup 6-1" uni2077
EndChar

StartChar: eight
Encoding: 56 56 70
GlifName: eight
Width: 558
VWidth: 900
Flags: HMW
LayerCount: 2
Fore
SplineSet
138 168 m 2
 138 95.5400390625 187.547851562 54 273.9765625 54 c 0
 362.817382812 54 420 97.859375 420 166 c 2
 420 174 l 2
 420 233.375 367.3828125 283.048828125 277 309 c 1
 193.625 282.390625 138 229.166992188 138 176 c 2
 138 168 l 2
108 496 m 2
 108 587.75390625 179.715820312 650 285.426757812 650 c 0
 389.557617188 650 455 589.41015625 455 493 c 2
 455 489 l 2
 455 434.338867188 414.1328125 381.536132812 342 343 c 1
 435.282226562 312.560546875 489 250.438476562 489 173 c 2
 489 168 l 2
 489 62.548828125 398.453125 -12 270.374023438 -12 c 0
 146.3828125 -12 69 57.5537109375 69 169 c 2
 69 174 l 2
 69 247.263671875 124.336914062 312.975585938 213 345 c 1
 144.483398438 381.560546875 108 432.290039062 108 491 c 2
 108 496 l 2
280 374 m 1
 343.927734375 398.188476562 387 444.481445312 387 489 c 2
 387 497 l 2
 387 552.029296875 348.965820312 584 283.5 584 c 0
 217.475585938 584 176 551.591796875 176 500 c 2
 176 491 l 2
 176 440.575195312 214.084960938 397.729492188 280 374 c 1
EndSplineSet
Substitution2: "'ss06' Style Set 6 lookup 11-1" uni277D
Substitution2: "'ss05' Style Set 5 lookup 10-1" uni24FC
Substitution2: "'dnom' Denominators lookup 11-1" eight.dnom
Substitution2: "'numr' Numerators lookup 10-1" eight.numr
Substitution2: "'subs' Subscript lookup 7-1" uni2088
Substitution2: "'sups' Superscript lookup 6-1" uni2078
EndChar

StartChar: nine
Encoding: 57 57 71
GlifName: nine
Width: 558
VWidth: 900
Flags: HMW
LayerCount: 2
Fore
SplineSet
451 432 m 1
 451 322.834960938 367.681640625 240 257.877929688 240 c 0
 146.2109375 240 69 325.02734375 69 448 c 2
 69 450 l 2
 69 568.665039062 150.671875 652 266.969726562 652 c 0
 404.041992188 652 489 543.711914062 489 369 c 2
 489 310 l 2
 489 116.298828125 395.927734375 -12 255.41015625 -12 c 0
 151.2734375 -12 77.9375 56.8466796875 69 163 c 1
 138 163 l 1
 147.963867188 96.326171875 194.7734375 53 256.84375 53 c 0
 351.897460938 53 420 154.846679688 420 297 c 2
 420 389 l 1
 412 441 l 17
 412 523.94921875 349.73828125 586 266.505859375 586 c 0
 188.5390625 586 138 532.513671875 138 450 c 2
 138 448 l 2
 138 362.021484375 191.596679688 305 272.412109375 305 c 0
 353.16015625 305 412 362.327148438 412 441 c 1
 451 432 l 1
EndSplineSet
Substitution2: "'ss06' Style Set 6 lookup 11-1" uni277E
Substitution2: "'ss05' Style Set 5 lookup 10-1" uni24FD
Substitution2: "'dnom' Denominators lookup 11-1" nine.dnom
Substitution2: "'numr' Numerators lookup 10-1" nine.numr
Substitution2: "'subs' Subscript lookup 7-1" uni2089
Substitution2: "'sups' Superscript lookup 6-1" uni2079
EndChar

StartChar: slash
Encoding: 47 47 72
GlifName: slash
Width: 457
VWidth: 900
Flags: HMW
LayerCount: 2
Fore
SplineSet
330 639 m 5
 407 639 l 5
 128 0 l 5
 51 0 l 5
 330 639 l 5
EndSplineSet
Substitution2: "'ss07' Style Set 7 lookup 15-1" slash.ss07
EndChar

StartChar: percent
Encoding: 37 37 73
GlifName: percent
Width: 937
VWidth: 900
Flags: HMW
LayerCount: 2
Fore
SplineSet
558 180 m 2
 558 287 622 364 714 364 c 0
 810 364 869 293 869 178 c 2
 869 170 l 2
 869 63 803 -14 709 -14 c 0
 615 -14 558 57 558 172 c 2
 558 180 l 2
626 172 m 2
 626 96 656 52 711 52 c 0
 765 52 801 99 801 170 c 2
 801 178 l 2
 801 254 769 298 712 298 c 0
 661 298 626 251 626 180 c 2
 626 172 l 2
78 464 m 6
 78 571 143 648 235 648 c 4
 325 648 381 578 381 463 c 6
 381 454 l 6
 381 347 318 271 230 271 c 4
 136 271 78 341 78 456 c 6
 78 464 l 6
147 456 m 6
 147 380 177 337 232 337 c 4
 281 337 312 383 312 454 c 6
 312 463 l 6
 312 539 284 582 233 582 c 4
 181 582 147 535 147 464 c 6
 147 456 l 6
572 639 m 1
 649 639 l 1
 370 0 l 1
 293 0 l 1
 572 639 l 1
EndSplineSet
Substitution2: "'ss07' Style Set 7 lookup 15-1" percent.ss07
EndChar

StartChar: numbersign
Encoding: 35 35 74
GlifName: numbersign
Width: 646
VWidth: 900
Flags: HMW
LayerCount: 2
Fore
SplineSet
258 639 m 1
 335 639 l 1
 279 452 l 1
 446 452 l 1
 501 639 l 1
 578 639 l 1
 522 452 l 1
 596 452 l 1
 596 383 l 1
 502 383 l 1
 461 245 l 1
 596 245 l 1
 596 176 l 1
 441 176 l 1
 389 0 l 1
 312 0 l 1
 364 176 l 1
 198 176 l 1
 146 0 l 1
 69 0 l 1
 122 176 l 1
 51 176 l 1
 51 245 l 1
 141 245 l 1
 183 383 l 1
 51 383 l 1
 51 452 l 1
 202 452 l 1
 258 639 l 1
384 245 m 1
 426 383 l 1
 259 383 l 1
 218 245 l 1
 384 245 l 1
EndSplineSet
Substitution2: "'ss07' Style Set 7 lookup 15-1" numbersign.ss07
EndChar

StartChar: equal
Encoding: 61 61 75
GlifName: equal
Width: 420
VWidth: 900
Flags: HMW
LayerCount: 2
Fore
SplineSet
370 122 m 5
 51 122 l 5
 51 191 l 5
 370 191 l 5
 370 122 l 5
370 347 m 5
 51 347 l 5
 51 416 l 5
 370 416 l 5
 370 347 l 5
EndSplineSet
Substitution2: "'ss07' Style Set 7 lookup 15-1" equal.ss07
Substitution2: "'case' Case-Sensitive Forms lookup 13-1" equal.case
EndChar

StartChar: dollar
Encoding: 36 36 76
GlifName: dollar
Width: 486
VWidth: 900
Flags: HMW
LayerCount: 2
Fore
SplineSet
133 434 m 0
 133 381 189 364 251 350 c 0
 335 331 430 311 430 217 c 0
 430 125 363 69 252 69 c 0
 142 69 65 131 56 226 c 1
 124 226 l 1
 133 170 182 133 249 133 c 0
 321 133 362 161 362 210 c 0
 362 258 296 271 226 287 c 0
 148 305 65 333 65 427 c 0
 65 513 137 572 239 572 c 0
 347 572 413 516 421 414 c 1
 353 414 l 1
 345 475 303 508 237 508 c 0
 175 508 133 479 133 434 c 0
210 657 m 5
 278 657 l 5
 278 553 l 5
 210 553 l 5
 210 657 l 5
278 101 m 5
 278 -18 l 5
 210 -18 l 5
 210 101 l 5
 278 101 l 5
EndSplineSet
Substitution2: "'ss07' Style Set 7 lookup 15-1" dollar.ss07
EndChar

StartChar: plus
Encoding: 43 43 77
GlifName: plus
Width: 483
VWidth: 900
Flags: HMW
LayerCount: 2
Fore
SplineSet
208 239 m 5
 51 239 l 5
 51 308 l 5
 208 308 l 5
 208 469 l 5
 276 469 l 5
 276 308 l 5
 433 308 l 5
 433 239 l 5
 276 239 l 5
 276 78 l 5
 208 78 l 5
 208 239 l 5
EndSplineSet
Substitution2: "'ss07' Style Set 7 lookup 15-1" plus.ss07
Substitution2: "'case' Case-Sensitive Forms lookup 13-1" plus.case
EndChar

StartChar: ampersand
Encoding: 38 38 78
GlifName: ampersand
Width: 630
VWidth: 900
Flags: HMW
LayerCount: 2
Fore
SplineSet
549 356 m 5
 549 141 423 -12 245 -12 c 4
 125 -12 51 59 51 171 c 6
 51 176 l 6
 51 244 98 303 177 338 c 5
 108 395 81 439 81 500 c 6
 81 505 l 6
 81 591 146 650 240 650 c 4
 334 650 392 590 392 494 c 6
 392 490 l 6
 392 422 354 362 284 324 c 5
 608 0 l 5
 513 0 l 5
 217 297 l 5
 157 268 120 221 120 172 c 6
 120 169 l 6
 120 95 166 54 249 54 c 4
 389 54 481 173 481 356 c 5
 549 356 l 5
231 367 m 5
 287 399 324 446 324 488 c 6
 324 490 l 6
 324 550 293 584 238 584 c 4
 184 584 149 551 149 501 c 6
 149 499 l 6
 149 459 166 430 231 367 c 5
EndSplineSet
Substitution2: "'ss07' Style Set 7 lookup 15-1" ampersand.ss07
EndChar

StartChar: bar
Encoding: 124 124 79
GlifName: bar
Width: 225
VWidth: 900
Flags: HMW
LayerCount: 2
Fore
SplineSet
78 800 m 5
 147 800 l 5
 147 -200 l 5
 78 -200 l 5
 78 800 l 5
EndSplineSet
Substitution2: "'ss07' Style Set 7 lookup 15-1" bar.ss07
EndChar

StartChar: parenleft
Encoding: 40 40 80
GlifName: parenleft
Width: 304
VWidth: 900
Flags: HMW
LayerCount: 2
Fore
SplineSet
241 -57 m 5
 129 -57 60 17 60 138 c 6
 60 506 l 6
 60 618 137 698 244 698 c 5
 244 633 l 5
 175 633 129 582 129 506 c 6
 129 138 l 6
 129 55 169 9 241 9 c 5
 241 -57 l 5
EndSplineSet
Substitution2: "'ss07' Style Set 7 lookup 15-1" parenleft.ss07
EndChar

StartChar: parenright
Encoding: 41 41 81
GlifName: parenright
Width: 304
VWidth: 900
Flags: HMW
LayerCount: 2
Fore
SplineSet
63 698 m 5
 175 698 244 625 244 504 c 6
 244 136 l 6
 244 24 167 -57 60 -57 c 5
 60 9 l 5
 129 9 176 60 176 136 c 6
 176 504 l 6
 176 587 135 633 63 633 c 5
 63 698 l 5
EndSplineSet
Substitution2: "'ss07' Style Set 7 lookup 15-1" parenright.ss07
EndChar

StartChar: braceleft
Encoding: 123 123 82
GlifName: braceleft
Width: 349
VWidth: 900
Flags: HMW
LayerCount: 2
Fore
SplineSet
286 -57 m 5
 191 -57 132 17 132 138 c 6
 132 198 l 6
 132 255 108 284 60 284 c 5
 60 345 l 5
 108 345 132 375 132 434 c 6
 132 506 l 6
 132 618 197 698 289 698 c 5
 289 633 l 5
 236 633 201 582 201 506 c 6
 201 426 l 6
 201 379 179 336 147 317 c 5
 178 308 201 261 201 209 c 6
 201 138 l 6
 201 55 231 9 286 9 c 5
 286 -57 l 5
EndSplineSet
Substitution2: "'ss07' Style Set 7 lookup 15-1" braceleft.ss07
EndChar

StartChar: bracketleft
Encoding: 91 91 83
GlifName: bracketleft
Width: 304
VWidth: 900
Flags: HMW
LayerCount: 2
Fore
SplineSet
241 -57 m 1
 60 -57 l 9
 60 698 l 17
 244 698 l 1
 244 633 l 1
 129 633 l 9
 129 9 l 17
 241 9 l 1
 241 -57 l 1
EndSplineSet
Substitution2: "'ss07' Style Set 7 lookup 15-1" bracketleft.ss07
EndChar

StartChar: bracketright
Encoding: 93 93 84
GlifName: bracketright
Width: 304
VWidth: 900
Flags: HMW
LayerCount: 2
Fore
SplineSet
63 698 m 5
 244 698 l 13
 244 -57 l 21
 60 -57 l 5
 60 9 l 5
 176 9 l 13
 176 633 l 21
 63 633 l 5
 63 698 l 5
EndSplineSet
Substitution2: "'ss07' Style Set 7 lookup 15-1" bracketright.ss07
EndChar

StartChar: braceright
Encoding: 125 125 85
GlifName: braceright
Width: 349
VWidth: 900
Flags: HMW
LayerCount: 2
Fore
SplineSet
63 698 m 1
 158 698 217 625 217 504 c 2
 217 444 l 2
 217 387 241 357 289 357 c 1
 289 297 l 1
 241 297 217 267 217 208 c 2
 217 136 l 2
 217 24 152 -57 60 -57 c 1
 60 9 l 1
 113 9 148 60 148 136 c 2
 148 216 l 2
 148 263 170 306 202 325 c 1
 171 334 148 381 148 433 c 2
 148 504 l 2
 148 587 118 633 63 633 c 1
 63 698 l 1
EndSplineSet
Substitution2: "'ss07' Style Set 7 lookup 15-1" braceright.ss07
EndChar

StartChar: backslash
Encoding: 92 92 86
GlifName: backslash
Width: 457
VWidth: 900
Flags: HMW
LayerCount: 2
Fore
SplineSet
128 639 m 5
 407 0 l 5
 330 0 l 5
 51 639 l 5
 128 639 l 5
EndSplineSet
Substitution2: "'ss07' Style Set 7 lookup 15-1" backslash.ss07
EndChar

StartChar: less
Encoding: 60 60 87
GlifName: less
Width: 587
VWidth: 900
Flags: HMW
LayerCount: 2
Fore
SplineSet
537 455 m 5
 537 380 l 5
 131 237 l 5
 537 94 l 5
 537 22 l 5
 60 193 l 5
 60 284 l 5
 537 455 l 5
EndSplineSet
Substitution2: "'ss07' Style Set 7 lookup 15-1" less.ss07
Substitution2: "'case' Case-Sensitive Forms lookup 13-1" less.case
EndChar

StartChar: greater
Encoding: 62 62 88
GlifName: greater
Width: 587
VWidth: 900
Flags: HMW
LayerCount: 2
Fore
SplineSet
51 22 m 5
 51 97 l 5
 457 240 l 5
 51 383 l 5
 51 455 l 5
 528 284 l 5
 528 193 l 5
 51 22 l 5
EndSplineSet
Substitution2: "'ss07' Style Set 7 lookup 15-1" greater.ss07
Substitution2: "'case' Case-Sensitive Forms lookup 13-1" greater.case
EndChar

StartChar: asterisk
Encoding: 42 42 89
GlifName: asterisk
Width: 513
VWidth: 900
Flags: HMW
LayerCount: 2
Fore
SplineSet
222 684 m 5
 291 684 l 5
 283 516 l 5
 443 573 l 5
 464 508 l 5
 302 464 l 5
 406 329 l 5
 350 290 l 5
 256 431 l 5
 163 290 l 5
 107 329 l 5
 212 464 l 5
 50 508 l 5
 70 573 l 5
 230 516 l 5
 222 684 l 5
EndSplineSet
Substitution2: "'ss07' Style Set 7 lookup 15-1" asterisk.ss07
EndChar

StartChar: at
Encoding: 64 64 90
GlifName: at
Width: 756
VWidth: 900
Flags: HMW
LayerCount: 2
Fore
SplineSet
282 307 m 2
 282 265 315 237 364 237 c 0
 429 237 474 286 474 355 c 2
 474 383 l 17
 460 390 430 395 401 395 c 0
 326 395 282 363 282 308 c 2
 282 307 l 2
213 308 m 2
 213 400 285 458 398 458 c 0
 443 458 483 450 507 435 c 9
 507 337 l 2
 507 243 438 171 346 171 c 0
 267 171 213 225 213 307 c 2
 213 308 l 2
474 319 m 2
 474 489 l 2
 474 555 429 592 350 592 c 0
 218 592 129 486 129 328 c 2
 129 302 l 2
 129 142 225 48 389 48 c 0
 536 48 627 125 627 247 c 2
 627 300 l 1
 696 300 l 1
 696 247 l 2
 696 89 571 -18 387 -18 c 0
 187 -18 60 106 60 302 c 2
 60 328 l 2
 60 519 184 656 356 656 c 0
 471 656 543 595 543 498 c 2
 543 319 l 2
 543 268 544 219 546 183 c 1
 478 183 l 1
 476 223 474 266 474 319 c 2
EndSplineSet
Substitution2: "'ss07' Style Set 7 lookup 15-1" at.ss07
EndChar

StartChar: asciicircum
Encoding: 94 94 91
GlifName: asciicircum
Width: 495
VWidth: 900
Flags: HMW
LayerCount: 2
Fore
SplineSet
364 383 m 1
 247 590 l 1
 128 383 l 1
 51 383 l 1
 202 639 l 1
 293 639 l 1
 445 383 l 1
 364 383 l 1
EndSplineSet
Substitution2: "'ss07' Style Set 7 lookup 15-1" asciicircum.ss07
EndChar

StartChar: underscore
Encoding: 95 95 92
GlifName: underscore
Width: 537
VWidth: 900
Flags: HMW
LayerCount: 2
Fore
SplineSet
487 -25 m 5
 51 -25 l 5
 51 43 l 5
 487 43 l 5
 487 -25 l 5
EndSplineSet
Substitution2: "'ss07' Style Set 7 lookup 15-1" underscore.ss07
EndChar

StartChar: grave
Encoding: 96 96 93
GlifName: grave
Width: 337
VWidth: 900
Flags: HMW
LayerCount: 2
Fore
SplineSet
51 639 m 1
 136 639 l 1
 287 383 l 1
 206 383 l 1
 51 639 l 1
EndSplineSet
Substitution2: "'ss07' Style Set 7 lookup 15-1" grave.ss07
EndChar

StartChar: asciitilde
Encoding: 126 126 94
GlifName: asciitilde
Width: 569
VWidth: 900
Flags: HMW
LayerCount: 2
Fore
SplineSet
454 374 m 5
 454 302 428 261 383 261 c 4
 355 261 341 270 299 314 c 4
 258 357 228 373 188 373 c 4
 108 373 51 303 51 202 c 5
 116 202 l 5
 116 267 145 308 188 308 c 4
 214 308 230 297 266 258 c 4
 309 211 337 196 382 196 c 4
 467 196 519 264 519 374 c 5
 454 374 l 5
EndSplineSet
Substitution2: "'ss07' Style Set 7 lookup 15-1" asciitilde.ss07
Substitution2: "'case' Case-Sensitive Forms lookup 13-1" asciitilde.case
EndChar

StartChar: exclamdown
Encoding: 161 161 95
GlifName: exclamdown
Width: 225
VWidth: 900
Flags: HMW
LayerCount: 2
Fore
SplineSet
147 -73 m 5
 78 -73 l 5
 78 368 l 5
 147 368 l 5
 147 -73 l 5
161 526 m 4
 161 499 139 477 112 477 c 4
 85 477 64 499 64 526 c 4
 64 553 85 574 112 574 c 4
 139 574 161 553 161 526 c 4
EndSplineSet
EndChar

StartChar: questiondown
Encoding: 191 191 96
GlifName: questiondown
Width: 513
VWidth: 900
Flags: HMW
LayerCount: 2
Fore
SplineSet
293 368 m 1
 225 368 l 1
 218 312 194 282 137 232 c 0
 83 185 60 143 60 88 c 0
 60 -17 139 -87 254 -87 c 0
 368 -87 443 -20 453 89 c 1
 384 89 l 1
 374 20 324 -22 249 -22 c 0
 175 -22 129 18 129 83 c 0
 129 121 145 154 192 191 c 0
 258 243 286 292 293 368 c 1
306 526 m 0
 306 499 284 477 257 477 c 0
 230 477 209 499 209 526 c 0
 209 553 230 574 257 574 c 0
 284 574 306 553 306 526 c 0
EndSplineSet
EndChar

StartChar: cent
Encoding: 162 162 97
GlifName: cent
Width: 522
VWidth: 900
Flags: HMW
LayerCount: 2
Fore
SplineSet
231 657 m 5
 300 657 l 5
 300 553 l 5
 231 553 l 5
 231 657 l 5
300 101 m 5
 300 -18 l 5
 231 -18 l 5
 231 101 l 5
 300 101 l 5
129 324 m 6
 129 207 179 141 268 141 c 4
 334 141 384 177 393 232 c 5
 462 232 l 5
 453 137 376 76 266 76 c 4
 138 76 60 167 60 315 c 6
 60 341 l 6
 60 481 148 579 271 579 c 4
 385 579 453 521 462 420 c 5
 393 420 l 5
 384 479 339 513 268 513 c 4
 184 513 129 441 129 332 c 6
 129 324 l 6
EndSplineSet
EndChar

StartChar: sterling
Encoding: 163 163 98
GlifName: sterling
Width: 529
VWidth: 900
Flags: HMW
LayerCount: 2
Fore
SplineSet
446 674 m 5
 446 608 l 5
 422 620 393 626 359 626 c 4
 272 626 235 588 235 500 c 6
 235 378 l 5
 419 378 l 1
 419 313 l 1
 235 313 l 5
 235 68 l 5
 487 68 l 1
 487 0 l 1
 51 0 l 1
 51 68 l 5
 166 68 l 5
 166 313 l 5
 70 313 l 1
 70 378 l 1
 166 378 l 5
 166 508 l 6
 166 630 229 693 349 693 c 4
 387 693 417 687 446 674 c 5
EndSplineSet
EndChar

StartChar: dotlessi
Encoding: 305 305 99
GlifName: dotlessi
Width: 225
VWidth: 900
Flags: HMW
AnchorPoint: "Top1" 113 578 basechar 0
LayerCount: 2
Fore
SplineSet
78 477 m 1
 147 477 l 1
 147 0 l 1
 78 0 l 1
 78 477 l 1
EndSplineSet
EndChar

StartChar: gravecomb
Encoding: 768 768 100
GlifName: gravecomb
Width: 337
VWidth: 900
Flags: HMW
AnchorPoint: "Top1" 197 477 mark 0
LayerCount: 2
Fore
SplineSet
51 625 m 5
 136 625 l 5
 260 459 l 5
 188 459 l 5
 51 625 l 5
EndSplineSet
EndChar

StartChar: acutecomb
Encoding: 769 769 101
GlifName: acutecomb
Width: 337
VWidth: 900
Flags: HMW
AnchorPoint: "Top1" 141 477 mark 0
LayerCount: 2
Fore
SplineSet
287 625 m 1
 150 459 l 1
 78 459 l 1
 202 625 l 1
 287 625 l 1
EndSplineSet
EndChar

StartChar: uni0302
Encoding: 770 770 102
GlifName: uni0302
Width: 531
VWidth: 900
Flags: HMW
AnchorPoint: "Top1" 268 477 mark 0
LayerCount: 2
Fore
SplineSet
346 441 m 5
 265 545 l 5
 186 441 l 5
 114 441 l 5
 220 580 l 5
 311 580 l 5
 418 441 l 5
 346 441 l 5
EndSplineSet
EndChar

StartChar: tildecomb
Encoding: 771 771 103
GlifName: tildecomb
Width: 561
VWidth: 900
Flags: HMW
AnchorPoint: "Top1" 277 477 mark 0
LayerCount: 2
Fore
SplineSet
374 596 m 1
 430 596 l 1
 430 517 396 472 338 472 c 0
 309 472 288.006698723 484.13711538 252 515 c 0
 231 533 222 538 209 538 c 0
 187 538 174 516 174 477 c 1
 118 477 l 1
 118 547 154 594 209 594 c 0
 236 594 257.368132374 581.082940459 297 549 c 0
 318 532 327 527 339 527 c 0
 362 527 374 550 374 596 c 1
EndSplineSet
EndChar

StartChar: uni0308
Encoding: 776 776 104
GlifName: uni0308
Width: 504
VWidth: 900
Flags: HMW
AnchorPoint: "Top1" 256 477 mark 0
LayerCount: 2
Fore
SplineSet
307 526 m 0
 307 553 328 575 355 575 c 0
 382 575 404 553 404 526 c 0
 404 499 382 478 355 478 c 0
 328 478 307 499 307 526 c 0
106 526 m 4
 106 553 128 575 155 575 c 4
 182 575 203 553 203 526 c 4
 203 499 182 478 155 478 c 4
 128 478 106 499 106 526 c 4
EndSplineSet
EndChar

StartChar: uni030A
Encoding: 778 778 105
GlifName: uni030A_
Width: 459
VWidth: 900
Flags: HMW
AnchorPoint: "Top1" 230 477 mark 0
LayerCount: 2
Fore
SplineSet
114 576 m 2
 114 644 165 691 235 691 c 0
 303 691 345 647 345 574 c 2
 345 573 l 2
 345 505 297 458 230 458 c 0
 158 458 114 502 114 575 c 2
 114 576 l 2
174 575 m 2
 174 536 194 515 232 515 c 0
 264 515 285 538 285 573 c 2
 285 574 l 2
 285 613 267 634 233 634 c 0
 198 634 174 611 174 576 c 2
 174 575 l 2
EndSplineSet
EndChar

StartChar: uni0327
Encoding: 807 807 106
GlifName: uni0327
Width: 315
VWidth: 900
Flags: HMW
AnchorPoint: "Bottom1" 144 0 mark 0
LayerCount: 2
Fore
SplineSet
199 -145 m 0
 199 -118.468085106 185.5 -102 163 -102 c 2
 117 -102 l 1
 117 15 l 1
 170 15 l 1
 170 -50 l 1
 173 -50 l 2
 223.37037037 -50 258 -88 258 -141 c 0
 258 -213.393162393 205.341463415 -262 131 -262 c 0
 60.6752136752 -262 15.1709401709 -217.477876106 10 -145 c 1
 69 -145 l 1
 73.7183098592 -183.515151515 99.1971830986 -207 136 -207 c 0
 173.611940299 -207 199 -181.636363636 199 -145 c 0
EndSplineSet
EndChar

StartChar: idieresis
Encoding: 239 239 147
GlifName: idieresis
Width: 258
VWidth: 900
Flags: HMW
LayerCount: 2
Fore
SplineSet
95 477 m 5
 164 477 l 5
 164 0 l 5
 95 0 l 5
 95 477 l 5
161 627 m 132
 161 654 179.8125 676 204 676 c 132
 228.245117188 676 248 654 248 627 c 132
 248 600 228.245117188 579 204 579 c 132
 179.8125 579 161 600 161 627 c 132
10 627 m 132
 10 654 29.7548828125 676 54 676 c 132
 78.1875 676 97 654 97 627 c 132
 97 600 78.1875 579 54 579 c 132
 29.7548828125 579 10 600 10 627 c 132
EndSplineSet
Substitution2: "'smcp' Lowercase to Small Capitals in Latin lookup 0 subtable" idieresis.sc
EndChar

StartChar: Eth
Encoding: 208 208 160
GlifName: E_th
Width: 663
VWidth: 900
Flags: HMW
LayerCount: 2
Fore
SplineSet
352 284 m 5
 51 284 l 1
 51 353 l 1
 352 353 l 5
 352 284 l 5
348 639 m 2
 506 639 604 524 604 337 c 2
 604 310 l 2
 604 127 498 0 348 0 c 2
 132 0 l 1
 132 639 l 1
 348 639 l 2
339 571 m 2
 201 571 l 1
 201 68 l 1
 339 68 l 2
 458 68 536 167 536 316 c 2
 536 328 l 2
 536 485 466 571 339 571 c 2
EndSplineSet
Substitution2: "'c2sc' Capitals to Small Capitals in Latin lookup 0 subtable" eth.sc
EndChar

StartChar: AE
Encoding: 198 198 161
GlifName: A_E_
Width: 865
VWidth: 900
Flags: HMW
AnchorPoint: "Top1" 439 720 basechar 0
LayerCount: 2
Fore
SplineSet
380 639 m 1
 42 0 l 1
 123 0 l 1
 419 562 l 1
 419 236 l 1
 183 236 l 1
 183 167 l 1
 419 167 l 1
 419 0 l 1
 806 0 l 1
 806 68 l 1
 488 68 l 1
 488 283 l 1
 788 283 l 1
 788 351 l 1
 488 351 l 1
 488 571 l 1
 806 571 l 1
 806 639 l 1
 380 639 l 1
EndSplineSet
Substitution2: "'c2sc' Capitals to Small Capitals in Latin lookup 0 subtable" ae.sc
EndChar

StartChar: Oslash
Encoding: 216 216 162
GlifName: O_slash
Width: 630
VWidth: 900
Flags: HMW
AnchorPoint: "Top1" 315 720 basechar 0
LayerCount: 2
Fore
SplineSet
480 666 m 1
 556 666 l 1
 164 -45 l 1
 87 -45 l 1
 480 666 l 1
60 335 m 2
 60 522 166 653 316 653 c 0
 474 653 570 532 570 333 c 2
 570 307 l 2
 570 120 462 -12 311 -12 c 0
 156 -12 60 110 60 309 c 2
 60 335 l 2
129 309 m 2
 129 146 195 54 313 54 c 0
 426 54 501 155 501 307 c 2
 501 333 l 2
 501 496 434 588 313 588 c 0
 202 588 129 487 129 335 c 2
 129 309 l 2
EndSplineSet
Substitution2: "'c2sc' Capitals to Small Capitals in Latin lookup 0 subtable" oslash.sc
EndChar

StartChar: Thorn
Encoding: 222 222 163
GlifName: T_horn
Width: 582
VWidth: 900
Flags: HMW
LayerCount: 2
Fore
SplineSet
78 639 m 1
 147 639 l 1
 147 531 l 1
 312 531 l 2
 437 531 514 455 514 331 c 2
 514 323 l 2
 514 210 430 130 311 130 c 2
 147 130 l 1
 147 0 l 1
 78 0 l 1
 78 639 l 1
147 463 m 1
 147 198 l 1
 302 198 l 2
 388 198 446 246 446 320 c 2
 446 331 l 2
 446 416 395 463 303 463 c 2
 147 463 l 1
EndSplineSet
EndChar

StartChar: germandbls
Encoding: 223 223 164
GlifName: germandbls
Width: 640
VWidth: 900
Flags: HMW
LayerCount: 2
Fore
SplineSet
370 304 m 2
 296 304 l 1
 296 372 l 1
 370 372 l 2
 419.865758304 372 451 414.161549735 451 481.689054319 c 0
 451 571.45485308 396.40162916 626 306.548238965 626 c 0
 203.93574972 626 147 555.342507835 147 428 c 2
 147 0 l 1
 78 0 l 1
 78 436 l 2
 78 594.752300148 164.676930401 693 304.732749434 693 c 0
 433.131072944 693 520 609.92451676 520 487.133167376 c 0
 520 421.148412107 494.810361425 366.339713203 451 337 c 1
 513.290033963 303.875360304 550 240.591114454 550 166.334074215 c 0
 550 61.8088012168 477.275872085 -9 369.92326629 -9 c 0
 326.288803433 -9 281.315006945 2.65659289201 246.459960938 23 c 1
 246.459960938 96 l 1
 279.443675762 73.0172675668 321.231618917 60 362.026914283 60 c 0
 436.943136035 60 481 104.117347 481 179.136416755 c 0
 481 254.25061372 436.77427995 304 370 304 c 2
EndSplineSet
EndChar

StartChar: multiply
Encoding: 215 215 165
GlifName: multiply
Width: 483
VWidth: 900
Flags: HMW
LayerCount: 2
Fore
SplineSet
242 225 m 1
 131 115 l 1
 83 163 l 1
 194 274 l 1
 79 388 l 1
 128 436 l 1
 242 322 l 1
 353 433 l 1
 401 384 l 1
 290 274 l 1
 404 160 l 1
 356 111 l 1
 242 225 l 1
EndSplineSet
EndChar

StartChar: ae
Encoding: 230 230 166
GlifName: ae
Width: 819
VWidth: 900
Flags: HMW
AnchorPoint: "Top1" 397 578 basechar 0
LayerCount: 2
Fore
SplineSet
426 237 m 2
 426 119 476 54 567 54 c 0
 632 54 681 87 690 136 c 1
 759 136 l 1
 750 48 675 -12 573 -12 c 0
 449 -12 375 77 375 228 c 2
 375 254 l 2
 375 395 456 491 575 491 c 0
 691 491 759 402 759 249 c 2
 759 216 l 1
 401 216 l 1
 401 276 l 1
 690 276 l 1
 690 369 644 426 567 426 c 0
 482 426 426 355 426 245 c 2
 426 237 l 2
60 134 m 2
 60 233 140 293 272 293 c 0
 324 293 378 284 408 270 c 9
 408 154 l 2
 408 60 327 -12 220 -12 c 0
 124 -12 60 45 60 133 c 2
 60 134 l 2
129 133 m 2
 129 86 169 54 229 54 c 0
 304 54 357 104 357 172 c 2
 357 219 l 17
 341 226 304 230 270 230 c 0
 181 230 129 195 129 134 c 2
 129 133 l 2
357 136 m 1
 357 306 l 2
 357 384 318 428 248 428 c 0
 186 428 145 393 138 335 c 1
 69 335 l 1
 78 428 151 491 248 491 c 0
 349 491 408 425 408 315 c 2
 408 136 l 1
 357 136 l 1
EndSplineSet
Substitution2: "'smcp' Lowercase to Small Capitals in Latin lookup 0 subtable" ae.sc
Substitution2: "'ss01' Style Set 1 lookup 3-1" ae.ss01
EndChar

StartChar: eth
Encoding: 240 240 167
GlifName: eth
Width: 540
VWidth: 900
Flags: HMW
LayerCount: 2
Fore
SplineSet
497 612 m 5
 252 489 l 5
 224 542 l 5
 470 665 l 5
 497 612 l 5
202 624 m 1
 211 689 l 1
 369 689 480 558 480 349 c 2
 480 300 l 2
 480 108 404 -12 263 -12 c 0
 142 -12 60 78 60 208 c 2
 60 228 l 2
 60 359 132 446 241 446 c 0
 316 446 379 408 411 346 c 1
 411 370 l 2
 411 518 324 624 202 624 c 1
401 219 m 1
 387 320 328 381 251 381 c 0
 174 381 129 322 129 228 c 2
 129 208 l 2
 129 114 180 54 262 54 c 0
 341 54 393 113 401 219 c 1
EndSplineSet
Substitution2: "'smcp' Lowercase to Small Capitals in Latin lookup 0 subtable" eth.sc
EndChar

StartChar: divide
Encoding: 247 247 168
GlifName: divide
Width: 483
VWidth: 900
Flags: HMW
LayerCount: 2
Fore
SplineSet
190 429 m 4
 190 456 211 478 238 478 c 4
 265 478 287 456 287 429 c 4
 287 402 265 381 238 381 c 4
 211 381 190 402 190 429 c 4
190 96 m 4
 190 123 211 145 238 145 c 4
 265 145 287 123 287 96 c 4
 287 69 265 48 238 48 c 4
 211 48 190 69 190 96 c 4
433 239 m 1
 51 239 l 1
 51 308 l 1
 433 308 l 1
 433 239 l 1
EndSplineSet
EndChar

StartChar: oslash
Encoding: 248 248 169
GlifName: oslash
Width: 540
VWidth: 900
Flags: HMW
AnchorPoint: "Top1" 269 578 basechar 0
LayerCount: 2
Fore
SplineSet
388 524 m 1
 464 524 l 1
 164 -45 l 1
 87 -45 l 1
 388 524 l 1
60 254 m 2
 60 393 148 491 271 491 c 0
 401 491 480 400 480 252 c 2
 480 226 l 2
 480 87 391 -12 266 -12 c 0
 138 -12 60 80 60 228 c 2
 60 254 l 2
129 237 m 2
 129 120 179 54 268 54 c 0
 354 54 411 126 411 235 c 2
 411 243 l 2
 411 360 360 426 268 426 c 0
 184 426 129 354 129 245 c 2
 129 237 l 2
EndSplineSet
Substitution2: "'smcp' Lowercase to Small Capitals in Latin lookup 0 subtable" oslash.sc
EndChar

StartChar: thorn
Encoding: 254 254 170
GlifName: thorn
Width: 558
VWidth: 900
Flags: HMW
LayerCount: 2
Fore
SplineSet
78 684 m 1
 147 684 l 1
 147 -180 l 1
 78 -180 l 1
 78 684 l 1
123 281 m 2
 123 407 198 491 308 491 c 0
 424 491 498 398 498 252 c 2
 498 226 l 2
 498 87 414 -12 295 -12 c 0
 189 -12 123 69 123 201 c 2
 123 281 l 2
147 210 m 2
 147 112 196 54 279 54 c 0
 371 54 429 125 429 235 c 2
 429 243 l 2
 429 359 379 426 289 426 c 0
 203 426 147 365 147 272 c 2
 147 210 l 2
EndSplineSet
EndChar

StartChar: uni0306
Encoding: 774 774 173
GlifName: uni0306
Width: 459
VWidth: 900
Flags: HMW
AnchorPoint: "Top1" 230 477 mark 0
LayerCount: 2
Fore
SplineSet
321 591 m 1
 321 543 286 511 232 511 c 0
 171 511 138 541 138 593 c 1
 78 593 l 1
 78 509 136 458 230 458 c 0
 318 458 381 513 381 591 c 1
 321 591 l 1
EndSplineSet
EndChar

StartChar: Dcroat
Encoding: 272 272 176
GlifName: D_croat
Width: 663
VWidth: 900
Flags: HMW
LayerCount: 2
Fore
SplineSet
352 284 m 5
 51 284 l 5
 51 353 l 5
 352 353 l 5
 352 284 l 5
348 639 m 2
 506 639 604 524 604 337 c 2
 604 310 l 2
 604 127 498 0 348 0 c 2
 132 0 l 1
 132 639 l 1
 348 639 l 2
339 571 m 2
 201 571 l 1
 201 68 l 1
 339 68 l 2
 458 68 536 167 536 316 c 2
 536 328 l 2
 536 485 466 571 339 571 c 2
EndSplineSet
Substitution2: "'c2sc' Capitals to Small Capitals in Latin lookup 0 subtable" dcroat.sc
EndChar

StartChar: dcroat
Encoding: 273 273 177
GlifName: dcroat
Width: 576
VWidth: 900
Flags: HMW
LayerCount: 2
Fore
SplineSet
558 563 m 1
 558 623 l 1
 257 623 l 1
 257 563 l 1
 558 563 l 1
480 684 m 1
 411 684 l 1
 411 0 l 1
 480 0 l 1
 480 684 l 1
435 281 m 2
 435 407 360 491 250 491 c 0
 134 491 60 398 60 252 c 2
 60 226 l 2
 60 87 144 -12 263 -12 c 0
 369 -12 435 69 435 201 c 2
 435 281 l 2
411 210 m 2
 411 112 362 54 279 54 c 0
 187 54 129 125 129 235 c 2
 129 243 l 2
 129 359 179 426 269 426 c 0
 355 426 411 365 411 272 c 2
 411 210 l 2
EndSplineSet
Substitution2: "'smcp' Lowercase to Small Capitals in Latin lookup 0 subtable" dcroat.sc
EndChar

StartChar: uni031B
Encoding: 795 795 178
GlifName: uni031B_
Width: 268
VWidth: 900
Flags: HMW
AnchorPoint: "Top2" 72 564 mark 0
LayerCount: 2
Fore
SplineSet
51 536 m 1
 51 595 l 1
 105 595 l 2
 129 595 143 609 143 636 c 6
 143 711 l 5
 201 711 l 5
 201 631 l 6
 201 579 165 536 121 536 c 2
 51 536 l 1
EndSplineSet
EndChar

StartChar: hookabovecomb
Encoding: 777 777 179
GlifName: hookabovecomb
Width: 324
VWidth: 900
Flags: HMW
AnchorPoint: "Top1" 162 477 mark 0
LayerCount: 2
Fore
SplineSet
130 468 m 1
 189 468 l 1
 190 484 194 497 210 508 c 0
 242 531 255 554 255 583 c 0
 255 630 218 662 164 662 c 0
 110 662 74 630 69 576 c 1
 129 576 l 1
 131 597 145 610 165 610 c 0
 184 610 195 599 195 580 c 0
 195 567 189 555 172 544 c 0
 142 524 133 500 130 468 c 1
EndSplineSet
EndChar

StartChar: dotbelowcomb
Encoding: 803 803 180
GlifName: dotbelowcomb
Width: 315
VWidth: 900
Flags: HMW
AnchorPoint: "Bottom1" 144 0 mark 0
LayerCount: 2
Fore
SplineSet
95 -131 m 0
 95 -104 117 -83 144 -83 c 0
 171 -83 193 -104 193 -131 c 0
 193 -158 171 -180 144 -180 c 0
 117 -180 95 -158 95 -131 c 0
EndSplineSet
EndChar

StartChar: currency
Encoding: 164 164 277
GlifName: currency
Width: 483
VWidth: 900
Flags: HMW
LayerCount: 2
Fore
SplineSet
92 274 m 0
 92 357 158 425 241 425 c 0
 324 425 392 357 392 274 c 0
 392 191 324 124 241 124 c 0
 158 124 92 191 92 274 c 0
151 274 m 0
 151 224 191 184 241 184 c 0
 291 184 331 224 331 274 c 0
 331 324 291 364 241 364 c 0
 191 364 151 324 151 274 c 0
151 317 m 1
 50 418 l 1
 98 466 l 1
 199 364 l 1
 177 355 160 339 151 317 c 1
284 364 m 1
 382 463 l 1
 431 414 l 1
 332 316 l 1
 323 338 306 355 284 364 c 1
332 232 m 1
 434 130 l 1
 386 81 l 1
 284 184 l 1
 306 193 323 210 332 232 c 1
201 184 m 1
 101 85 l 1
 53 133 l 1
 151 231 l 1
 160 209 179 193 201 184 c 1
EndSplineSet
EndChar

StartChar: yen
Encoding: 165 165 278
GlifName: yen
Width: 565
VWidth: 900
Flags: HMW
LayerCount: 2
Fore
SplineSet
467 70 m 1
 104 70 l 1
 104 138 l 1
 467 138 l 1
 467 70 l 1
467 205 m 1
 104 205 l 1
 104 273 l 1
 467 273 l 1
 467 205 l 1
248 298 m 1
 42 639 l 1
 121 639 l 1
 282 375 l 1
 443 639 l 1
 524 639 l 1
 317 298 l 1
 317 0 l 1
 248 0 l 1
 248 298 l 1
EndSplineSet
EndChar

StartChar: brokenbar
Encoding: 166 166 279
GlifName: brokenbar
Width: 225
VWidth: 900
Flags: HMW
LayerCount: 2
Fore
SplineSet
78 750 m 1
 147 750 l 1
 147 411 l 5
 78 411 l 5
 78 750 l 1
147 210 m 5
 147 -150 l 1
 78 -150 l 1
 78 210 l 5
 147 210 l 5
EndSplineSet
EndChar

StartChar: section
Encoding: 167 167 280
GlifName: section
Width: 486
VWidth: 900
Flags: HMW
LayerCount: 2
Fore
SplineSet
226 395 m 1
 296 379 362 366 362 318 c 0
 362 274 328 246 269 242 c 1
 199 258 133 272 133 320 c 0
 133 364 167 391 226 395 c 1
358 213 m 1
 404 235 430 274 430 325 c 0
 430 419 335 438 251 458 c 0
 189 471 133 485 133 534 c 0
 133 574 175 601 237 601 c 0
 303 601 345 574 353 524 c 1
 421 524 l 1
 413 616 347 665 239 665 c 0
 137 665 65 608 65 527 c 0
 65 474 96 445 137 425 c 1
 91 403 65 364 65 313 c 0
 65 219 160 199 244 179 c 0
 306 166 362 153 362 104 c 0
 362 64 320 36 258 36 c 0
 192 36 150 64 142 114 c 1
 74 114 l 1
 82 22 148 -28 256 -28 c 0
 358 -28 430 29 430 110 c 0
 430 163 399 193 358 213 c 1
EndSplineSet
EndChar

StartChar: dieresis
Encoding: 168 168 281
GlifName: dieresis
Width: 397
VWidth: 900
Flags: HMW
LayerCount: 2
Fore
SplineSet
259 526 m 0
 259 553 281 575 308 575 c 0
 335 575 357 553 357 526 c 0
 357 499 335 478 308 478 c 0
 281 478 259 499 259 526 c 0
41 526 m 0
 41 553 62 575 89 575 c 0
 116 575 138 553 138 526 c 0
 138 499 116 478 89 478 c 0
 62 478 41 499 41 526 c 0
EndSplineSet
EndChar

StartChar: cedilla
Encoding: 184 184 282
GlifName: cedilla
Width: 321
VWidth: 900
Flags: HMW
LayerCount: 2
Fore
SplineSet
230 -145 m 0
 230 -116 215 -98 190 -98 c 2
 148 -99 l 1
 148 15 l 1
 193 15 l 1
 193 -50 l 1
 200 -50 l 2
 248 -50 281 -88 281 -141 c 0
 281 -211 230 -258 158 -258 c 0
 90 -258 46 -215 41 -145 c 1
 92 -145 l 1
 97 -186 124 -211 163 -211 c 0
 203 -211 230 -184 230 -145 c 0
EndSplineSet
EndChar

StartChar: copyright
Encoding: 169 169 283
GlifName: copyright
Width: 749
VWidth: 900
Flags: HMW
LayerCount: 2
Fore
SplineSet
286 317 m 6
 286 248 318 209 374 209 c 4
 412 209 441 233 446 270 c 5
 515 270 l 5
 509 193 452 143 371 143 c 4
 276 143 218 209 218 316 c 6
 218 326 l 6
 218 426 283 497 376 497 c 4
 459 497 509 450 515 368 c 5
 446 368 l 5
 441 408 415 431 374 431 c 4
 322 431 286 389 286 325 c 6
 286 317 l 6
60 323 m 2
 60 517 191 653 376 653 c 0
 570 653 690 528 690 322 c 2
 690 318 l 2
 690 124 557 -12 371 -12 c 0
 178 -12 60 114 60 320 c 2
 60 323 l 2
129 320 m 2
 129 150 218 54 374 54 c 0
 523 54 621 159 621 318 c 2
 621 322 l 2
 621 492 533 588 374 588 c 0
 227 588 129 482 129 323 c 2
 129 320 l 2
EndSplineSet
EndChar

StartChar: registered
Encoding: 174 174 284
GlifName: registered
Width: 749
VWidth: 900
Flags: HMW
LayerCount: 2
Fore
SplineSet
129 320 m 6
 129 150 218 54 374 54 c 4
 523 54 621 159 621 318 c 6
 621 322 l 6
 621 492 533 588 374 588 c 4
 227 588 129 482 129 323 c 6
 129 320 l 6
60 323 m 6
 60 517 191 653 376 653 c 4
 570 653 690 528 690 322 c 6
 690 318 l 6
 690 124 557 -12 371 -12 c 4
 178 -12 60 114 60 320 c 6
 60 323 l 6
400 421 m 6
 320 421 l 5
 320 328 l 5
 400 328 l 6
 428 328 446 346 446 374 c 6
 446 376 l 6
 446 405 429 421 400 421 c 6
320 260 m 5
 320 150 l 5
 250 150 l 5
 250 489 l 5
 394 489 l 6
 468 489 514 446 514 376 c 6
 514 375 l 6
 514 322 484 281 439 268 c 5
 523 150 l 5
 442 150 l 5
 363 260 l 5
 320 260 l 5
EndSplineSet
EndChar

StartChar: ordfeminine
Encoding: 170 170 285
GlifName: ordfeminine
Width: 407
VWidth: 900
Flags: HMW
LayerCount: 2
Fore
SplineSet
60 430 m 2
 60 498 116 543 202 543 c 0
 240 543 273 533 292 519 c 9
 292 459 l 2
 292 387 237 330 168 330 c 4
 102 330 60 369 60 429 c 2
 60 430 l 2
122 429 m 2
 122 405 145 390 178 390 c 0
 225 390 259 421 259 462 c 2
 259 475 l 17
 250 482 230 487 207 487 c 0
 155 487 122 465 122 430 c 2
 122 429 l 2
259 441 m 2
 259 536 l 2
 259 594 235 626 192 626 c 0
 158 626 135 606 131 572 c 1
 69 572 l 1
 75 639 127 684 197 684 c 0
 274 684 321 631 321 545 c 2
 321 441 l 2
 321 399 322 366 324 343 c 1
 263 343 l 1
 260 376 259 407 259 441 c 2
EndSplineSet
EndChar

StartChar: guillemotleft
Encoding: 171 171 286
GlifName: guillemotleft
Width: 619
VWidth: 900
Flags: HMW
LayerCount: 2
Fore
SplineSet
560 455 m 1
 560 368 l 1
 371 237 l 1
 560 105 l 1
 560 22 l 1
 315 193 l 1
 315 284 l 1
 560 455 l 1
304 455 m 1
 304 368 l 1
 116 237 l 1
 304 105 l 1
 304 22 l 1
 60 193 l 1
 60 284 l 1
 304 455 l 1
EndSplineSet
Substitution2: "'case' Case-Sensitive Forms lookup 13-1" guillemotleft.case
EndChar

StartChar: guillemotright
Encoding: 187 187 287
GlifName: guillemotright
Width: 619
VWidth: 900
Flags: HMW
LayerCount: 2
Fore
SplineSet
60 22 m 5
 60 109 l 5
 248 240 l 5
 60 372 l 5
 60 455 l 5
 304 284 l 5
 304 193 l 5
 60 22 l 5
315 22 m 1
 315 109 l 1
 503 240 l 1
 315 372 l 1
 315 455 l 1
 560 284 l 1
 560 193 l 1
 315 22 l 1
EndSplineSet
Substitution2: "'case' Case-Sensitive Forms lookup 13-1" guillemotright.case
EndChar

StartChar: degree
Encoding: 176 176 288
GlifName: degree
Width: 315
VWidth: 900
Flags: HMW
LayerCount: 2
Fore
SplineSet
43 576 m 6
 43 644 94 691 164 691 c 4
 232 691 274 647 274 574 c 6
 274 573 l 6
 274 505 226 458 159 458 c 4
 87 458 43 502 43 575 c 6
 43 576 l 6
103 575 m 6
 103 536 123 515 161 515 c 4
 193 515 214 538 214 573 c 6
 214 574 l 6
 214 613 196 634 162 634 c 4
 127 634 103 611 103 576 c 6
 103 575 l 6
EndSplineSet
EndChar

StartChar: logicalnot
Encoding: 172 172 289
GlifName: logicalnot
Width: 483
VWidth: 900
Flags: HMW
LayerCount: 2
Fore
SplineSet
362 239 m 1
 51 239 l 1
 51 308 l 1
 433 308 l 1
 433 134 l 1
 362 134 l 1
 362 239 l 1
EndSplineSet
EndChar

StartChar: uni00AD
Encoding: 173 173 290
GlifName: uni00A_D_
Width: 348
VWidth: 900
Flags: HMW
LayerCount: 2
Fore
SplineSet
298 239 m 5
 51 239 l 1
 51 308 l 1
 298 308 l 5
 298 239 l 5
EndSplineSet
Substitution2: "'case' Case-Sensitive Forms lookup 13-1" uni00AD.case
EndChar

StartChar: macron
Encoding: 175 175 291
GlifName: macron
Width: 483
VWidth: 900
Flags: HMW
LayerCount: 2
Fore
SplineSet
433 547 m 5
 51 547 l 5
 51 615 l 5
 433 615 l 5
 433 547 l 5
EndSplineSet
EndChar

StartChar: plusminus
Encoding: 177 177 292
GlifName: plusminus
Width: 483
VWidth: 900
Flags: HMW
LayerCount: 2
Fore
SplineSet
433 -23 m 1
 51 -23 l 1
 51 45 l 1
 433 45 l 1
 433 -23 l 1
208 307 m 1
 51 307 l 1
 51 375 l 1
 208 375 l 1
 208 536 l 1
 276 536 l 1
 276 375 l 1
 433 375 l 1
 433 307 l 1
 276 307 l 1
 276 146 l 1
 208 146 l 1
 208 307 l 1
EndSplineSet
EndChar

StartChar: acute
Encoding: 180 180 293
GlifName: acute
Width: 337
VWidth: 900
Flags: HMW
LayerCount: 2
Fore
SplineSet
287 639 m 1
 132 383 l 1
 51 383 l 1
 202 639 l 1
 287 639 l 1
EndSplineSet
EndChar

StartChar: mu
Encoding: 181 181 294
GlifName: mu
Width: 558
VWidth: 900
Flags: HMW
LayerCount: 2
Fore
SplineSet
411 0 m 1
 480 0 l 1
 480 477 l 1
 411 477 l 1
 411 0 l 1
411 182 m 1
 411 98 366 51 286 51 c 0
 202 51 147 105 147 187 c 1
 122 187 l 1
 122 65 186 -14 284 -14 c 0
 380 -14 439 60 439 182 c 1
 411 182 l 1
78 -150 m 1
 147 -150 l 1
 147 477 l 1
 78 477 l 1
 78 -150 l 1
EndSplineSet
EndChar

StartChar: paragraph
Encoding: 182 182 295
GlifName: paragraph
Width: 513
VWidth: 900
Flags: HMW
LayerCount: 2
Fore
SplineSet
367 639 m 1
 436 639 l 1
 436 0 l 1
 367 0 l 1
 367 639 l 1
232 639 m 1
 302 639 l 1
 302 0 l 1
 232 0 l 1
 232 639 l 1
43 524 m 2
 43 592 94 639 164 639 c 0
 164 406 l 0
 89 406 43 450 43 523 c 2
 43 524 l 2
EndSplineSet
EndChar

StartChar: periodcentered
Encoding: 183 183 296
GlifName: periodcentered
Width: 225
VWidth: 900
Flags: HMW
LayerCount: 2
Fore
SplineSet
64 292 m 4
 64 319 85 341 112 341 c 4
 139 341 161 319 161 292 c 4
 161 265 139 244 112 244 c 4
 85 244 64 265 64 292 c 4
EndSplineSet
EndChar

StartChar: endash
Encoding: 8211 8211 297
GlifName: endash
Width: 573
VWidth: 900
Flags: HMW
LayerCount: 2
Fore
SplineSet
523 239 m 5
 51 239 l 1
 51 308 l 1
 523 308 l 5
 523 239 l 5
EndSplineSet
Ligature2: "'dlig' Discretionary Ligatures lookup 12-3" hyphen hyphen
Substitution2: "'case' Case-Sensitive Forms lookup 13-1" endash.case
EndChar

StartChar: emdash
Encoding: 8212 8212 298
GlifName: emdash
Width: 708
VWidth: 900
Flags: HMW
LayerCount: 2
Fore
SplineSet
658 239 m 5
 51 239 l 1
 51 308 l 1
 658 308 l 5
 658 239 l 5
EndSplineSet
Ligature2: "'dlig' Discretionary Ligatures lookup 12-3" hyphen hyphen hyphen
Substitution2: "'case' Case-Sensitive Forms lookup 13-1" emdash.case
EndChar

StartChar: quoteleft
Encoding: 8216 8216 299
GlifName: quoteleft
Width: 270
VWidth: 900
Flags: HMW
LayerCount: 2
Fore
SplineSet
132 684 m 5
 201 684 l 5
 141 519 l 5
 179 507 194 485 194 459 c 4
 194 425 165 399 131 399 c 4
 97 399 69 425 69 459 c 4
 69 487 77 513 85 537 c 6
 132 684 l 5
EndSplineSet
EndChar

StartChar: quoteright
Encoding: 8217 8217 300
GlifName: quoteright
Width: 270
VWidth: 900
Flags: HMW
LayerCount: 2
Fore
SplineSet
138 399 m 1
 69 399 l 1
 129 563 l 1
 91 575 76 598 76 624 c 0
 76 658 105 684 139 684 c 0
 173 684 201 658 201 624 c 0
 201 596 193 569 185 545 c 2
 138 399 l 1
EndSplineSet
EndChar

StartChar: quotesinglbase
Encoding: 8218 8218 301
GlifName: quotesinglbase
Width: 270
VWidth: 900
Flags: HMW
LayerCount: 2
Fore
SplineSet
138 -165 m 5
 69 -165 l 5
 129 0 l 5
 91 12 76 34 76 60 c 4
 76 94 105 121 139 121 c 4
 173 121 201 94 201 60 c 4
 201 32 193 6 185 -18 c 6
 138 -165 l 5
EndSplineSet
EndChar

StartChar: quotereversed
Encoding: 8219 8219 302
GlifName: quotereversed
Width: 270
VWidth: 900
Flags: HMW
LayerCount: 2
Fore
SplineSet
132 399 m 5
 85 545 l 6
 77 569 69 596 69 624 c 4
 69 658 97 684 131 684 c 4
 165 684 194 658 194 624 c 4
 194 598 179 575 141 563 c 5
 201 399 l 5
 132 399 l 5
EndSplineSet
EndChar

StartChar: quotedblleft
Encoding: 8220 8220 303
GlifName: quotedblleft
Width: 450
VWidth: 900
Flags: HMW
LayerCount: 2
Fore
SplineSet
312 684 m 1
 381 684 l 1
 321 519 l 1
 359 507 374 485 374 459 c 0
 374 425 345 399 311 399 c 0
 277 399 249 425 249 459 c 0
 249 487 257 513 265 537 c 2
 312 684 l 1
132 684 m 1
 201 684 l 1
 141 519 l 1
 179 507 194 485 194 459 c 0
 194 425 165 399 131 399 c 0
 97 399 69 425 69 459 c 0
 69 487 77 513 85 537 c 2
 132 684 l 1
EndSplineSet
EndChar

StartChar: quotedblright
Encoding: 8221 8221 304
GlifName: quotedblright
Width: 450
VWidth: 900
Flags: HMW
LayerCount: 2
Fore
SplineSet
318 399 m 5
 249 399 l 5
 309 563 l 5
 271 575 256 598 256 624 c 4
 256 658 285 684 319 684 c 4
 353 684 381 658 381 624 c 4
 381 596 373 569 365 545 c 6
 318 399 l 5
138 399 m 1
 69 399 l 1
 129 563 l 1
 91 575 76 598 76 624 c 0
 76 658 105 684 139 684 c 0
 173 684 201 658 201 624 c 0
 201 596 193 569 185 545 c 2
 138 399 l 1
EndSplineSet
EndChar

StartChar: quotedblbase
Encoding: 8222 8222 305
GlifName: quotedblbase
Width: 450
VWidth: 900
Flags: HMW
LayerCount: 2
Fore
SplineSet
318 -165 m 5
 249 -165 l 5
 309 0 l 5
 271 12 256 34 256 60 c 4
 256 94 285 121 319 121 c 4
 353 121 381 94 381 60 c 4
 381 32 373 6 365 -18 c 6
 318 -165 l 5
138 -165 m 1
 69 -165 l 1
 129 0 l 1
 91 12 76 34 76 60 c 0
 76 94 105 121 139 121 c 0
 173 121 201 94 201 60 c 0
 201 32 193 6 185 -18 c 2
 138 -165 l 1
EndSplineSet
EndChar

StartChar: uni201F
Encoding: 8223 8223 306
GlifName: uni201F_
Width: 450
VWidth: 900
Flags: HMW
LayerCount: 2
Fore
SplineSet
312 399 m 5
 265 545 l 6
 257 569 249 596 249 624 c 4
 249 658 277 684 311 684 c 4
 345 684 374 658 374 624 c 4
 374 598 359 575 321 563 c 5
 381 399 l 5
 312 399 l 5
132 399 m 1
 85 545 l 2
 77 569 69 596 69 624 c 0
 69 658 97 684 131 684 c 0
 165 684 194 658 194 624 c 0
 194 598 179 575 141 563 c 1
 201 399 l 1
 132 399 l 1
EndSplineSet
EndChar

StartChar: dagger
Encoding: 8224 8224 307
GlifName: dagger
Width: 483
VWidth: 900
Flags: HMW
LayerCount: 2
Fore
SplineSet
208 410 m 5
 51 410 l 5
 51 478 l 5
 208 478 l 5
 199 639 l 5
 285 639 l 5
 276 478 l 5
 433 478 l 5
 433 410 l 5
 276 410 l 5
 276 0 l 5
 208 0 l 5
 208 410 l 5
EndSplineSet
EndChar

StartChar: daggerdbl
Encoding: 8225 8225 308
GlifName: daggerdbl
Width: 483
VWidth: 900
Flags: HMW
LayerCount: 2
Fore
SplineSet
276 478 m 1
 433 478 l 1
 433 410 l 1
 276 410 l 1
 276 230 l 1
 433 230 l 1
 433 161 l 1
 276 161 l 1
 285 0 l 1
 199 0 l 1
 208 161 l 1
 51 161 l 1
 51 230 l 1
 208 230 l 1
 208 410 l 1
 51 410 l 1
 51 478 l 1
 208 478 l 1
 199 639 l 1
 285 639 l 1
 276 478 l 1
EndSplineSet
EndChar

StartChar: bullet
Encoding: 8226 8226 309
GlifName: bullet
Width: 369
VWidth: 900
Flags: HMW
LayerCount: 2
Fore
SplineSet
69 297 m 2
 69 365 120 412 190 412 c 0
 258 412 300 368 300 295 c 2
 300 294 l 2
 300 226 252 179 185 179 c 0
 113 179 69 223 69 296 c 2
 69 297 l 2
EndSplineSet
EndChar

StartChar: minute
Encoding: 8242 8242 310
GlifName: minute
Width: 356
VWidth: 900
Flags: HMW
LayerCount: 2
Fore
SplineSet
296 639 m 1
 141 383 l 1
 60 383 l 1
 212 639 l 1
 296 639 l 1
EndSplineSet
EndChar

StartChar: second
Encoding: 8243 8243 311
GlifName: second
Width: 545
VWidth: 900
Flags: HMW
LayerCount: 2
Fore
SplineSet
485 639 m 5
 330 383 l 5
 249 383 l 5
 400 639 l 5
 485 639 l 5
296 639 m 5
 141 383 l 5
 60 383 l 5
 212 639 l 5
 296 639 l 5
EndSplineSet
EndChar

StartChar: uni2034
Encoding: 8244 8244 312
GlifName: uni2034
Width: 734
VWidth: 900
Flags: HMW
LayerCount: 2
Fore
SplineSet
674 639 m 1
 519 383 l 1
 438 383 l 1
 590 639 l 1
 674 639 l 1
485 639 m 1
 330 383 l 1
 249 383 l 1
 400 639 l 1
 485 639 l 1
296 639 m 1
 141 383 l 1
 60 383 l 1
 212 639 l 1
 296 639 l 1
EndSplineSet
EndChar

StartChar: uni2035
Encoding: 8245 8245 313
GlifName: uni2035
Width: 356
VWidth: 900
Flags: HMW
LayerCount: 2
Fore
SplineSet
296 383 m 1
 212 383 l 1
 60 639 l 1
 141 639 l 1
 296 383 l 1
EndSplineSet
EndChar

StartChar: uni2036
Encoding: 8246 8246 314
GlifName: uni2036
Width: 545
VWidth: 900
Flags: HMW
LayerCount: 2
Fore
SplineSet
485 383 m 5
 400 383 l 5
 249 639 l 5
 330 639 l 5
 485 383 l 5
296 383 m 5
 212 383 l 5
 60 639 l 5
 141 639 l 5
 296 383 l 5
EndSplineSet
EndChar

StartChar: uni2037
Encoding: 8247 8247 315
GlifName: uni2037
Width: 734
VWidth: 900
Flags: HMW
LayerCount: 2
Fore
SplineSet
674 383 m 1
 590 383 l 1
 438 639 l 1
 519 639 l 1
 674 383 l 1
485 383 m 1
 400 383 l 1
 249 639 l 1
 330 639 l 1
 485 383 l 1
296 383 m 1
 212 383 l 1
 60 639 l 1
 141 639 l 1
 296 383 l 1
EndSplineSet
EndChar

StartChar: dong
Encoding: 8363 8363 316
GlifName: dong
Width: 486
VWidth: 900
Flags: HMW
LayerCount: 2
Fore
SplineSet
433 -25 m 5
 433 43 l 5
 51 43 l 1
 51 -25 l 1
 433 -25 l 5
468 563 m 5
 468 623 l 5
 212 623 l 5
 212 563 l 5
 468 563 l 5
390 684 m 5
 321 684 l 5
 321 126 l 5
 390 126 l 5
 390 684 l 5
345 317 m 6
 345 417 288 491 205 491 c 4
 116 491 60 415 60 306 c 2
 60 298 l 2
 60 195 126 114 218 114 c 4
 296 114 345 186 345 291 c 6
 345 317 l 6
321 300 m 6
 321 229 289 180 234 180 c 4
 170 180 129 226 129 298 c 2
 129 306 l 2
 129 382 163 426 224 426 c 4
 282 426 321 375 321 308 c 6
 321 300 l 6
EndSplineSet
EndChar

StartChar: Euro
Encoding: 8364 8364 317
GlifName: E_uro
Width: 657
VWidth: 900
Flags: HMW
LayerCount: 2
Fore
SplineSet
433 203 m 1
 51 203 l 1
 51 272 l 1
 433 272 l 1
 433 203 l 1
433 374 m 1
 51 374 l 1
 51 443 l 1
 433 443 l 1
 433 374 l 1
192 309 m 2
 192 146 255 54 367 54 c 0
 453 54 517 112 528 199 c 1
 597 199 l 1
 586 71 495 -12 365 -12 c 0
 215 -12 123 110 123 309 c 2
 123 335 l 2
 123 522 226 653 370 653 c 0
 505 653 586 578 597 441 c 1
 528 441 l 1
 517 535 459 588 367 588 c 0
 261 588 192 487 192 335 c 2
 192 309 l 2
EndSplineSet
EndChar

StartChar: trademark
Encoding: 8482 8482 320
GlifName: trademark
Width: 576
VWidth: 900
Flags: HMW
LayerCount: 2
Fore
SplineSet
232 639 m 1
 232 594 l 1
 168 594 l 1
 168 388 l 1
 124 388 l 1
 124 594 l 1
 60 594 l 1
 60 639 l 1
 232 639 l 1
277 639 m 1
 329 639 l 1
 397 468 l 1
 464 639 l 1
 517 639 l 1
 517 388 l 1
 472 388 l 1
 472 536 l 1
 419 405 l 1
 374 405 l 1
 322 536 l 1
 322 388 l 1
 277 388 l 1
 277 639 l 1
EndSplineSet
EndChar

StartChar: arrowleft
Encoding: 8592 8592 321
GlifName: arrowleft
Width: 781
VWidth: 927
Flags: HMW
LayerCount: 2
Fore
SplineSet
250 509 m 5
 358 509 l 5
 171 329 l 5
 721 329 l 5
 721 256 l 5
 167 256 l 5
 358 76 l 5
 250 76 l 5
 60 256 l 5
 60 329 l 5
 250 509 l 5
EndSplineSet
Ligature2: "'dlig' Discretionary Ligatures lookup 12-1" less hyphen
EndChar

StartChar: arrowup
Encoding: 8593 8593 322
GlifName: arrowup
Width: 554
VWidth: 927
Flags: HMW
LayerCount: 2
Fore
SplineSet
494 433 m 5
 494 325 l 5
 314 512 l 5
 314 -38 l 5
 240 -38 l 5
 240 516 l 5
 60 325 l 5
 60 433 l 5
 240 623 l 5
 314 623 l 5
 494 433 l 5
EndSplineSet
EndChar

StartChar: arrowright
Encoding: 8594 8594 323
GlifName: arrowright
Width: 781
VWidth: 927
Flags: HMW
LayerCount: 2
Fore
SplineSet
531 76 m 5
 423 76 l 5
 610 256 l 5
 60 256 l 5
 60 329 l 5
 614 329 l 5
 423 509 l 5
 531 509 l 5
 721 329 l 5
 721 256 l 5
 531 76 l 5
EndSplineSet
Ligature2: "'dlig' Discretionary Ligatures lookup 12-1" hyphen greater
EndChar

StartChar: arrowdown
Encoding: 8595 8595 324
GlifName: arrowdown
Width: 554
VWidth: 927
Flags: HMW
LayerCount: 2
Fore
SplineSet
60 152 m 5
 60 260 l 5
 240 73 l 5
 240 623 l 5
 314 623 l 5
 314 69 l 5
 494 260 l 5
 494 152 l 5
 314 -38 l 5
 240 -38 l 5
 60 152 l 5
EndSplineSet
EndChar

StartChar: arrowboth
Encoding: 8596 8596 325
GlifName: arrowboth
Width: 781
VWidth: 927
Flags: HMW
LayerCount: 2
Fore
SplineSet
250 509 m 1
 358 509 l 1
 171 329 l 1
 614 329 l 1
 423 509 l 1
 531 509 l 1
 721 329 l 1
 721 256 l 1
 531 76 l 1
 423 76 l 1
 610 256 l 1
 167 256 l 1
 358 76 l 1
 250 76 l 1
 60 256 l 1
 60 329 l 1
 250 509 l 1
EndSplineSet
Ligature2: "'dlig' Discretionary Ligatures lookup 12-1" less hyphen greater
EndChar

StartChar: arrowupdn
Encoding: 8597 8597 326
GlifName: arrowupdn
Width: 554
VWidth: 927
Flags: HMW
LayerCount: 2
Fore
SplineSet
494 433 m 1
 494 325 l 1
 314 512 l 1
 314 69 l 1
 494 260 l 1
 494 152 l 1
 314 -38 l 1
 240 -38 l 1
 60 152 l 1
 60 260 l 1
 240 73 l 1
 240 516 l 1
 60 325 l 1
 60 433 l 1
 240 623 l 1
 314 623 l 1
 494 433 l 1
EndSplineSet
EndChar

StartChar: uni2196
Encoding: 8598 8598 327
GlifName: uni2196
Width: 639
VWidth: 927
Flags: HMW
LayerCount: 2
Fore
SplineSet
374 545 m 1
 450 469 l 1
 190 474 l 1
 579 85 l 1
 527 32 l 1
 136 424 l 1
 143 162 l 1
 67 238 l 1
 60 500 l 1
 112 553 l 1
 374 545 l 1
EndSplineSet
EndChar

StartChar: uni2197
Encoding: 8599 8599 328
GlifName: uni2197
Width: 639
VWidth: 927
Flags: HMW
LayerCount: 2
Fore
SplineSet
572 238 m 1
 496 162 l 1
 501 422 l 1
 112 32 l 1
 60 85 l 1
 451 476 l 1
 189 469 l 1
 266 545 l 1
 527 553 l 1
 579 500 l 1
 572 238 l 1
EndSplineSet
EndChar

StartChar: uni2198
Encoding: 8600 8600 329
GlifName: uni2198
Width: 639
VWidth: 927
Flags: HMW
LayerCount: 2
Fore
SplineSet
266 40 m 1
 189 116 l 1
 449 111 l 1
 60 500 l 1
 112 553 l 1
 503 161 l 1
 496 423 l 1
 572 346 l 1
 579 85 l 1
 527 32 l 1
 266 40 l 1
EndSplineSet
EndChar

StartChar: uni2199
Encoding: 8601 8601 330
GlifName: uni2199
Width: 639
VWidth: 927
Flags: HMW
LayerCount: 2
Fore
SplineSet
67 346 m 1
 143 423 l 1
 138 163 l 1
 527 553 l 1
 579 500 l 1
 188 109 l 1
 450 116 l 1
 374 40 l 1
 112 32 l 1
 60 85 l 1
 67 346 l 1
EndSplineSet
EndChar

StartChar: notequal
Encoding: 8800 8800 331
GlifName: notequal
Width: 420
VWidth: 900
Flags: HMW
LayerCount: 2
Fore
SplineSet
280 527 m 1
 356 527 l 1
 128 0 l 1
 51 0 l 1
 280 527 l 1
370 122 m 1
 51 122 l 1
 51 191 l 1
 370 191 l 1
 370 122 l 1
370 347 m 1
 51 347 l 1
 51 416 l 1
 370 416 l 1
 370 347 l 1
EndSplineSet
Substitution2: "'case' Case-Sensitive Forms lookup 13-1" notequal.case
EndChar

StartChar: lessequal
Encoding: 8804 8804 332
GlifName: lessequal
Width: 587
VWidth: 900
Flags: HMW
LayerCount: 2
Fore
SplineSet
536 -34 m 5
 51 -34 l 5
 51 34 l 5
 536 34 l 5
 536 -34 l 5
537 527 m 1
 537 452 l 1
 131 309 l 1
 537 166 l 1
 537 94 l 1
 60 265 l 1
 60 356 l 1
 537 527 l 1
EndSplineSet
Substitution2: "'case' Case-Sensitive Forms lookup 13-1" lessequal.case
EndChar

StartChar: greaterequal
Encoding: 8805 8805 333
GlifName: greaterequal
Width: 587
VWidth: 900
Flags: HMW
LayerCount: 2
Fore
SplineSet
536 -34 m 1
 51 -34 l 1
 51 34 l 1
 536 34 l 1
 536 -34 l 1
51 94 m 1
 51 169 l 1
 457 312 l 1
 51 455 l 1
 51 527 l 1
 528 356 l 1
 528 265 l 1
 51 94 l 1
EndSplineSet
Substitution2: "'case' Case-Sensitive Forms lookup 13-1" greaterequal.case
EndChar

StartChar: perthousand
Encoding: 8240 8240 334
GlifName: perthousand
Width: 1324
VWidth: 900
Flags: HMW
LayerCount: 2
Fore
SplineSet
945 180 m 2
 945 287 1009 364 1101 364 c 0
 1197 364 1256 293 1256 178 c 2
 1256 170 l 2
 1256 63 1190 -14 1096 -14 c 0
 1002 -14 945 57 945 172 c 2
 945 180 l 2
1013 172 m 2
 1013 96 1043 52 1098 52 c 0
 1152 52 1188 99 1188 170 c 2
 1188 178 l 2
 1188 254 1156 298 1099 298 c 0
 1048 298 1013 251 1013 180 c 2
 1013 172 l 2
558 180 m 2
 558 287 622 364 714 364 c 0
 810 364 869 293 869 178 c 2
 869 170 l 2
 869 63 803 -14 709 -14 c 0
 615 -14 558 57 558 172 c 2
 558 180 l 2
626 172 m 2
 626 96 656 52 711 52 c 0
 765 52 801 99 801 170 c 2
 801 178 l 2
 801 254 769 298 712 298 c 0
 661 298 626 251 626 180 c 2
 626 172 l 2
78 464 m 2
 78 571 143 648 235 648 c 0
 325 648 381 578 381 463 c 2
 381 454 l 2
 381 347 318 271 230 271 c 0
 136 271 78 341 78 456 c 2
 78 464 l 2
147 456 m 2
 147 380 177 337 232 337 c 0
 281 337 312 383 312 454 c 2
 312 463 l 2
 312 539 284 582 233 582 c 0
 181 582 147 535 147 464 c 2
 147 456 l 2
572 639 m 1
 649 639 l 1
 370 0 l 1
 293 0 l 1
 572 639 l 1
EndSplineSet
EndChar

StartChar: guilsinglleft
Encoding: 8249 8249 335
GlifName: guilsinglleft
Width: 364
VWidth: 900
Flags: HMW
LayerCount: 2
Fore
SplineSet
304 455 m 5
 304 368 l 5
 116 237 l 5
 304 105 l 5
 304 22 l 5
 60 193 l 5
 60 284 l 5
 304 455 l 5
EndSplineSet
Substitution2: "'case' Case-Sensitive Forms lookup 13-1" guilsinglleft.case
EndChar

StartChar: guilsinglright
Encoding: 8250 8250 336
GlifName: guilsinglright
Width: 364
VWidth: 900
Flags: HMW
LayerCount: 2
Fore
SplineSet
60 22 m 1
 60 109 l 1
 248 240 l 1
 60 372 l 1
 60 455 l 1
 304 284 l 1
 304 193 l 1
 60 22 l 1
EndSplineSet
Substitution2: "'case' Case-Sensitive Forms lookup 13-1" guilsinglright.case
EndChar

StartChar: uni2042
Encoding: 8258 8258 337
GlifName: uni2042
Width: 1110
VWidth: 900
Flags: HMW
LayerCount: 2
Fore
SplineSet
818 333 m 1
 886 333 l 1
 878 165 l 1
 1039 222 l 1
 1059 158 l 1
 897 113 l 1
 1002 -22 l 1
 946 -61 l 1
 852 80 l 1
 759 -61 l 1
 703 -22 l 1
 807 113 l 1
 645 158 l 1
 666 222 l 1
 826 165 l 1
 818 333 l 1
224 333 m 1
 292 333 l 1
 284 165 l 1
 445 222 l 1
 465 158 l 1
 303 113 l 1
 408 -22 l 1
 352 -61 l 1
 258 80 l 1
 165 -61 l 1
 109 -22 l 1
 213 113 l 1
 51 158 l 1
 72 222 l 1
 232 165 l 1
 224 333 l 1
521 684 m 1
 590 684 l 1
 581 516 l 1
 742 573 l 1
 762 508 l 1
 600 464 l 1
 705 329 l 1
 649 290 l 1
 555 431 l 1
 462 290 l 1
 406 329 l 1
 510 464 l 1
 348 508 l 1
 369 573 l 1
 529 516 l 1
 521 684 l 1
EndSplineSet
EndChar

StartChar: uni203D
Encoding: 8253 8253 338
GlifName: uni203D_
Width: 513
VWidth: 900
Flags: HMW
LayerCount: 2
Fore
SplineSet
199 482 m 5
 223 198 l 1
 288 198 l 1
 264 482 l 5
 199 482 l 5
265 216 m 1
 288 198 l 1
 295 254 318.237789381 284.72548335 376 335 c 0
 430 382 453 423 453 478 c 0
 453 583 374 653 259 653 c 0
 145 653 70 586 60 477 c 1
 129 477 l 1
 139 546 189 588 264 588 c 0
 338 588 384 547 384 482 c 0
 384 441 369.059206618 406.919168838 330 366 c 0
 288 322 270 280 265 216 c 1
207 40 m 0
 207 67 229 89 256 89 c 0
 283 89 304 67 304 40 c 0
 304 13 283 -8 256 -8 c 0
 229 -8 207 13 207 40 c 0
EndSplineSet
EndChar

StartChar: uni2051
Encoding: 8273 8273 339
GlifName: uni2051
Width: 513
VWidth: 900
Flags: HMW
LayerCount: 2
Fore
SplineSet
222 297 m 5
 291 297 l 5
 283 129 l 5
 443 186 l 5
 464 122 l 5
 302 77 l 5
 406 -58 l 5
 350 -97 l 5
 256 44 l 5
 163 -97 l 5
 107 -58 l 5
 212 77 l 5
 50 122 l 5
 70 186 l 5
 230 129 l 5
 222 297 l 5
222 702 m 5
 291 702 l 5
 283 534 l 5
 443 591 l 5
 464 526 l 5
 302 482 l 5
 406 347 l 5
 350 308 l 5
 256 449 l 5
 163 308 l 5
 107 347 l 5
 212 482 l 5
 50 526 l 5
 70 591 l 5
 230 534 l 5
 222 702 l 5
EndSplineSet
EndChar

StartChar: uni2070
Encoding: 8304 8304 340
GlifName: uni2070
Width: 383
VWidth: 900
Flags: HMW
LayerCount: 2
Fore
SplineSet
40 574 m 2
 40 681 105 758 197 758 c 0
 287 758 343 688 343 573 c 2
 343 564 l 2
 343 457 280 381 192 381 c 0
 98 381 40 451 40 566 c 2
 40 574 l 2
109 566 m 2
 109 490 139 447 194 447 c 0
 243 447 274 493 274 564 c 2
 274 573 l 2
 274 649 246 692 195 692 c 0
 143 692 109 645 109 574 c 2
 109 566 l 2
EndSplineSet
EndChar

StartChar: uni2074
Encoding: 8308 8308 341
GlifName: uni2074
Width: 383
VWidth: 900
Flags: HMW
LayerCount: 2
Fore
SplineSet
120 547 m 1
 215 547 l 1
 215 673 l 1
 120 547 l 1
40 547 m 1
 188 749 l 1
 283 749 l 1
 283 547 l 1
 343 547 l 1
 343 479 l 1
 283 479 l 1
 283 389 l 1
 215 389 l 1
 215 479 l 1
 40 479 l 1
 40 547 l 1
EndSplineSet
EndChar

StartChar: uni2075
Encoding: 8309 8309 342
GlifName: uni2075
Width: 383
VWidth: 900
Flags: HMW
LayerCount: 2
Fore
SplineSet
274 509 m 0
 274 471 243 447 194 447 c 0
 149 447 116 466 109 497 c 1
 40 497 l 1
 47 426 105 381 190 381 c 0
 281 381 343 433 343 511 c 0
 343 580 294 630 226 630 c 0
 194 630 164 619 141 598 c 1
 141 684 l 1
 325 684 l 1
 325 749 l 1
 69 749 l 1
 69 543 l 1
 149 543 l 1
 171 559 186 564 207 564 c 0
 249 564 274 544 274 509 c 0
EndSplineSet
EndChar

StartChar: uni2076
Encoding: 8310 8310 343
GlifName: uni2076
Width: 383
VWidth: 900
Flags: HMW
LayerCount: 2
Fore
SplineSet
40 557 m 6
 40 571 l 6
 40 690 101 762 201 762 c 4
 279 762 336 717 343 649 c 5
 274 649 l 5
 268 678 238 697 200 697 c 4
 146 697 109 657 109 600 c 6
 109 586 l 5
 137 616 173 632 215 632 c 4
 291 632 343 582 343 510 c 6
 343 508 l 6
 343 433 284 381 198 381 c 4
 101 381 40 448 40 557 c 6
112 521 m 5
 117 473 148 447 198 447 c 4
 245 447 274 471 274 508 c 6
 274 510 l 6
 274 544 246 566 205 566 c 4
 167 566 126 546 112 521 c 5
EndSplineSet
EndChar

StartChar: uni2077
Encoding: 8311 8311 344
GlifName: uni2077
Width: 383
VWidth: 900
Flags: HMW
LayerCount: 2
Fore
SplineSet
138 389 m 5
 216 389 l 5
 343 666 l 1
 343 749 l 1
 40 749 l 1
 40 684 l 1
 277 684 l 1
 138 389 l 5
EndSplineSet
EndChar

StartChar: uni2078
Encoding: 8312 8312 345
GlifName: uni2078
Width: 383
VWidth: 900
Flags: HMW
LayerCount: 2
Fore
SplineSet
109 491 m 2
 109 463 138 447 190 447 c 0
 241 447 274 463 274 488 c 2
 274 491 l 2
 274 516 242 537 187 548 c 1
 140 537 109 514 109 492 c 2
 109 491 l 2
79 659 m 2
 79 719 126 760 196 760 c 0
 265 760 309 719 309 656 c 2
 309 652 l 2
 309 620 286 590 252 582 c 1
 307 571 343 533 343 486 c 2
 343 482 l 2
 343 423 279 381 187 381 c 0
 97 381 40 421 40 483 c 2
 40 487 l 2
 40 531 75 572 124 584 c 1
 97 591 79 620 79 654 c 2
 79 659 l 2
190 614 m 1
 221 622 241 637 241 652 c 2
 241 653 l 2
 241 679 223 694 194 694 c 0
 165 694 147 679 147 655 c 2
 147 654 l 2
 147 636 163 622 190 614 c 1
EndSplineSet
EndChar

StartChar: uni2079
Encoding: 8313 8313 346
GlifName: uni2079
Width: 383
VWidth: 900
Flags: HMW
LayerCount: 2
Fore
SplineSet
343 586 m 6
 343 573 l 6
 343 454 282 381 182 381 c 4
 104 381 47 426 40 494 c 5
 109 494 l 5
 115 465 144 447 182 447 c 4
 236 447 274 486 274 543 c 6
 274 557 l 5
 246 527 210 511 168 511 c 4
 92 511 40 562 40 634 c 6
 40 636 l 6
 40 711 99 762 185 762 c 4
 282 762 343 695 343 586 c 6
271 622 m 5
 266 670 235 697 185 697 c 4
 138 697 109 673 109 636 c 6
 109 634 l 6
 109 600 137 577 178 577 c 4
 216 577 257 597 271 622 c 5
EndSplineSet
EndChar

StartChar: uni207A
Encoding: 8314 8314 347
GlifName: uni207A_
Width: 383
VWidth: 1010
Flags: HMW
LayerCount: 2
Fore
SplineSet
160 538 m 5
 40 538 l 5
 40 607 l 5
 160 607 l 5
 160 723 l 5
 228 723 l 5
 228 607 l 5
 343 607 l 5
 343 538 l 5
 228 538 l 5
 228 431 l 5
 160 431 l 5
 160 538 l 5
EndSplineSet
EndChar

StartChar: uni207B
Encoding: 8315 8315 348
GlifName: uni207B_
Width: 383
VWidth: 1010
Flags: HMW
LayerCount: 2
Fore
SplineSet
40 538 m 1
 40 607 l 1
 343 607 l 1
 343 538 l 1
 40 538 l 1
EndSplineSet
EndChar

StartChar: uni207C
Encoding: 8316 8316 349
GlifName: uni207C_
Width: 383
VWidth: 1010
Flags: HMW
LayerCount: 2
Fore
SplineSet
40 466 m 5
 40 535 l 5
 343 535 l 5
 343 466 l 5
 40 466 l 5
40 619 m 1
 40 688 l 1
 343 688 l 1
 343 619 l 1
 40 619 l 1
EndSplineSet
EndChar

StartChar: uni207D
Encoding: 8317 8317 350
GlifName: uni207D_
Width: 210
VWidth: 1010
Flags: HMW
LayerCount: 2
Fore
SplineSet
167 363 m 5
 89 363 40 406 40 476 c 6
 40 661 l 6
 40 728 94 776 170 776 c 5
 170 710 l 5
 133 710 109 691 109 661 c 6
 109 476 l 6
 109 445 130 429 167 429 c 5
 167 363 l 5
EndSplineSet
EndChar

StartChar: uni207E
Encoding: 8318 8318 351
GlifName: uni207E_
Width: 210
VWidth: 1010
Flags: HMW
LayerCount: 2
Fore
SplineSet
43 776 m 5
 121 776 170 733 170 663 c 6
 170 478 l 6
 170 411 116 363 40 363 c 5
 40 429 l 5
 77 429 101 448 101 478 c 6
 101 663 l 6
 101 694 80 710 43 710 c 5
 43 776 l 5
EndSplineSet
EndChar

StartChar: uni2080
Encoding: 8320 8320 352
GlifName: uni2080
Width: 383
VWidth: 900
Flags: HMW
LayerCount: 2
Fore
SplineSet
40 84 m 2
 40 191 105 267 197 267 c 0
 287 267 343 197 343 82 c 2
 343 74 l 2
 343 -33 280 -110 192 -110 c 0
 98 -110 40 -40 40 75 c 2
 40 84 l 2
109 75 m 2
 109 -1 139 -44 194 -44 c 0
 243 -44 274 3 274 74 c 2
 274 82 l 2
 274 158 246 201 195 201 c 0
 143 201 109 155 109 84 c 2
 109 75 l 2
EndSplineSet
EndChar

StartChar: uni2081
Encoding: 8321 8321 353
GlifName: uni2081
Width: 383
VWidth: 629
Flags: HMW
LayerCount: 2
Fore
SplineSet
74 -110 m 5
 74 -42 l 5
 177 -42 l 5
 177 166 l 5
 84 88 l 5
 40 143 l 5
 177 251 l 5
 246 251 l 5
 246 -42 l 5
 343 -42 l 5
 343 -110 l 5
 74 -110 l 5
EndSplineSet
EndChar

StartChar: uni2082
Encoding: 8322 8322 354
GlifName: uni2082
Width: 383
VWidth: 621
Flags: HMW
LayerCount: 2
Fore
SplineSet
59 -9 m 1
 173 48 l 2
 255 90 274 108 274 138 c 0
 274 171 245 194 202 194 c 0
 152 194 117 164 109 116 c 1
 40 116 l 1
 47 203 110 260 199 260 c 0
 284 260 343 208 343 133 c 0
 343 71 302 31 191 -19 c 2
 132 -45 l 1
 343 -45 l 1
 343 -110 l 1
 59 -110 l 1
 59 -9 l 1
EndSplineSet
EndChar

StartChar: uni2083
Encoding: 8323 8323 355
GlifName: uni2083
Width: 383
VWidth: 621
Flags: HMW
LayerCount: 2
Fore
SplineSet
225 35 m 2
 255 35 274 21 274 -1 c 0
 274 -31 243 -52 198 -52 c 0
 149 -52 116 -30 109 5 c 1
 40 5 l 1
 47 -70 105 -117 194 -117 c 0
 279 -117 343 -71 343 -4 c 0
 343 29 327 58 298 73 c 1
 327 86 343 112 343 146 c 0
 343 212 279 260 193 260 c 0
 106 260 47 215 40 146 c 1
 109 146 l 1
 116 175 149 194 199 194 c 0
 243 194 274 175 274 144 c 0
 274 119 256 103 225 103 c 2
 149 103 l 1
 149 35 l 1
 225 35 l 2
EndSplineSet
EndChar

StartChar: uni2084
Encoding: 8324 8324 356
GlifName: uni2084
Width: 383
VWidth: 621
Flags: HMW
LayerCount: 2
Fore
SplineSet
120 49 m 1
 215 49 l 1
 215 175 l 1
 120 49 l 1
40 49 m 1
 188 251 l 1
 283 251 l 1
 283 49 l 1
 343 49 l 1
 343 -19 l 1
 283 -19 l 1
 283 -109 l 1
 215 -109 l 1
 215 -19 l 1
 40 -19 l 1
 40 49 l 1
EndSplineSet
EndChar

StartChar: uni2085
Encoding: 8325 8325 357
GlifName: uni2085
Width: 383
VWidth: 621
Flags: HMW
LayerCount: 2
Fore
SplineSet
274 11 m 0
 274 -27 243 -52 194 -52 c 0
 149 -52 116 -32 109 -1 c 1
 40 -1 l 1
 47 -72 105 -117 190 -117 c 0
 281 -117 343 -65 343 13 c 0
 343 82 294 132 226 132 c 0
 194 132 164 121 141 100 c 1
 141 186 l 1
 325 186 l 1
 325 251 l 1
 69 251 l 1
 69 45 l 1
 149 45 l 1
 171 61 186 66 207 66 c 0
 249 66 274 46 274 11 c 0
EndSplineSet
EndChar

StartChar: uni2086
Encoding: 8326 8326 358
GlifName: uni2086
Width: 383
VWidth: 621
Flags: HMW
LayerCount: 2
Fore
SplineSet
40 59 m 6
 40 73 l 6
 40 192 101 264 201 264 c 4
 279 264 336 219 343 151 c 5
 274 151 l 5
 268 180 238 199 200 199 c 4
 146 199 109 159 109 102 c 6
 109 88 l 5
 137 118 173 134 215 134 c 4
 291 134 343 84 343 12 c 6
 343 10 l 6
 343 -65 284 -117 198 -117 c 4
 101 -117 40 -50 40 59 c 6
112 23 m 5
 117 -25 148 -52 198 -52 c 4
 245 -52 274 -27 274 10 c 6
 274 12 l 6
 274 46 246 68 205 68 c 4
 167 68 126 48 112 23 c 5
EndSplineSet
EndChar

StartChar: uni2087
Encoding: 8327 8327 359
GlifName: uni2087
Width: 383
VWidth: 621
Flags: HMW
LayerCount: 2
Fore
SplineSet
138 -109 m 5
 216 -109 l 5
 343 168 l 1
 343 251 l 1
 40 251 l 1
 40 186 l 1
 277 186 l 1
 138 -109 l 5
EndSplineSet
EndChar

StartChar: uni2088
Encoding: 8328 8328 360
GlifName: uni2088
Width: 383
VWidth: 621
Flags: HMW
LayerCount: 2
Fore
SplineSet
109 -7 m 2
 109 -35 138 -52 190 -52 c 0
 241 -52 274 -35 274 -10 c 2
 274 -7 l 2
 274 18 242 39 187 50 c 1
 140 39 109 16 109 -6 c 2
 109 -7 l 2
79 161 m 2
 79 221 126 262 196 262 c 0
 265 262 309 221 309 158 c 2
 309 154 l 2
 309 122 286 92 252 84 c 1
 307 73 343 35 343 -12 c 2
 343 -16 l 2
 343 -75 279 -117 187 -117 c 0
 97 -117 40 -78 40 -16 c 2
 40 -11 l 2
 40 33 75 74 124 86 c 1
 97 93 79 122 79 156 c 2
 79 161 l 2
190 116 m 1
 221 124 241 139 241 154 c 2
 241 155 l 2
 241 181 223 196 194 196 c 0
 165 196 147 181 147 157 c 2
 147 156 l 2
 147 138 163 124 190 116 c 1
EndSplineSet
EndChar

StartChar: uni2089
Encoding: 8329 8329 361
GlifName: uni2089
Width: 383
VWidth: 621
Flags: HMW
LayerCount: 2
Fore
SplineSet
343 88 m 6
 343 74 l 6
 343 -45 282 -117 182 -117 c 4
 104 -117 47 -72 40 -4 c 5
 109 -4 l 5
 115 -33 144 -52 182 -52 c 4
 236 -52 274 -12 274 45 c 6
 274 59 l 5
 246 29 210 13 168 13 c 4
 92 13 40 64 40 136 c 6
 40 138 l 6
 40 213 99 264 185 264 c 4
 282 264 343 197 343 88 c 6
271 124 m 5
 266 172 235 199 185 199 c 4
 138 199 109 175 109 138 c 6
 109 136 l 6
 109 102 137 79 178 79 c 4
 216 79 257 99 271 124 c 5
EndSplineSet
EndChar

StartChar: uni208A
Encoding: 8330 8330 362
GlifName: uni208A_
Width: 383
VWidth: 511
Flags: HMW
LayerCount: 2
Fore
SplineSet
160 40 m 5
 40 40 l 5
 40 109 l 5
 160 109 l 5
 160 225 l 5
 228 225 l 5
 228 109 l 5
 343 109 l 5
 343 40 l 5
 228 40 l 5
 228 -67 l 5
 160 -67 l 5
 160 40 l 5
EndSplineSet
EndChar

StartChar: uni208B
Encoding: 8331 8331 363
GlifName: uni208B_
Width: 383
VWidth: 511
Flags: HMW
LayerCount: 2
Fore
SplineSet
40 40 m 1
 40 109 l 1
 343 109 l 1
 343 40 l 1
 40 40 l 1
EndSplineSet
EndChar

StartChar: uni208C
Encoding: 8332 8332 364
GlifName: uni208C_
Width: 383
VWidth: 511
Flags: HMW
LayerCount: 2
Fore
SplineSet
40 -32 m 5
 40 37 l 5
 343 37 l 5
 343 -32 l 5
 40 -32 l 5
40 121 m 1
 40 190 l 1
 343 190 l 1
 343 121 l 1
 40 121 l 1
EndSplineSet
EndChar

StartChar: uni208D
Encoding: 8333 8333 365
GlifName: uni208D_
Width: 210
VWidth: 511
Flags: HMW
LayerCount: 2
Fore
SplineSet
167 -135 m 5
 89 -135 40 -92 40 -22 c 6
 40 163 l 6
 40 230 94 278 170 278 c 5
 170 212 l 5
 133 212 109 193 109 163 c 6
 109 -22 l 6
 109 -53 130 -70 167 -70 c 5
 167 -135 l 5
EndSplineSet
EndChar

StartChar: uni208E
Encoding: 8334 8334 366
GlifName: uni208E_
Width: 210
VWidth: 511
Flags: HMW
LayerCount: 2
Fore
SplineSet
43 278 m 5
 121 278 170 234 170 164 c 6
 170 -20 l 6
 170 -87 116 -135 40 -135 c 5
 40 -70 l 5
 77 -70 101 -50 101 -20 c 6
 101 164 l 6
 101 195 80 212 43 212 c 5
 43 278 l 5
EndSplineSet
EndChar

StartChar: colonmonetary
Encoding: 8353 8353 368
GlifName: colonmonetary
Width: 594
VWidth: 900
Flags: HMW
LayerCount: 2
Fore
SplineSet
411 718 m 1
 468 718 l 1
 306 -90 l 1
 249 -90 l 1
 411 718 l 1
291 718 m 1
 348 718 l 1
 186 -90 l 1
 129 -90 l 1
 291 718 l 1
129 309 m 2
 129 146 192 54 304 54 c 0
 390 54 454 112 465 199 c 1
 534 199 l 1
 523 71 432 -12 302 -12 c 0
 152 -12 60 110 60 309 c 2
 60 335 l 2
 60 522 163 653 307 653 c 0
 442 653 523 578 534 441 c 1
 465 441 l 1
 454 535 396 588 304 588 c 0
 198 588 129 487 129 335 c 2
 129 309 l 2
EndSplineSet
EndChar

StartChar: franc
Encoding: 8355 8355 369
GlifName: franc
Width: 564
VWidth: 900
Flags: HMW
LayerCount: 2
Fore
SplineSet
383 139 m 1
 383 198 l 1
 51 198 l 1
 51 139 l 1
 383 139 l 1
217 313 m 1
 487 313 l 1
 487 381 l 1
 217 381 l 1
 217 571 l 1
 505 571 l 1
 505 639 l 1
 148 639 l 1
 148 0 l 1
 217 0 l 1
 217 313 l 1
EndSplineSet
EndChar

StartChar: lira
Encoding: 8356 8356 370
GlifName: lira
Width: 529
VWidth: 900
Flags: HMW
LayerCount: 2
Fore
SplineSet
70 218 m 1
 70 283 l 1
 419 283 l 1
 419 218 l 1
 70 218 l 1
446 674 m 1
 446 608 l 1
 422 620 393 626 359 626 c 0
 272.198290589 626 235 588.201736982 235 500 c 2
 235 418 l 1
 419 418 l 1
 419 353 l 1
 235 353 l 1
 235 220.047779984 189.436508139 101.996914707 125 68 c 1
 487 68 l 1
 487 0 l 1
 51 0 l 1
 51 78 l 1
 90.9824113719 98.7547169811 166 171.650913014 166 353 c 1
 70 353 l 1
 70 418 l 1
 166 418 l 1
 166 508 l 2
 166 629.655976318 228.659223426 693 349 693 c 0
 386.684907439 693 416.754388734 687.110101602 446 674 c 1
EndSplineSet
EndChar

StartChar: uni20A5
Encoding: 8357 8357 371
GlifName: uni20A_5
Width: 783
VWidth: 900
Flags: HMW
LayerCount: 2
Fore
SplineSet
515 639 m 1
 592 639 l 1
 248 -136 l 1
 171 -136 l 1
 515 639 l 1
636 306 m 2
 636 382 601 426 538 426 c 0
 470 426 426 379 426 308 c 1
 392 308 l 1
 392 420 456 491 554 491 c 0
 648 491 705 425 705 315 c 2
 705 0 l 1
 636 0 l 1
 636 306 l 2
357 306 m 2
 357 382 322 426 259 426 c 0
 191 426 147 379 147 308 c 1
 122 308 l 1
 122 420 184 491 279 491 c 0
 371 491 426 425 426 315 c 2
 426 0 l 1
 357 0 l 1
 357 306 l 2
78 477 m 1
 147 477 l 1
 147 0 l 1
 78 0 l 1
 78 477 l 1
EndSplineSet
EndChar

StartChar: uni20A6
Encoding: 8358 8358 372
GlifName: uni20A_6
Width: 612
VWidth: 900
Flags: HMW
LayerCount: 2
Fore
SplineSet
560 208 m 5
 51 208 l 5
 51 277 l 5
 560 277 l 5
 560 208 l 5
560 363 m 5
 51 363 l 5
 51 432 l 5
 560 432 l 5
 560 363 l 5
118 639 m 1
 205 639 l 1
 425 134 l 1
 425 639 l 1
 494 639 l 1
 494 0 l 1
 407 0 l 1
 187 515 l 1
 187 0 l 1
 118 0 l 1
 118 639 l 1
EndSplineSet
EndChar

StartChar: peseta
Encoding: 8359 8359 373
GlifName: peseta
Width: 1372
VWidth: 900
Flags: HMW
LayerCount: 2
Fore
SplineSet
1015 353 m 0
 1015 398 1057 428 1119 428 c 0
 1185 428 1227 397 1235 342 c 1
 1303 342 l 1
 1295 438 1229 491 1121 491 c 0
 1019 491 947 432 947 346 c 0
 947 252 1030 224 1108 206 c 0
 1178 190 1244 177 1244 129 c 0
 1244 80 1203 52 1131 52 c 0
 1064 52 1015 86 1006 136 c 1
 938 136 l 1
 947 46 1024 -12 1134 -12 c 0
 1245 -12 1312 44 1312 136 c 0
 1312 230 1217 250 1133 269 c 0
 1071 283 1015 300 1015 353 c 0
869 4 m 1
 869 69 l 1
 858 67 847 67 833 67 c 0
 782 67 748 88 748 139 c 2
 748 412 l 1
 869 412 l 1
 869 477 l 1
 748 477 l 1
 748 600 l 1
 680 573 l 1
 680 477 l 1
 601 477 l 1
 601 412 l 1
 680 412 l 1
 680 130 l 2
 680 36 739 0 831 0 c 0
 845 0 858 2 869 4 c 1
147 238 m 1
 147 0 l 1
 78 0 l 1
 78 639 l 1
 312 639 l 2
 437 639 514 563 514 439 c 2
 514 431 l 2
 514 318 430 238 311 238 c 2
 147 238 l 1
303 571 m 2
 147 571 l 1
 147 306 l 1
 302 306 l 2
 388 306 446 354 446 428 c 2
 446 439 l 2
 446 524 395 571 303 571 c 2
EndSplineSet
EndChar

StartChar: uni20A9
Encoding: 8361 8361 374
GlifName: uni20A_9
Width: 842
VWidth: 900
Flags: HMW
LayerCount: 2
Fore
SplineSet
789 208 m 5
 51 208 l 1
 51 277 l 1
 789 277 l 5
 789 208 l 5
789 363 m 5
 51 363 l 1
 51 432 l 1
 789 432 l 5
 789 363 l 5
51 639 m 1
 123 639 l 1
 256 70 l 1
 377 587 l 1
 469 587 l 1
 587 70 l 1
 719 639 l 1
 791 639 l 1
 636 0 l 1
 536 0 l 1
 425 506 l 1
 310 0 l 1
 206 0 l 1
 51 639 l 1
EndSplineSet
EndChar

StartChar: uni20AA
Encoding: 8362 8362 375
GlifName: uni20A_A_
Width: 669
VWidth: 900
Flags: HMW
LayerCount: 2
Fore
SplineSet
523 477 m 1
 591 477 l 1
 591 148 l 2
 591 41 530.82781457 -1.14902137887e-14 437 0 c 2
 223 0 l 1
 223 326 l 1
 292 326 l 1
 292 65 l 1
 430 65 l 2
 485.151162791 65 523 85.4444444444 523 157 c 2
 523 477 l 1
378 151 m 1
 378 320 l 2
 378 391.555555556 332.011627907 412 265 412 c 2
 147 412 l 1
 147 0 l 1
 78 0 l 1
 78 477 l 1
 272 477 l 2
 378.013245033 477 446 436 446 329 c 2
 446 151 l 1
 378 151 l 1
EndSplineSet
EndChar

StartChar: uni20AD
Encoding: 8365 8365 376
GlifName: uni20A_D_
Width: 532
VWidth: 900
Flags: HMW
LayerCount: 2
Fore
SplineSet
423 294 m 1
 51 294 l 1
 51 353 l 1
 423 353 l 1
 423 294 l 1
118 639 m 1
 187 639 l 1
 187 0 l 1
 118 0 l 1
 118 639 l 1
401 639 m 1
 488 639 l 1
 238.543945312 320.681640625 l 1
 477 0 l 1
 388 0 l 1
 153 322 l 1
 401 639 l 1
EndSplineSet
EndChar

StartChar: uni20AE
Encoding: 8366 8366 377
GlifName: uni20A_E_
Width: 537
VWidth: 900
Flags: HMW
LayerCount: 2
Fore
SplineSet
431 232 m 1
 112 122 l 1
 112 194 l 1
 431 304 l 1
 431 232 l 1
431 377 m 1
 112 267 l 1
 112 339 l 1
 431 449 l 1
 431 377 l 1
487 639 m 1
 487 571 l 1
 303 571 l 1
 303 0 l 1
 235 0 l 1
 235 571 l 1
 51 571 l 1
 51 639 l 1
 487 639 l 1
EndSplineSet
EndChar

StartChar: uni20B1
Encoding: 8369 8369 378
GlifName: uni20B_1
Width: 623
VWidth: 900
Flags: HMW
LayerCount: 2
Fore
SplineSet
586 324 m 5
 37 324 l 5
 37 383 l 5
 586 383 l 5
 586 324 l 5
586 449 m 5
 37 449 l 5
 37 508 l 5
 586 508 l 5
 586 449 l 5
164 198 m 1
 164 0 l 1
 95 0 l 1
 95 639 l 1
 329 639 l 2
 454 639 531 555.400390625 531 419 c 2
 531 411 l 2
 531 286.290039062 447 198 328 198 c 2
 164 198 l 1
320 571 m 2
 164 571 l 1
 164 266 l 1
 319 266 l 2
 405 266 463 321.869140625 463 408 c 2
 463 419 l 2
 463 516.87890625 412 571 320 571 c 2
EndSplineSet
EndChar

StartChar: uni20B2
Encoding: 8370 8370 379
GlifName: uni20B_2
Width: 603
VWidth: 900
Flags: HMW
LayerCount: 2
Fore
SplineSet
270 737 m 1
 338 737 l 1
 338 633 l 1
 270 633 l 1
 270 737 l 1
338 11 m 1
 338 -108 l 1
 270 -108 l 1
 270 11 l 1
 338 11 l 1
129 309 m 2
 129 146 189 54 295 54 c 0
 392 54 465 135 465 244 c 2
 465 266 l 1
 273 266 l 1
 273 334 l 1
 534 334 l 1
 534 0 l 1
 465 0 l 1
 465 101 l 1
 422 27 362 -12 292 -12 c 0
 148 -12 60 110 60 309 c 2
 60 335 l 2
 60 521 163 653 306 653 c 0
 430 653 502 587 525 450 c 1
 459 450 l 1
 445 539 393 588 313 588 c 0
 202 588 129 487 129 335 c 2
 129 309 l 2
EndSplineSet
EndChar

StartChar: uni20B3
Encoding: 8371 8371 380
GlifName: uni20B_3
Width: 610
VWidth: 900
Flags: HMW
LayerCount: 2
Fore
SplineSet
555 337 m 5
 57 337 l 5
 57 406 l 5
 555 406 l 5
 555 337 l 5
555 167 m 1
 57 167 l 1
 57 236 l 1
 555 236 l 1
 555 167 l 1
569 0 m 1
 494 0 l 1
 308 565 l 1
 113 0 l 1
 42 0 l 1
 265 639 l 1
 356 639 l 1
 569 0 l 1
EndSplineSet
EndChar

StartChar: uni20B4
Encoding: 8372 8372 381
GlifName: uni20B_4
Width: 623
VWidth: 900
Flags: HMW
LayerCount: 2
Fore
SplineSet
586 229 m 1
 37 229 l 1
 37 288 l 1
 586 288 l 1
 586 229 l 1
586 354 m 1
 37 354 l 1
 37 413 l 1
 586 413 l 1
 586 354 l 1
447 475 m 0
 447 543 394.942382812 588 313 588 c 0
 229.810546875 588 175.640625 541.527131783 165 479 c 1
 97 479 l 1
 108.259765625 582.144329897 187.075195312 653 314 653 c 0
 434.041992188 653 515 577 515 466 c 0
 515 373.104492188 462.3203125 330.448242188 288 284 c 0
 192 256.826171875 156 222.043945312 156 159 c 0
 156 94 209 54 295 54 c 0
 389 54 454 102.866141732 466 161 c 1
 534 161 l 1
 522.953125 63.2953367876 430.563476562 -12 297 -12 c 0
 168.614257812 -12 88 53.1455078125 88 157 c 0
 88 251 137 298 270 332 c 0
 408.192382812 372.857421875 447 404.037109375 447 475 c 0
EndSplineSet
EndChar

StartChar: uni20B5
Encoding: 8373 8373 382
GlifName: uni20B_5
Width: 532
VWidth: 900
Flags: HMW
LayerCount: 2
Fore
SplineSet
241 727 m 1
 310 727 l 1
 310 623 l 1
 241 623 l 1
 241 727 l 1
310 11 m 1
 310 -108 l 1
 241 -108 l 1
 241 11 l 1
 310 11 l 1
129 324 m 2
 129 150.445793655 182.069130889 51 274.686129097 51 c 0
 343.619693386 51 393.949950321 106.306306153 403 192 c 1
 472 192 l 1
 463.035883473 67.0514526815 386.437569163 -14 277.31807604 -14 c 0
 142.265090551 -14 60 110.54194002 60 315 c 2
 60 341 l 2
 60 523.988185715 153.520298076 649 290.412237213 649 c 0
 395.881908309 649 463.074347979 575.36455624 472 450 c 1
 403 450 l 1
 394.070728094 533.713257641 349.530430849 583 282.808255728 583 c 0
 189.067217095 583 129 484.976188342 129 332 c 2
 129 324 l 2
EndSplineSet
EndChar

StartChar: uni20B6
Encoding: 8374 8374 383
GlifName: uni20B_6
Width: 532
VWidth: 900
Flags: HMW
LayerCount: 2
Fore
SplineSet
490 4 m 1
 479 2 466 0 452 0 c 0
 366.092773438 0 311 36 311 130 c 2
 311 416 l 1
 189 416 l 1
 189 0 l 1
 121 0 l 1
 121 416 l 1
 42 416 l 1
 42 477 l 1
 121 477 l 1
 121 573 l 1
 189 600 l 1
 189 477 l 1
 311 477 l 1
 311 573 l 1
 379 600 l 1
 379 477 l 1
 490 477 l 1
 490 416 l 1
 379 416 l 1
 379 139 l 2
 379 86 409 65 454 65 c 0
 468 65 479 66 490 68 c 1
 490 4 l 1
EndSplineSet
EndChar

StartChar: uni20B8
Encoding: 8376 8376 384
GlifName: uni20B_8
Width: 537
VWidth: 900
Flags: HMW
LayerCount: 2
Fore
SplineSet
487 571 m 1
 51 571 l 1
 51 639 l 1
 487 639 l 1
 487 571 l 1
487 469 m 1
 487 401 l 1
 303 401 l 1
 303 0 l 1
 235 0 l 1
 235 401 l 1
 51 401 l 1
 51 469 l 1
 487 469 l 1
EndSplineSet
EndChar

StartChar: uni20B9
Encoding: 8377 8377 385
GlifName: uni20B_9
Width: 516
VWidth: 900
Flags: HMW
LayerCount: 2
Fore
SplineSet
320 0 m 1
 164 252 l 1
 238 265 l 1
 401 0 l 1
 320 0 l 1
461 415 m 1
 62 415 l 1
 62 474 l 1
 461 474 l 1
 461 415 l 1
337.706277947 571 m 1
 372.687908308 539.945004506 392 494.889920182 392 439 c 2
 392 431 l 2
 392 318 308 238 189 238 c 2
 62 238 l 1
 62 306 l 1
 180 306 l 2
 266 306 324 354 324 428 c 2
 324 439 l 2
 324 524 273 571 181 571 c 2
 62 571 l 1
 62 639 l 1
 461 639 l 1
 461 571 l 1
 337.706277947 571 l 1
EndSplineSet
EndChar

StartChar: uni20BA
Encoding: 8378 8378 386
GlifName: uni20B_A_
Width: 575
VWidth: 900
Flags: HMW
LayerCount: 2
Fore
SplineSet
371 517 m 1
 52 357 l 1
 52 429 l 1
 371 589 l 1
 371 517 l 1
371 372 m 1
 52 212 l 1
 52 284 l 1
 371 444 l 1
 371 372 l 1
158 0 m 1
 158 639 l 1
 227 639 l 1
 227 68 l 1
 371.738461538 68 451 122.447115385 451 219 c 0
 451 248.871559633 446.465116279 278.339449541 438 307 c 1
 510 307 l 1
 519.227272727 277.136363636 524 247.272727273 524 217 c 0
 524 81.6752767528 414.916666667 0 235 0 c 2
 158 0 l 1
EndSplineSet
EndChar

StartChar: uni20BC
Encoding: 8380 8380 387
GlifName: uni20B_C_
Width: 674
VWidth: 900
Flags: HMW
LayerCount: 2
Fore
SplineSet
373 0 m 1
 305 0 l 1
 305 569 l 1
 373 569 l 1
 373 0 l 1
527 169 m 2
 527 312.612244898 459.675675676 396 339 396 c 0
 222.789473684 396 147 306 147 171 c 2
 147 1 l 1
 78 1 l 1
 78 171 l 2
 78 340.63507109 187.68161435 462 341 462 c 0
 498.744186047 462 596 350.577464789 596 169 c 2
 596 1 l 1
 527 1 l 1
 527 169 l 2
EndSplineSet
EndChar

StartChar: uni20BD
Encoding: 8381 8381 388
GlifName: uni20B_D_
Width: 602
VWidth: 900
Flags: HMW
LayerCount: 2
Fore
SplineSet
432 120 m 1
 51 120 l 1
 51 188 l 1
 432 188 l 1
 432 120 l 1
353 571 m 2
 217 571 l 1
 217 346 l 1
 352 346 l 2
 420.083333333 346 466 386.131147541 466 448 c 2
 466 459 l 2
 466 531.121212121 425.699300699 571 353 571 c 2
148 346 m 1
 148 639 l 1
 362 639 l 2
 468.435643564 639 534 570.6 534 459 c 2
 534 451 l 2
 534 349.70984456 462.413793103 278 361 278 c 2
 217 278 l 1
 217 0 l 1
 148 0 l 1
 148 278 l 1
 51 278 l 1
 51 346 l 1
 148 346 l 1
EndSplineSet
EndChar

StartChar: uni20BF
Encoding: 8383 8383 389
GlifName: uni20B_F_
Width: 582
VWidth: 900
Flags: HMW
LayerCount: 2
Fore
SplineSet
310 747 m 1
 368 747 l 1
 368 613 l 1
 310 613 l 1
 310 747 l 1
368 31 m 1
 368 -118 l 1
 310 -118 l 1
 310 31 l 1
 368 31 l 1
200 747 m 1
 258 747 l 1
 258 613 l 1
 200 613 l 1
 200 747 l 1
258 31 m 1
 258 -118 l 1
 200 -118 l 1
 200 31 l 1
 258 31 l 1
147 283 m 1
 147 68 l 1
 321 68 l 2
 407 68 454 103 454 167 c 2
 454 179 l 2
 454 241 401 283 320 283 c 2
 147 283 l 1
330 639 m 2
 443 639 514 574 514 467 c 2
 514 459 l 2
 514 397 480 346 425 320 c 1
 485 293 523 242 523 176 c 2
 523 167 l 2
 523 63 450 0 330 0 c 2
 78 0 l 1
 78 639 l 1
 330 639 l 2
321 571 m 2
 147 571 l 1
 147 351 l 1
 320 351 l 2
 396 351 446 392 446 455 c 2
 446 467 l 2
 446 534 401 571 321 571 c 2
EndSplineSet
EndChar

StartChar: uni210A
Encoding: 8458 8458 390
GlifName: uni210A_
Width: 591
VWidth: 900
Flags: HMW
LayerCount: 2
Fore
SplineSet
410 336 m 0
 410 427 349 490 260 490 c 0
 148 490 60 390 60 262 c 0
 60 150 127 76 225 76 c 0
 316 76 380 140 399 248 c 1
 406 292 l 2
 409 311 410 323 410 336 c 0
275 457 m 0
 339 457 382 404 382 324 c 0
 382 310 381 296 379 284 c 2
 374 258 l 2
 357 161 307 107 235 107 c 0
 165 107 127 157 127 248 c 0
 127 366 191 457 275 457 c 0
82 -156 m 0
 82 -46 281 35 540 35 c 1
 538 72 l 1
 246 72 42 -22 42 -160 c 0
 42 -227 90 -271 169 -271 c 0
 285 -271 368 -177 395 -15 c 2
 477 477 l 1
 437 477 l 1
 383 283 l 1
 328 0 l 2
 301 -156 248 -234 168 -234 c 0
 116 -234 82 -201 82 -156 c 0
EndSplineSet
EndChar

StartChar: uni212A
Encoding: 8490 8490 391
GlifName: uni212A_
Width: 554
VWidth: 900
Flags: HMW
LayerCount: 2
Fore
SplineSet
78 639 m 1
 147 639 l 1
 147 327 l 1
 423 639 l 1
 510 639 l 1
 258 357 l 1
 499 0 l 1
 410 0 l 1
 210 302 l 1
 147 232 l 1
 147 0 l 1
 78 0 l 1
 78 639 l 1
EndSplineSet
EndChar

StartChar: uni212B
Encoding: 8491 8491 392
GlifName: uni212B_
Width: 610
VWidth: 900
Flags: HMW
LayerCount: 2
Fore
SplineSet
465 167 m 1
 147 167 l 1
 147 236 l 1
 465 236 l 1
 465 167 l 1
569 0 m 1
 494 0 l 1
 308 565 l 1
 113 0 l 1
 42 0 l 1
 265 639 l 1
 356 639 l 1
 569 0 l 1
193 702 m 2
 193 770 243 817 313 817 c 0
 381 817 423 773 423 700 c 2
 423 699 l 2
 423 631 376 584 309 584 c 0
 237 584 193 628 193 701 c 2
 193 702 l 2
252 701 m 2
 252 662 272 641 310 641 c 0
 342 641 364 664 364 699 c 2
 364 700 l 2
 364 739 345 760 311 760 c 0
 276 760 252 737 252 702 c 2
 252 701 l 2
EndSplineSet
EndChar

StartChar: estimated
Encoding: 8494 8494 393
GlifName: estimated
Width: 522
VWidth: 900
Flags: HMW
LayerCount: 2
Fore
SplineSet
156 198 m 2
 156 139 196 105 267 105 c 0
 352 105 416 152 427 223 c 1
 462 223 l 1
 453 133 376 76 271 76 c 0
 139 76 60 167 60 315 c 2
 60 341 l 2
 60 480 144 579 265 579 c 0
 390 579 462 474 462 337 c 2
 462 312 l 1
 104 312 l 1
 104 346 l 1
 366 346 l 1
 366 458 l 2
 366 510 325 549 262 549 c 0
 201 549 156 513 156 458 c 2
 156 198 l 2
EndSplineSet
EndChar

StartChar: aleph
Encoding: 8501 8501 394
GlifName: aleph
Width: 861
VWidth: 900
Flags: HMW
LayerCount: 2
Fore
SplineSet
607 54 m 2
 607 121 645 165 703 165 c 0
 762 165 801 120 801 52 c 2
 801 -3 l 2
 801 -68 760 -113 701 -113 c 0
 643 -113 607 -70 607 -1 c 2
 607 54 l 2
666 -1 m 2
 666 -36 680 -57 703 -57 c 0
 727 -57 742 -36 742 -3 c 2
 742 52 l 2
 742 86 726 108 701 108 c 0
 679 108 666 88 666 54 c 2
 666 -1 l 2
584 469 m 1
 563 403 l 1
 477 428 l 2
 406 449 356 504 356 566 c 0
 356 589 363 614 376 639 c 1
 436 612 l 1
 427 595 422 580 422 564 c 0
 422 527 443 511 510 491 c 2
 584 469 l 1
432 488 m 1
 495 463 l 1
 448 254 l 1
 374 254 l 1
 432 488 l 1
194 390 m 1
 256 364 l 5
 166 0 l 5
 93 0 l 1
 194 390 l 1
60 522 m 0
 60 570 84 610 131 639 c 1
 169 586 l 1
 140 569 127 548 127 521 c 0
 127 491 144 464 174 444 c 2
 497 233 l 2
 532 210 548 177 548 128 c 0
 548 71 526 30 477 0 c 1
 439 53 l 1
 468 71 482 91 482 119 c 0
 482 150 465 176 436 195 c 2
 113 406 l 2
 82 426 60 475 60 522 c 0
EndSplineSet
EndChar

StartChar: uni2150
Encoding: 8528 8528 395
GlifName: uni2150
Width: 937
VWidth: 900
Flags: HMW
LayerCount: 2
Fore
SplineSet
658 1 m 1
 736 1 l 1
 863 278 l 1
 863 361 l 1
 560 361 l 1
 560 296 l 1
 797 296 l 1
 658 1 l 1
74 278 m 1
 74 346 l 1
 177 346 l 1
 177 554 l 1
 84 476 l 1
 40 531 l 1
 177 639 l 1
 246 639 l 1
 246 346 l 1
 343 346 l 1
 343 278 l 1
 74 278 l 1
572 639 m 1
 649 639 l 1
 370 0 l 1
 293 0 l 1
 572 639 l 1
EndSplineSet
LCarets2: 2 0 0
Ligature2: "'dlig' Discretionary Ligatures lookup 12-2" one slash seven
EndChar

StartChar: uni2151
Encoding: 8529 8529 396
GlifName: uni2151
Width: 937
VWidth: 900
Flags: HMW
LayerCount: 2
Fore
SplineSet
863 198 m 6
 863 184 l 6
 863 65 802 -7 702 -7 c 4
 624 -7 567 38 560 106 c 5
 629 106 l 5
 635 77 664 58 702 58 c 4
 756 58 794 98 794 155 c 6
 794 169 l 5
 766 139 730 123 688 123 c 4
 612 123 560 174 560 246 c 6
 560 248 l 6
 560 323 619 374 705 374 c 4
 802 374 863 307 863 198 c 6
791 234 m 5
 786 282 755 309 705 309 c 4
 658 309 629 285 629 248 c 6
 629 246 l 6
 629 212 657 189 698 189 c 4
 736 189 777 209 791 234 c 5
74 278 m 1
 74 346 l 1
 177 346 l 1
 177 554 l 1
 84 476 l 1
 40 531 l 1
 177 639 l 1
 246 639 l 1
 246 346 l 1
 343 346 l 1
 343 278 l 1
 74 278 l 1
572 639 m 1
 649 639 l 1
 370 0 l 1
 293 0 l 1
 572 639 l 1
EndSplineSet
Ligature2: "'dlig' Discretionary Ligatures lookup 12-2" one slash nine
EndChar

StartChar: uni2152
Encoding: 8530 8530 397
GlifName: uni2152
Width: 1037
VWidth: 900
Flags: HMW
LayerCount: 2
Fore
SplineSet
765 185 m 2
 765 268.739130435 813.439490446 329 882 329 c 0
 947.342465753 329 988 274.135135135 988 184 c 2
 988 135 l 2
 988 51.387978142 941.688741722 -8 877 -8 c 0
 807.736842105 -8 765 46.864864865 765 137 c 2
 765 185 l 2
834 137 m 2
 834 86.546218487 849.882352941 58 879 58 c 0
 903.5 58 919 88.273504274 919 135 c 2
 919 184 l 2
 919 234.453781513 905.17721519 263 880 263 c 0
 852.186046512 263 834 231.93220339 834 185 c 2
 834 137 l 2
551 -2 m 1
 551 66 l 1
 614 66 l 1
 614 244 l 1
 561 205 l 1
 527 260 l 1
 614 319 l 1
 683 319 l 1
 683 66 l 1
 740 66 l 1
 740 -2 l 1
 551 -2 l 1
74 278 m 1
 74 346 l 1
 177 346 l 1
 177 554 l 1
 84 476 l 1
 40 531 l 1
 177 639 l 1
 246 639 l 1
 246 346 l 1
 343 346 l 1
 343 278 l 1
 74 278 l 1
572 639 m 1
 649 639 l 1
 370 0 l 1
 293 0 l 1
 572 639 l 1
EndSplineSet
Ligature2: "'dlig' Discretionary Ligatures lookup 12-2" one slash one zero
EndChar

StartChar: onethird
Encoding: 8531 8531 398
GlifName: onethird
Width: 937
VWidth: 900
Flags: HMW
LayerCount: 2
Fore
SplineSet
745 145 m 6
 775 145 794 131 794 109 c 4
 794 79 763 58 718 58 c 4
 669 58 636 80 629 115 c 5
 560 115 l 5
 567 40 625 -7 714 -7 c 4
 799 -7 863 39 863 106 c 4
 863 139 847 168 818 183 c 5
 847 196 863 222 863 256 c 4
 863 322 799 370 713 370 c 4
 626 370 567 325 560 256 c 5
 629 256 l 5
 636 285 669 304 719 304 c 4
 763 304 794 285 794 254 c 4
 794 229 776 213 745 213 c 6
 669 213 l 5
 669 145 l 5
 745 145 l 6
74 278 m 1
 74 346 l 1
 177 346 l 1
 177 554 l 1
 84 476 l 1
 40 531 l 1
 177 639 l 1
 246 639 l 1
 246 346 l 1
 343 346 l 1
 343 278 l 1
 74 278 l 1
572 639 m 1
 649 639 l 1
 370 0 l 1
 293 0 l 1
 572 639 l 1
EndSplineSet
Ligature2: "'dlig' Discretionary Ligatures lookup 12-2" one slash three
EndChar

StartChar: twothirds
Encoding: 8532 8532 399
GlifName: twothirds
Width: 937
VWidth: 900
Flags: HMW
LayerCount: 2
Fore
SplineSet
59 379 m 5
 173 436 l 6
 255 478 274 496 274 526 c 4
 274 559 245 582 202 582 c 4
 152 582 117 552 109 504 c 5
 40 504 l 5
 47 591 110 648 199 648 c 4
 284 648 343 596 343 521 c 4
 343 459 302 419 191 369 c 6
 132 343 l 5
 343 343 l 5
 343 278 l 5
 59 278 l 5
 59 379 l 5
745 145 m 2
 775 145 794 131 794 109 c 0
 794 79 763 58 718 58 c 0
 669 58 636 80 629 115 c 1
 560 115 l 1
 567 40 625 -7 714 -7 c 0
 799 -7 863 39 863 106 c 0
 863 139 847 168 818 183 c 1
 847 196 863 222 863 256 c 0
 863 322 799 370 713 370 c 0
 626 370 567 325 560 256 c 1
 629 256 l 1
 636 285 669 304 719 304 c 0
 763 304 794 285 794 254 c 0
 794 229 776 213 745 213 c 2
 669 213 l 1
 669 145 l 1
 745 145 l 2
572 639 m 1
 649 639 l 1
 370 0 l 1
 293 0 l 1
 572 639 l 1
EndSplineSet
Ligature2: "'dlig' Discretionary Ligatures lookup 12-2" two slash three
EndChar

StartChar: uni2155
Encoding: 8533 8533 400
GlifName: uni2155
Width: 937
VWidth: 900
Flags: HMW
LayerCount: 2
Fore
SplineSet
794 121 m 4
 794 83 763 58 714 58 c 4
 669 58 636 78 629 109 c 5
 560 109 l 5
 567 38 625 -7 710 -7 c 4
 801 -7 863 45 863 123 c 4
 863 192 814 242 746 242 c 4
 714 242 684 231 661 210 c 5
 661 296 l 5
 845 296 l 5
 845 361 l 5
 589 361 l 5
 589 155 l 5
 669 155 l 5
 691 171 706 176 727 176 c 4
 769 176 794 156 794 121 c 4
74 278 m 1
 74 346 l 1
 177 346 l 1
 177 554 l 1
 84 476 l 1
 40 531 l 1
 177 639 l 1
 246 639 l 1
 246 346 l 1
 343 346 l 1
 343 278 l 1
 74 278 l 1
572 639 m 1
 649 639 l 1
 370 0 l 1
 293 0 l 1
 572 639 l 1
EndSplineSet
Ligature2: "'dlig' Discretionary Ligatures lookup 12-2" one slash five
EndChar

StartChar: uni2156
Encoding: 8534 8534 401
GlifName: uni2156
Width: 937
VWidth: 900
Flags: HMW
LayerCount: 2
Fore
SplineSet
59 379 m 5
 173 436 l 6
 255 478 274 496 274 526 c 4
 274 559 245 582 202 582 c 4
 152 582 117 552 109 504 c 5
 40 504 l 5
 47 591 110 648 199 648 c 4
 284 648 343 596 343 521 c 4
 343 459 302 419 191 369 c 6
 132 343 l 5
 343 343 l 5
 343 278 l 5
 59 278 l 5
 59 379 l 5
794 121 m 0
 794 83 763 58 714 58 c 0
 669 58 636 78 629 109 c 1
 560 109 l 1
 567 38 625 -7 710 -7 c 0
 801 -7 863 45 863 123 c 0
 863 192 814 242 746 242 c 0
 714 242 684 231 661 210 c 1
 661 296 l 1
 845 296 l 1
 845 361 l 1
 589 361 l 1
 589 155 l 1
 669 155 l 1
 691 171 706 176 727 176 c 0
 769 176 794 156 794 121 c 0
572 639 m 1
 649 639 l 1
 370 0 l 1
 293 0 l 1
 572 639 l 1
EndSplineSet
Ligature2: "'dlig' Discretionary Ligatures lookup 12-2" two slash five
EndChar

StartChar: uni2157
Encoding: 8535 8535 402
GlifName: uni2157
Width: 937
VWidth: 900
Flags: HMW
LayerCount: 2
Fore
SplineSet
225 491 m 6
 255 491 274 507 274 533 c 4
 274 562 243 582 198 582 c 4
 149 582 116 561 109 526 c 5
 40 526 l 5
 47 601 105 648 194 648 c 4
 279 648 343 602 343 534 c 4
 343 499 327 470 298 454 c 5
 327 441 343 416 343 383 c 4
 343 319 279 271 193 271 c 4
 106 271 47 315 40 384 c 5
 109 384 l 5
 116 355 149 337 199 337 c 4
 243 337 274 355 274 384 c 4
 274 407 256 423 225 423 c 6
 149 423 l 5
 149 491 l 5
 225 491 l 6
794 121 m 0
 794 83 763 58 714 58 c 0
 669 58 636 78 629 109 c 1
 560 109 l 1
 567 38 625 -7 710 -7 c 0
 801 -7 863 45 863 123 c 0
 863 192 814 242 746 242 c 0
 714 242 684 231 661 210 c 1
 661 296 l 1
 845 296 l 1
 845 361 l 1
 589 361 l 1
 589 155 l 1
 669 155 l 1
 691 171 706 176 727 176 c 0
 769 176 794 156 794 121 c 0
572 639 m 1
 649 639 l 1
 370 0 l 1
 293 0 l 1
 572 639 l 1
EndSplineSet
LCarets2: 2 0 0
Ligature2: "'dlig' Discretionary Ligatures lookup 12-2" three slash five
EndChar

StartChar: uni2158
Encoding: 8536 8536 403
GlifName: uni2158
Width: 937
VWidth: 900
Flags: HMW
LayerCount: 2
Fore
SplineSet
120 437 m 5
 215 437 l 5
 215 563 l 5
 120 437 l 5
40 437 m 5
 188 639 l 5
 283 639 l 5
 283 437 l 5
 343 437 l 5
 343 369 l 5
 283 369 l 5
 283 279 l 5
 215 279 l 5
 215 369 l 5
 40 369 l 5
 40 437 l 5
794 121 m 0
 794 83 763 58 714 58 c 0
 669 58 636 78 629 109 c 1
 560 109 l 1
 567 38 625 -7 710 -7 c 0
 801 -7 863 45 863 123 c 0
 863 192 814 242 746 242 c 0
 714 242 684 231 661 210 c 1
 661 296 l 1
 845 296 l 1
 845 361 l 1
 589 361 l 1
 589 155 l 1
 669 155 l 1
 691 171 706 176 727 176 c 0
 769 176 794 156 794 121 c 0
572 639 m 1
 649 639 l 1
 370 0 l 1
 293 0 l 1
 572 639 l 1
EndSplineSet
Ligature2: "'dlig' Discretionary Ligatures lookup 12-2" four slash five
EndChar

StartChar: uni2159
Encoding: 8537 8537 404
GlifName: uni2159
Width: 937
VWidth: 900
Flags: HMW
LayerCount: 2
Fore
SplineSet
560 169 m 6
 560 183 l 6
 560 302 621 374 721 374 c 4
 799 374 856 329 863 261 c 5
 794 261 l 5
 788 290 758 309 720 309 c 4
 666 309 629 269 629 212 c 6
 629 198 l 5
 657 228 693 244 735 244 c 4
 811 244 863 194 863 122 c 6
 863 120 l 6
 863 45 804 -7 718 -7 c 4
 621 -7 560 60 560 169 c 6
632 133 m 5
 637 85 668 58 718 58 c 4
 765 58 794 83 794 120 c 6
 794 122 l 6
 794 156 766 178 725 178 c 4
 687 178 646 158 632 133 c 5
74 278 m 1
 74 346 l 1
 177 346 l 1
 177 554 l 1
 84 476 l 1
 40 531 l 1
 177 639 l 1
 246 639 l 1
 246 346 l 1
 343 346 l 1
 343 278 l 1
 74 278 l 1
572 639 m 1
 649 639 l 1
 370 0 l 1
 293 0 l 1
 572 639 l 1
EndSplineSet
Ligature2: "'dlig' Discretionary Ligatures lookup 12-2" one slash six
EndChar

StartChar: uni215A
Encoding: 8538 8538 405
GlifName: uni215A_
Width: 937
VWidth: 900
Flags: HMW
LayerCount: 2
Fore
SplineSet
274 399 m 4
 274 361 243 337 194 337 c 4
 149 337 116 356 109 387 c 5
 40 387 l 5
 47 316 105 271 190 271 c 4
 281 271 343 323 343 401 c 4
 343 470 294 520 226 520 c 4
 194 520 164 509 141 488 c 5
 141 574 l 5
 325 574 l 5
 325 639 l 5
 69 639 l 5
 69 433 l 5
 149 433 l 5
 171 449 186 454 207 454 c 4
 249 454 274 434 274 399 c 4
560 169 m 2
 560 183 l 2
 560 302 621 374 721 374 c 0
 799 374 856 329 863 261 c 1
 794 261 l 1
 788 290 758 309 720 309 c 0
 666 309 629 269 629 212 c 2
 629 198 l 1
 657 228 693 244 735 244 c 0
 811 244 863 194 863 122 c 2
 863 120 l 2
 863 45 804 -7 718 -7 c 0
 621 -7 560 60 560 169 c 2
632 133 m 1
 637 85 668 58 718 58 c 0
 765 58 794 83 794 120 c 2
 794 122 l 2
 794 156 766 178 725 178 c 0
 687 178 646 158 632 133 c 1
572 639 m 1
 649 639 l 1
 370 0 l 1
 293 0 l 1
 572 639 l 1
EndSplineSet
Ligature2: "'dlig' Discretionary Ligatures lookup 12-2" five slash six
EndChar

StartChar: oneeighth
Encoding: 8539 8539 406
GlifName: oneeighth
Width: 937
VWidth: 900
Flags: HMW
LayerCount: 2
Fore
SplineSet
629 103 m 6
 629 75 658 58 710 58 c 4
 761 58 794 75 794 100 c 6
 794 103 l 6
 794 128 762 149 707 160 c 5
 660 149 629 126 629 104 c 6
 629 103 l 6
599 271 m 6
 599 331 646 372 716 372 c 4
 785 372 829 331 829 268 c 6
 829 264 l 6
 829 232 806 202 772 194 c 5
 827 183 863 145 863 98 c 6
 863 94 l 6
 863 35 799 -7 707 -7 c 4
 617 -7 560 32 560 94 c 6
 560 99 l 6
 560 143 595 184 644 196 c 5
 617 203 599 232 599 266 c 6
 599 271 l 6
710 226 m 5
 741 234 761 249 761 264 c 6
 761 265 l 6
 761 291 743 306 714 306 c 4
 685 306 667 291 667 267 c 6
 667 266 l 6
 667 248 683 234 710 226 c 5
74 278 m 1
 74 346 l 1
 177 346 l 1
 177 554 l 1
 84 476 l 1
 40 531 l 1
 177 639 l 1
 246 639 l 1
 246 346 l 1
 343 346 l 1
 343 278 l 1
 74 278 l 1
572 639 m 1
 649 639 l 1
 370 0 l 1
 293 0 l 1
 572 639 l 1
EndSplineSet
LCarets2: 2 0 0
Ligature2: "'dlig' Discretionary Ligatures lookup 12-2" one slash eight
EndChar

StartChar: threeeighths
Encoding: 8540 8540 407
GlifName: threeeighths
Width: 937
VWidth: 900
Flags: HMW
LayerCount: 2
Fore
SplineSet
225 491 m 2
 255 491 274 507 274 533 c 0
 274 562 243 582 198 582 c 0
 149 582 116 561 109 526 c 1
 40 526 l 1
 47 601 105 648 194 648 c 0
 279 648 343 602 343 534 c 0
 343 499 327 470 298 454 c 1
 327 441 343 416 343 383 c 0
 343 319 279 271 193 271 c 0
 106 271 47 315 40 384 c 1
 109 384 l 1
 116 355 149 337 199 337 c 0
 243 337 274 355 274 384 c 0
 274 407 256 423 225 423 c 2
 149 423 l 1
 149 491 l 1
 225 491 l 2
629 103 m 2
 629 75 658 58 710 58 c 0
 761 58 794 75 794 100 c 2
 794 103 l 2
 794 128 762 149 707 160 c 1
 660 149 629 126 629 104 c 2
 629 103 l 2
599 271 m 2
 599 331 646 372 716 372 c 0
 785 372 829 331 829 268 c 2
 829 264 l 2
 829 232 806 202 772 194 c 1
 827 183 863 145 863 98 c 2
 863 94 l 2
 863 35 799 -7 707 -7 c 0
 617 -7 560 32 560 94 c 2
 560 99 l 2
 560 143 595 184 644 196 c 1
 617 203 599 232 599 266 c 2
 599 271 l 2
710 226 m 1
 741 234 761 249 761 264 c 2
 761 265 l 2
 761 291 743 306 714 306 c 0
 685 306 667 291 667 267 c 2
 667 266 l 2
 667 248 683 234 710 226 c 1
572 639 m 1
 649 639 l 1
 370 0 l 1
 293 0 l 1
 572 639 l 1
EndSplineSet
LCarets2: 2 0 0
Ligature2: "'dlig' Discretionary Ligatures lookup 12-2" three slash eight
EndChar

StartChar: fiveeighths
Encoding: 8541 8541 408
GlifName: fiveeighths
Width: 937
VWidth: 900
Flags: HMW
LayerCount: 2
Fore
SplineSet
274 399 m 4
 274 361 243 337 194 337 c 4
 149 337 116 356 109 387 c 5
 40 387 l 5
 47 316 105 271 190 271 c 4
 281 271 343 323 343 401 c 4
 343 470 294 520 226 520 c 4
 194 520 164 509 141 488 c 5
 141 574 l 5
 325 574 l 5
 325 639 l 5
 69 639 l 5
 69 433 l 5
 149 433 l 5
 171 449 186 454 207 454 c 4
 249 454 274 434 274 399 c 4
629 103 m 2
 629 75 658 58 710 58 c 0
 761 58 794 75 794 100 c 2
 794 103 l 2
 794 128 762 149 707 160 c 1
 660 149 629 126 629 104 c 2
 629 103 l 2
599 271 m 2
 599 331 646 372 716 372 c 0
 785 372 829 331 829 268 c 2
 829 264 l 2
 829 232 806 202 772 194 c 1
 827 183 863 145 863 98 c 2
 863 94 l 2
 863 35 799 -7 707 -7 c 0
 617 -7 560 32 560 94 c 2
 560 99 l 2
 560 143 595 184 644 196 c 1
 617 203 599 232 599 266 c 2
 599 271 l 2
710 226 m 1
 741 234 761 249 761 264 c 2
 761 265 l 2
 761 291 743 306 714 306 c 0
 685 306 667 291 667 267 c 2
 667 266 l 2
 667 248 683 234 710 226 c 1
572 639 m 1
 649 639 l 1
 370 0 l 1
 293 0 l 1
 572 639 l 1
EndSplineSet
Ligature2: "'dlig' Discretionary Ligatures lookup 12-2" five slash eight
EndChar

StartChar: seveneighths
Encoding: 8542 8542 409
GlifName: seveneighths
Width: 937
VWidth: 900
Flags: HMW
LayerCount: 2
Fore
SplineSet
138 279 m 5
 216 279 l 5
 343 556 l 5
 343 639 l 5
 40 639 l 5
 40 574 l 5
 277 574 l 5
 138 279 l 5
629 103 m 2
 629 75 658 58 710 58 c 0
 761 58 794 75 794 100 c 2
 794 103 l 2
 794 128 762 149 707 160 c 1
 660 149 629 126 629 104 c 2
 629 103 l 2
599 271 m 2
 599 331 646 372 716 372 c 0
 785 372 829 331 829 268 c 2
 829 264 l 2
 829 232 806 202 772 194 c 1
 827 183 863 145 863 98 c 2
 863 94 l 2
 863 35 799 -7 707 -7 c 0
 617 -7 560 32 560 94 c 2
 560 99 l 2
 560 143 595 184 644 196 c 1
 617 203 599 232 599 266 c 2
 599 271 l 2
710 226 m 1
 741 234 761 249 761 264 c 2
 761 265 l 2
 761 291 743 306 714 306 c 0
 685 306 667 291 667 267 c 2
 667 266 l 2
 667 248 683 234 710 226 c 1
572 639 m 1
 649 639 l 1
 370 0 l 1
 293 0 l 1
 572 639 l 1
EndSplineSet
Ligature2: "'dlig' Discretionary Ligatures lookup 12-2" seven slash eight
EndChar

StartChar: uni215F
Encoding: 8543 8543 410
GlifName: uni215F_
Width: 653
VWidth: 900
Flags: HMW
LayerCount: 2
Fore
SplineSet
74 278 m 1
 74 346 l 1
 177 346 l 1
 177 554 l 1
 84 476 l 1
 40 531 l 1
 177 639 l 1
 246 639 l 1
 246 346 l 1
 343 346 l 1
 343 278 l 1
 74 278 l 1
572 639 m 1
 649 639 l 1
 370 0 l 1
 293 0 l 1
 572 639 l 1
EndSplineSet
LCarets2: 1 0
Ligature2: "'dlig' Discretionary Ligatures lookup 12-2" one slash
EndChar

StartChar: uni2160
Encoding: 8544 8544 411
GlifName: uni2160
Width: 447
VWidth: 900
Flags: HMW
LayerCount: 2
Fore
SplineSet
397 639 m 1
 397 571 l 1
 258 571 l 1
 258 68 l 1
 397 68 l 1
 397 0 l 1
 51 0 l 1
 51 68 l 1
 190 68 l 1
 190 571 l 1
 51 571 l 1
 51 639 l 1
 397 639 l 1
EndSplineSet
EndChar

StartChar: uni2161
Encoding: 8545 8545 412
GlifName: uni2161
Width: 711
VWidth: 900
Flags: HMW
LayerCount: 2
Fore
SplineSet
397 639 m 1
 397 571 l 1
 258 571 l 1
 258 68 l 1
 397 68 l 1
 397 0 l 1
 51 0 l 1
 51 68 l 1
 190 68 l 1
 190 571 l 1
 51 571 l 1
 51 639 l 1
 397 639 l 1
662 639 m 5
 662 571 l 5
 523 571 l 5
 523 68 l 5
 662 68 l 5
 662 0 l 5
 397 0 l 5
 397 68 l 5
 454 68 l 5
 454 571 l 5
 397 571 l 5
 397 639 l 5
 662 639 l 5
EndSplineSet
EndChar

StartChar: uni2162
Encoding: 8546 8546 413
GlifName: uni2162
Width: 976
VWidth: 900
Flags: HMW
LayerCount: 2
Fore
SplineSet
397 639 m 1
 397 571 l 1
 258 571 l 1
 258 68 l 1
 397 68 l 1
 397 0 l 1
 51 0 l 1
 51 68 l 1
 190 68 l 1
 190 571 l 1
 51 571 l 1
 51 639 l 1
 397 639 l 1
662 639 m 5
 662 571 l 5
 523 571 l 5
 523 68 l 5
 662 68 l 5
 662 0 l 5
 397 0 l 1
 397 68 l 1
 454 68 l 5
 454 571 l 5
 397 571 l 1
 397 639 l 1
 662 639 l 5
926 639 m 5
 926 571 l 5
 788 571 l 5
 788 68 l 5
 926 68 l 5
 926 0 l 5
 662 0 l 5
 662 68 l 5
 719 68 l 5
 719 571 l 5
 662 571 l 5
 662 639 l 5
 926 639 l 5
EndSplineSet
EndChar

StartChar: uni2163
Encoding: 8547 8547 414
GlifName: uni2163
Width: 988
VWidth: 900
Flags: HMW
LayerCount: 2
Fore
SplineSet
937 639 m 5
 937 571 l 5
 258 571 l 5
 258 68 l 5
 937 68 l 5
 937 0 l 5
 51 0 l 5
 51 68 l 5
 190 68 l 5
 190 571 l 5
 51 571 l 5
 51 639 l 5
 937 639 l 5
346 620 m 1
 420 620 l 1
 607 89 l 1
 801 620 l 1
 872 620 l 1
 650 19 l 1
 559 19 l 1
 346 620 l 1
EndSplineSet
EndChar

StartChar: uni2164
Encoding: 8548 8548 415
GlifName: uni2164
Width: 763
VWidth: 900
Flags: HMW
LayerCount: 2
Fore
SplineSet
712 68 m 5
 712 0 l 5
 51 0 l 5
 51 68 l 5
 712 68 l 5
712 571 m 5
 51 571 l 5
 51 639 l 5
 712 639 l 5
 712 571 l 5
114 612 m 1
 189 612 l 1
 375 88 l 1
 570 612 l 1
 641 612 l 1
 418 18 l 1
 328 18 l 1
 114 612 l 1
EndSplineSet
EndChar

StartChar: uni2165
Encoding: 8549 8549 416
GlifName: uni2165
Width: 988
VWidth: 900
Flags: HMW
LayerCount: 2
Fore
SplineSet
51 639 m 5
 937 639 l 5
 937 571 l 5
 798 571 l 5
 798 68 l 5
 937 68 l 5
 937 0 l 5
 51 0 l 5
 51 68 l 5
 730 68 l 5
 730 571 l 5
 51 571 l 5
 51 639 l 5
643 620 m 5
 429 19 l 5
 338 19 l 5
 116 620 l 5
 187 620 l 5
 382 89 l 5
 568 620 l 5
 643 620 l 5
EndSplineSet
EndChar

StartChar: uni2166
Encoding: 8550 8550 417
GlifName: uni2166
Width: 1252
VWidth: 900
Flags: HMW
LayerCount: 2
Fore
SplineSet
1202 639 m 1
 1202 571 l 1
 1063 571 l 1
 1063 68 l 1
 1202 68 l 1
 1202 0 l 1
 937 0 l 1
 937 68 l 1
 994 68 l 1
 994 571 l 1
 937 571 l 1
 937 639 l 1
 1202 639 l 1
51 639 m 1
 937 639 l 1
 937 571 l 1
 798 571 l 1
 798 68 l 1
 937 68 l 1
 937 0 l 1
 51 0 l 1
 51 68 l 1
 730 68 l 1
 730 571 l 1
 51 571 l 1
 51 639 l 1
643 620 m 1
 429 19 l 1
 338 19 l 1
 116 620 l 1
 187 620 l 1
 382 89 l 1
 568 620 l 1
 643 620 l 1
EndSplineSet
EndChar

StartChar: uni2167
Encoding: 8551 8551 418
GlifName: uni2167
Width: 1517
VWidth: 900
Flags: HMW
LayerCount: 2
Fore
SplineSet
1466 639 m 5
 1466 571 l 5
 1328 571 l 5
 1328 68 l 5
 1466 68 l 5
 1466 0 l 5
 1202 0 l 5
 1202 68 l 5
 1259 68 l 5
 1259 571 l 5
 1202 571 l 5
 1202 639 l 5
 1466 639 l 5
1202 639 m 1
 1202 571 l 1
 1063 571 l 1
 1063 68 l 1
 1202 68 l 1
 1202 0 l 1
 937 0 l 1
 937 68 l 1
 994 68 l 1
 994 571 l 1
 937 571 l 1
 937 639 l 1
 1202 639 l 1
51 639 m 1
 937 639 l 1
 937 571 l 1
 798 571 l 1
 798 68 l 1
 937 68 l 1
 937 0 l 1
 51 0 l 1
 51 68 l 1
 730 68 l 1
 730 571 l 1
 51 571 l 1
 51 639 l 1
643 620 m 1
 429 19 l 1
 338 19 l 1
 116 620 l 1
 187 620 l 1
 382 89 l 1
 568 620 l 1
 643 620 l 1
EndSplineSet
EndChar

StartChar: uni2168
Encoding: 8552 8552 419
GlifName: uni2168
Width: 959
VWidth: 900
Flags: HMW
LayerCount: 2
Fore
SplineSet
908 639 m 1
 908 571 l 1
 258 571 l 1
 258 68 l 1
 908 68 l 1
 908 0 l 1
 51 0 l 1
 51 68 l 1
 190 68 l 1
 190 571 l 1
 51 571 l 1
 51 639 l 1
 908 639 l 1
355 621 m 1
 431 621 l 1
 594 364 l 1
 758 621 l 1
 836 621 l 1
 648 323 l 1
 836 18 l 1
 760 18 l 1
 597 281 l 1
 433 18 l 1
 355 18 l 1
 543 323 l 1
 355 621 l 1
EndSplineSet
EndChar

StartChar: uni2169
Encoding: 8553 8553 420
GlifName: uni2169
Width: 763
VWidth: 900
Flags: HMW
LayerCount: 2
Fore
SplineSet
712 68 m 1
 712 0 l 1
 51 0 l 1
 51 68 l 1
 712 68 l 1
712 571 m 1
 51 571 l 1
 51 639 l 1
 712 639 l 1
 712 571 l 1
141 621 m 1
 218 621 l 1
 381 364 l 1
 544 621 l 1
 623 621 l 1
 435 323 l 1
 623 18 l 1
 546 18 l 1
 383 281 l 1
 220 18 l 1
 141 18 l 1
 329 323 l 1
 141 621 l 1
EndSplineSet
EndChar

StartChar: uni216A
Encoding: 8554 8554 421
GlifName: uni216A_
Width: 959
VWidth: 900
Flags: HMW
LayerCount: 2
Fore
SplineSet
51 639 m 1
 908 639 l 1
 908 571 l 1
 770 571 l 1
 770 68 l 1
 908 68 l 1
 908 0 l 1
 51 0 l 1
 51 68 l 1
 701 68 l 1
 701 571 l 1
 51 571 l 1
 51 639 l 1
605 621 m 1
 417 323 l 1
 605 18 l 1
 526 18 l 1
 363 281 l 1
 200 18 l 1
 123 18 l 1
 311 323 l 1
 123 621 l 1
 202 621 l 1
 365 364 l 1
 528 621 l 1
 605 621 l 1
EndSplineSet
EndChar

StartChar: uni216B
Encoding: 8555 8555 422
GlifName: uni216B_
Width: 1224
VWidth: 900
Flags: HMW
LayerCount: 2
Fore
SplineSet
1173 639 m 1
 1173 571 l 1
 1034 571 l 1
 1034 68 l 1
 1173 68 l 1
 1173 0 l 1
 908 0 l 1
 908 68 l 1
 966 68 l 1
 966 571 l 1
 908 571 l 1
 908 639 l 1
 1173 639 l 1
51 639 m 1
 908 639 l 1
 908 571 l 1
 770 571 l 1
 770 68 l 1
 908 68 l 1
 908 0 l 1
 51 0 l 1
 51 68 l 1
 701 68 l 1
 701 571 l 1
 51 571 l 1
 51 639 l 1
605 621 m 1
 417 323 l 1
 605 18 l 1
 526 18 l 1
 363 281 l 1
 200 18 l 1
 123 18 l 1
 311 323 l 1
 123 621 l 1
 202 621 l 1
 365 364 l 1
 528 621 l 1
 605 621 l 1
EndSplineSet
EndChar

StartChar: uni216C
Encoding: 8556 8556 423
GlifName: uni216C_
Width: 575
VWidth: 900
Flags: HMW
LayerCount: 2
Fore
SplineSet
456 215 m 1
 525 215 l 1
 525 0 l 1
 40 0 l 1
 40 69 l 1
 138 69 l 1
 138 570 l 5
 40 570 l 5
 40 639 l 5
 338 639 l 5
 338 570 l 5
 207 570 l 5
 207 68 l 1
 456 68 l 1
 456 215 l 1
EndSplineSet
EndChar

StartChar: uni216D
Encoding: 8557 8557 424
GlifName: uni216D_
Width: 594
VWidth: 900
Flags: HMW
LayerCount: 2
Fore
SplineSet
129 309 m 2
 129 146 192 54 304 54 c 0
 390 54 454 124 465 229 c 1
 534 229 l 1
 534 1 l 1
 465 1 l 1
 465 100.633862531 l 1
 431.308996008 29.8842965836 371.325558822 -12 296 -12 c 0
 149.719008264 -12 60 110 60 309 c 2
 60 335 l 2
 60 522 160.497975709 653 301 653 c 0
 377.26849208 653 433.265521259 616.761245186 465 548.457570738 c 1
 465 639 l 1
 534 639 l 1
 534 411 l 1
 465 411 l 1
 454 524.183673469 396 588 304 588 c 0
 198 588 129 487 129 335 c 2
 129 309 l 2
EndSplineSet
EndChar

StartChar: uni216E
Encoding: 8558 8558 425
GlifName: uni216E_
Width: 676
VWidth: 900
Flags: HMW
LayerCount: 2
Fore
SplineSet
352 571 m 2
 214 571 l 1
 214 68 l 1
 352 68 l 2
 471 68 549 167 549 316 c 2
 549 328 l 2
 549 485 479 571 352 571 c 2
361 639 m 2
 519 639 617 524 617 337 c 2
 617 310 l 2
 617 127 511 -0 361 0 c 2
 47 0 l 5
 47 69 l 5
 145 69 l 1
 145 570 l 1
 47 570 l 5
 47 639 l 5
 361 639 l 2
EndSplineSet
EndChar

StartChar: uni216F
Encoding: 8559 8559 426
GlifName: uni216F_
Width: 931
VWidth: 900
Flags: HMW
LayerCount: 2
Fore
SplineSet
339 0 m 1
 47 0 l 1
 47 69 l 1
 160 69 l 1
 160 570 l 1
 47 570 l 1
 47 639 l 1
 249 639 l 1
 464 215 l 1
 682 639 l 1
 884 639 l 1
 884 570 l 1
 769 570 l 1
 769 69 l 1
 884 69 l 1
 884 0 l 1
 592 0 l 1
 592 69 l 1
 700 69 l 1
 700 527 l 1
 499 125 l 1
 430 125 l 1
 229 527 l 1
 229 69 l 1
 339 69 l 1
 339 0 l 1
EndSplineSet
EndChar

StartChar: uni2189
Encoding: 8585 8585 443
GlifName: uni2189
Width: 937
VWidth: 900
Flags: HMW
LayerCount: 2
Fore
SplineSet
40 464 m 2
 40 571 105 648 197 648 c 0
 287 648 343 578 343 463 c 2
 343 454 l 2
 343 347 280 271 192 271 c 0
 98 271 40 341 40 456 c 2
 40 464 l 2
109 456 m 2
 109 380 139 337 194 337 c 0
 243 337 274 383 274 454 c 2
 274 463 l 2
 274 539 246 582 195 582 c 0
 143 582 109 535 109 464 c 2
 109 456 l 2
745 145 m 2
 775 145 794 131 794 109 c 0
 794 79 763 58 718 58 c 0
 669 58 636 80 629 115 c 1
 560 115 l 1
 567 40 625 -7 714 -7 c 0
 799 -7 863 39 863 106 c 0
 863 139 847 168 818 183 c 1
 847 196 863 222 863 256 c 0
 863 322 799 370 713 370 c 0
 626 370 567 325 560 256 c 1
 629 256 l 1
 636 285 669 304 719 304 c 0
 763 304 794 285 794 254 c 0
 794 229 776 213 745 213 c 2
 669 213 l 1
 669 145 l 1
 745 145 l 2
572 639 m 1
 649 639 l 1
 370 0 l 1
 293 0 l 1
 572 639 l 1
EndSplineSet
Ligature2: "'dlig' Discretionary Ligatures lookup 12-2" zero slash three
EndChar

StartChar: arrowdblleft
Encoding: 8656 8656 444
GlifName: arrowdblleft
Width: 781
VWidth: 927
Flags: HMW
LayerCount: 2
Fore
SplineSet
250 509 m 5
 358 509 l 5
 240 398 l 5
 721 398 l 5
 721 329 l 5
 167 329 l 5
 167 256 l 5
 721 256 l 5
 721 187 l 5
 240 187 l 5
 358 76 l 5
 250 76 l 5
 60 256 l 5
 60 329 l 5
 250 509 l 5
EndSplineSet
Ligature2: "'dlig' Discretionary Ligatures lookup 12-1" less equal
EndChar

StartChar: arrowdblup
Encoding: 8657 8657 445
GlifName: arrowdblup
Width: 554
VWidth: 927
Flags: HMW
LayerCount: 2
Fore
SplineSet
494 433 m 5
 494 325 l 5
 382 443 l 5
 382 -38 l 5
 314 -38 l 5
 314 516 l 5
 240 516 l 5
 240 -38 l 5
 172 -38 l 5
 172 443 l 5
 60 325 l 5
 60 433 l 5
 240 623 l 5
 314 623 l 5
 494 433 l 5
EndSplineSet
EndChar

StartChar: arrowdblright
Encoding: 8658 8658 446
GlifName: arrowdblright
Width: 781
VWidth: 927
Flags: HMW
LayerCount: 2
Fore
SplineSet
531 76 m 5
 423 76 l 5
 541 187 l 5
 60 187 l 5
 60 256 l 5
 614 256 l 5
 614 329 l 5
 60 329 l 5
 60 398 l 5
 541 398 l 5
 423 509 l 5
 531 509 l 5
 721 329 l 5
 721 256 l 5
 531 76 l 5
EndSplineSet
Ligature2: "'dlig' Discretionary Ligatures lookup 12-1" equal greater
EndChar

StartChar: arrowdbldown
Encoding: 8659 8659 447
GlifName: arrowdbldown
Width: 554
VWidth: 927
Flags: HMW
LayerCount: 2
Fore
SplineSet
60 152 m 5
 60 260 l 5
 172 142 l 5
 172 623 l 5
 240 623 l 5
 240 69 l 5
 314 69 l 5
 314 623 l 5
 382 623 l 5
 382 142 l 5
 494 260 l 5
 494 152 l 5
 314 -38 l 5
 240 -38 l 5
 60 152 l 5
EndSplineSet
EndChar

StartChar: arrowdblboth
Encoding: 8660 8660 448
GlifName: arrowdblboth
Width: 781
VWidth: 927
Flags: HMW
LayerCount: 2
Fore
SplineSet
531 76 m 1
 423 76 l 1
 541 187 l 1
 240 187 l 1
 358 76 l 1
 250 76 l 1
 60 256 l 1
 60 329 l 1
 250 509 l 1
 358 509 l 1
 240 398 l 1
 541 398 l 1
 423 509 l 1
 531 509 l 1
 721 329 l 1
 721 256 l 1
 531 76 l 1
614 256 m 1
 614 329 l 1
 167 329 l 1
 167 256 l 1
 614 256 l 1
EndSplineSet
Ligature2: "'dlig' Discretionary Ligatures lookup 12-1" less equal greater
EndChar

StartChar: universal
Encoding: 8704 8704 449
GlifName: universal
Width: 610
VWidth: 900
Flags: HMW
LayerCount: 2
Fore
SplineSet
146 472 m 1
 464 472 l 1
 464 403 l 1
 146 403 l 1
 146 472 l 1
42 639 m 1
 117 639 l 1
 303 74 l 1
 498 639 l 1
 569 639 l 1
 346 0 l 1
 255 0 l 1
 42 639 l 1
EndSplineSet
EndChar

StartChar: existential
Encoding: 8707 8707 450
GlifName: existential
Width: 524
VWidth: 900
Flags: HMW
LayerCount: 2
Fore
SplineSet
377 356 m 1
 377 571 l 1
 59 571 l 1
 59 639 l 1
 446 639 l 1
 446 0 l 1
 59 0 l 1
 59 68 l 1
 377 68 l 1
 377 288 l 1
 77 288 l 1
 77 356 l 1
 377 356 l 1
EndSplineSet
EndChar

StartChar: emptyset
Encoding: 8709 8709 451
GlifName: emptyset
Width: 540
VWidth: 900
Flags: HMW
LayerCount: 2
Fore
SplineSet
360 639 m 1
 437 639 l 1
 178 0 l 1
 101 0 l 1
 360 639 l 1
60 334 m 2
 60 467.135021097 148 561 271 561 c 0
 401 561 480 473.807531381 480 332 c 2
 480 326 l 2
 480 192.840336134 391 98 266 98 c 0
 138 98 60 186.166666667 60 328 c 2
 60 334 l 2
129 327 m 2
 129 225.344262295 179 168 268 168 c 0
 354 168 411 230.453038674 411 325 c 2
 411 333 l 2
 411 434.655737705 360 492 268 492 c 0
 184 492 129 429.546961326 129 335 c 2
 129 327 l 2
EndSplineSet
EndChar

StartChar: element
Encoding: 8712 8712 452
GlifName: element
Width: 523
VWidth: 900
Flags: HMW
LayerCount: 2
Fore
SplineSet
444 206 m 1
 89 206 l 1
 89 274 l 1
 444 274 l 1
 444 206 l 1
268 451 m 2
 463 451 l 1
 463 386 l 1
 268 386 l 2
 184 386 129 329.91160221 129 245 c 2
 129 237 l 2
 129 145.573770492 179 94 268 94 c 2
 463 94 l 1
 463 28 l 1
 268 28 l 2
 138.757281553 28 60 104.666666667 60 228 c 2
 60 254 l 2
 60 370.371308017 146.748815166 451 268 451 c 2
EndSplineSet
EndChar

StartChar: notelement
Encoding: 8713 8713 453
GlifName: notelement
Width: 523
VWidth: 900
Flags: HMW
LayerCount: 2
Fore
SplineSet
330 559 m 1
 407 559 l 1
 258 -80 l 1
 181 -80 l 1
 330 559 l 1
444 206 m 1
 89 206 l 1
 89 274 l 1
 444 274 l 1
 444 206 l 1
268 451 m 2
 463 451 l 1
 463 386 l 1
 268 386 l 2
 184 386 129 329.91160221 129 245 c 2
 129 237 l 2
 129 145.573770492 179 94 268 94 c 2
 463 94 l 1
 463 28 l 1
 268 28 l 2
 138.757281553 28 60 104.666666667 60 228 c 2
 60 254 l 2
 60 370.371308017 146.748815166 451 268 451 c 2
EndSplineSet
EndChar

StartChar: uni220A
Encoding: 8714 8714 454
GlifName: uni220A_
Width: 423
VWidth: 900
Flags: HMW
LayerCount: 2
Fore
SplineSet
344 206 m 1
 89 206 l 1
 89 274 l 1
 344 274 l 1
 344 206 l 1
218 411 m 2
 363 411 l 1
 363 346 l 1
 218 346 l 2
 164.215827338 346 129 305.82320442 129 245 c 2
 129 237 l 2
 129 171.147540984 161.014388489 134 218 134 c 2
 363 134 l 1
 363 68 l 1
 218 68 l 2
 119.825242718 68 60 129.333333333 60 228 c 2
 60 254 l 2
 60 346.742616034 125.895734597 411 218 411 c 2
EndSplineSet
EndChar

StartChar: suchthat
Encoding: 8715 8715 455
GlifName: suchthat
Width: 523
VWidth: 900
Flags: HMW
LayerCount: 2
Fore
SplineSet
79 273 m 1
 434 273 l 1
 434 205 l 1
 79 205 l 1
 79 273 l 1
255 28 m 2
 60 28 l 1
 60 93 l 1
 255 93 l 2
 339 93 394 149.088867188 394 234 c 2
 394 242 l 2
 394 333.42578125 344 385 255 385 c 2
 60 385 l 1
 60 451 l 1
 255 451 l 2
 384.243164062 451 463 374.333007812 463 251 c 2
 463 225 l 2
 463 108.62890625 376.250976562 28 255 28 c 2
EndSplineSet
EndChar

StartChar: product
Encoding: 8719 8719 456
GlifName: product
Width: 612
VWidth: 900
Flags: HMW
AnchorPoint: "Top1" 304 720 basechar 0
LayerCount: 2
Fore
SplineSet
78 639 m 1
 78 0 l 1
 147 0 l 1
 147 571 l 1
 465 571 l 1
 465 0 l 1
 534 0 l 1
 534 639 l 1
 78 639 l 1
EndSplineSet
EndChar

StartChar: summation
Encoding: 8721 8721 457
GlifName: summation
Width: 524
VWidth: 900
Flags: HMW
LayerCount: 2
Fore
SplineSet
363 292 m 1
 147 68 l 1
 465 68 l 1
 465 0 l 1
 78 0 l 1
 78 86 l 1
 295 317 l 5
 78 551 l 1
 78 639 l 1
 465 639 l 1
 465 571 l 1
 147 571 l 1
 363 342 l 1
 363 292 l 1
EndSplineSet
EndChar

StartChar: uni2213
Encoding: 8723 8723 458
GlifName: uni2213
Width: 483
VWidth: 900
Flags: HMW
LayerCount: 2
Fore
SplineSet
51 536 m 1
 433 536 l 1
 433 468 l 1
 51 468 l 1
 51 536 l 1
276 206 m 1
 433 206 l 1
 433 138 l 1
 276 138 l 1
 276 -23 l 1
 208 -23 l 1
 208 138 l 1
 51 138 l 1
 51 206 l 1
 208 206 l 1
 208 367 l 1
 276 367 l 1
 276 206 l 1
EndSplineSet
EndChar

StartChar: radical
Encoding: 8730 8730 459
GlifName: radical
Width: 495
VWidth: 900
Flags: HMW
LayerCount: 2
Fore
SplineSet
51 281 m 1
 117 281 l 1
 169 70 l 5
 305 709 l 1
 497 709 l 1
 497 640 l 1
 362 640 l 1
 222 0 l 5
 122 0 l 5
 51 281 l 1
EndSplineSet
EndChar

StartChar: proportional
Encoding: 8733 8733 460
GlifName: proportional
Width: 571
VWidth: 900
Flags: HMW
LayerCount: 2
Fore
SplineSet
326 320 m 1
 302 382 256 424 211 424 c 2
 203 424 l 2
 148 424 116 385 116 320 c 0
 116 254 148 213 200 213 c 2
 209 213 l 2
 259 213 302 252 326 320 c 1
519 143 m 1
 455 143 402 180 357 256 c 1
 318 181 270 145 206 145 c 2
 201 145 l 2
 111 145 50 216 50 322 c 0
 50 426 109 492 204 492 c 2
 208 492 l 2
 267 492 315 457 357 384 c 1
 399 456 452 490 521 490 c 1
 521 422 l 1
 464 422 415 385 388 321 c 1
 416 255 468 211 519 211 c 1
 519 143 l 1
EndSplineSet
Substitution2: "'case' Case-Sensitive Forms lookup 13-1" proportional.case
EndChar

StartChar: infinity
Encoding: 8734 8734 461
GlifName: infinity
Width: 714
VWidth: 900
Flags: HMW
LayerCount: 2
Fore
SplineSet
388 321 m 5
 412.188876693 255.279517185 458.481099205 211 503 211 c 6
 511 211 l 6
 566.028989038 211 598 249.034478558 598 314.5 c 4
 598 380.5247304 565.591417243 422 514 422 c 6
 505 422 l 6
 454.574889757 422 411.729283693 385.013622116 388 321 c 5
326 320 m 5
 301.810957659 382.135433784 255.518408478 424 211 424 c 6
 203 424 l 6
 147.971010962 424 116 385.965521442 116 320.5 c 4
 116 254.4752696 148.408582757 213 200 213 c 6
 209 213 l 6
 259.424660091 213 302.270578332 252.183873946 326 320 c 5
357 384 m 5
 396.541504933 455.893645333 446.09224662 490 511 490 c 6
 516 490 l 6
 604.175211556 490 664 418.28846682 664 312.593490311 c 4
 664 208.446081965 605.729140909 143 513 143 c 6
 509 143 l 6
 448.946039607 143 399.338474396 179.879308348 357 256 c 5
 318.228727064 180.715166654 269.643230085 145 206 145 c 6
 201 145 l 6
 111.035665306 145 50 216.713621707 50 322.416872963 c 4
 50 426.555927489 109.430365171 492 204 492 c 6
 208 492 l 6
 266.868428046 492 315.496948776 456.752481619 357 384 c 5
EndSplineSet
Substitution2: "'case' Case-Sensitive Forms lookup 13-1" infinity.case
EndChar

StartChar: orthogonal
Encoding: 8735 8735 462
GlifName: orthogonal
Width: 685
VWidth: 900
Flags: HMW
LayerCount: 2
Fore
SplineSet
78 0 m 1
 78 639 l 1
 147 639 l 1
 147 68 l 1
 607 68 l 1
 607 0 l 1
 78 0 l 1
EndSplineSet
EndChar

StartChar: angle
Encoding: 8736 8736 463
GlifName: angle
Width: 685
VWidth: 900
Flags: HMW
LayerCount: 2
Fore
SplineSet
78 0 m 1
 78 76 l 1
 483 639 l 1
 560 639 l 1
 155 68 l 1
 607 68 l 1
 607 0 l 1
 78 0 l 1
EndSplineSet
EndChar

StartChar: integral
Encoding: 8747 8747 464
GlifName: integral
Width: 310
VWidth: 900
Flags: HMW
LayerCount: 2
Fore
SplineSet
147 536 m 2
 147 -26 l 2
 147 -133 88 -175 -4 -175 c 0
 -18 -175 -32 -173 -43 -171 c 1
 -43 -105 l 1
 -32 -107 -21 -108 -7 -108 c 0
 44 -108 78 -88 78 -18 c 2
 78 544 l 2
 78 651 138 693 230 693 c 0
 244 693 257 691 268 689 c 1
 268 624 l 1
 257 626 246 626 232 626 c 0
 181 626 147 606 147 536 c 2
EndSplineSet
EndChar

StartChar: uni223D
Encoding: 8765 8765 465
GlifName: uni223D_
Width: 714
VWidth: 900
Flags: HMW
LayerCount: 2
Fore
SplineSet
491 211 m 1
 559.315757574 211 598 249.667868421 598 317.954709762 c 0
 598 381.192705432 565.054609239 422 514 422 c 2
 505 422 l 2
 454.928746441 422 413.134082487 379.785392629 382.587539531 298.357566562 c 0
 344.689047581 197.33167256 284.430388657 145 206 145 c 2
 201 145 l 2
 111.610657538 145 50 216.048748732 50 319.131578649 c 0
 50 425.922852003 116.509682113 492 224 492 c 1
 224 424 l 1
 155.018309799 424 116 385.304229822 116 316.892767504 c 0
 116 253.777731217 148.969854442 213 200 213 c 2
 209 213 l 2
 257.350676076 213 298.188928156 254.627443855 328.696221708 335.009329367 c 0
 367.666582632 437.690056681 429.194804108 490 511 490 c 2
 516 490 l 2
 603.547742932 490 664 419.027356718 664 316.24385399 c 0
 664 209.149383002 597.943727319 143 491 143 c 1
 491 211 l 1
EndSplineSet
EndChar

StartChar: approxequal
Encoding: 8776 8776 466
GlifName: approxequal
Width: 569
VWidth: 900
Flags: HMW
LayerCount: 2
Fore
SplineSet
454 264 m 1
 454 192 428 151 383 151 c 0
 355 151 341 160 299 204 c 0
 258 247 228 263 188 263 c 0
 108 263 51 193 51 92 c 1
 116 92 l 1
 116 157 145 198 188 198 c 0
 214 198 230 187 266 148 c 0
 309 101 337 86 382 86 c 0
 467 86 519 154 519 264 c 1
 454 264 l 1
454 494 m 1
 454 422 428 381 383 381 c 0
 355 381 341 390 299 434 c 0
 258 477 228 493 188 493 c 0
 108 493 51 423 51 322 c 1
 116 322 l 1
 116 387 145 428 188 428 c 0
 214 428 230 417 266 378 c 0
 309 331 337 316 382 316 c 0
 467 316 519 384 519 494 c 1
 454 494 l 1
EndSplineSet
Substitution2: "'case' Case-Sensitive Forms lookup 13-1" approxequal.case
EndChar

StartChar: uni2312
Encoding: 8978 8978 467
GlifName: uni2312
Width: 630
VWidth: 900
Flags: HMW
LayerCount: 2
Fore
SplineSet
501 395 m 1
 501 518.368627451 434 588 313 588 c 0
 202 588 129 510.95256917 129 395 c 1
 60 395 l 1
 60 546.716981132 166 653 316 653 c 0
 474 653 570 555.44375 570 395 c 1
 501 395 l 1
EndSplineSet
EndChar

StartChar: uni2318
Encoding: 8984 8984 468
GlifName: uni2318
Width: 765
VWidth: 900
Flags: HMW
LayerCount: 2
Fore
SplineSet
556 447 m 2
 512 447 l 1
 512 491 l 2
 512 540 534 568 574 568 c 0
 612 568 638 544 638 509 c 0
 638 472 606 447 556 447 c 2
512 377 m 1
 556 377 l 2
 645 377 705 431 705 513 c 0
 705 589 654 639 574 639 c 0
 490 639 442 585 442 490 c 2
 442 447 l 1
 323 447 l 1
 323 491 l 2
 323 580 269 640 187 640 c 0
 111 640 61 589 61 509 c 0
 61 425 116 377 211 377 c 2
 253 377 l 1
 253 258 l 1
 209 258 l 2
 120 258 60 204 60 122 c 0
 60 46 111 -4 191 -4 c 0
 275 -4 323 51 323 146 c 2
 323 188 l 1
 442 188 l 5
 442 144 l 6
 442 55 496 -4 578 -4 c 4
 654 -4 704 46 704 126 c 4
 704 210 649 258 554 258 c 6
 512 258 l 5
 512 377 l 1
442 377 m 1
 442 258 l 5
 323 258 l 1
 323 377 l 1
 442 377 l 1
512 144 m 6
 512 188 l 5
 556 188 l 6
 605 188 633 166 633 126 c 4
 633 88 609 62 574 62 c 4
 537 62 512 94 512 144 c 6
209 188 m 2
 253 188 l 1
 253 144 l 2
 253 95 231 68 191 68 c 0
 153 68 127 91 127 126 c 0
 127 163 159 188 209 188 c 2
253 447 m 1
 209 447 l 2
 160 447 132 469 132 509 c 0
 132 547 156 573 191 573 c 0
 228 573 253 541 253 491 c 2
 253 447 l 1
EndSplineSet
EndChar

StartChar: uni2581
Encoding: 9601 9601 469
GlifName: uni2581
Width: 811
VWidth: 900
Flags: HMW
LayerCount: 2
Fore
SplineSet
60 89 m 5
 60 0 l 1
 751 0 l 1
 750 89 l 5
 60 89 l 5
EndSplineSet
EndChar

StartChar: uni2582
Encoding: 9602 9602 470
GlifName: uni2582
Width: 811
VWidth: 900
Flags: HMW
LayerCount: 2
Fore
SplineSet
60 174 m 5
 60 0 l 1
 751 0 l 1
 750 174 l 5
 60 174 l 5
EndSplineSet
EndChar

StartChar: uni2583
Encoding: 9603 9603 471
GlifName: uni2583
Width: 811
VWidth: 900
Flags: HMW
LayerCount: 2
Fore
SplineSet
60 259 m 5
 60 0 l 1
 751 0 l 1
 750 259 l 5
 60 259 l 5
EndSplineSet
EndChar

StartChar: dnblock
Encoding: 9604 9604 472
GlifName: dnblock
Width: 811
VWidth: 900
Flags: HMW
LayerCount: 2
Fore
SplineSet
60 344 m 5
 60 0 l 1
 751 0 l 1
 750 344 l 5
 60 344 l 5
EndSplineSet
EndChar

StartChar: uni2585
Encoding: 9605 9605 473
GlifName: uni2585
Width: 811
VWidth: 900
Flags: HMW
LayerCount: 2
Fore
SplineSet
60 429 m 5
 60 0 l 1
 751 0 l 1
 750 429 l 5
 60 429 l 5
EndSplineSet
EndChar

StartChar: uni2586
Encoding: 9606 9606 474
GlifName: uni2586
Width: 811
VWidth: 900
Flags: HMW
LayerCount: 2
Fore
SplineSet
60 514 m 5
 60 0 l 1
 751 0 l 1
 750 514 l 5
 60 514 l 5
EndSplineSet
EndChar

StartChar: uni2587
Encoding: 9607 9607 475
GlifName: uni2587
Width: 811
VWidth: 900
Flags: HMW
LayerCount: 2
Fore
SplineSet
60 599 m 5
 60 0 l 1
 751 0 l 1
 750 599 l 5
 60 599 l 5
EndSplineSet
EndChar

StartChar: block
Encoding: 9608 9608 476
GlifName: block
Width: 811
VWidth: 900
Flags: HMW
LayerCount: 2
Fore
SplineSet
60 684 m 1
 60 0 l 1
 751 0 l 1
 750 684 l 1
 60 684 l 1
EndSplineSet
EndChar

StartChar: uni2589
Encoding: 9609 9609 477
GlifName: uni2589
Width: 725
VWidth: 900
Flags: HMW
LayerCount: 2
Fore
SplineSet
60 684 m 1
 60 0 l 1
 665 0 l 5
 664 684 l 5
 60 684 l 1
EndSplineSet
EndChar

StartChar: uni258A
Encoding: 9610 9610 478
GlifName: uni258A_
Width: 639
VWidth: 900
Flags: HMW
LayerCount: 2
Fore
SplineSet
60 684 m 1
 60 0 l 1
 579 0 l 5
 578 684 l 5
 60 684 l 1
EndSplineSet
EndChar

StartChar: uni258B
Encoding: 9611 9611 479
GlifName: uni258B_
Width: 553
VWidth: 900
Flags: HMW
LayerCount: 2
Fore
SplineSet
60 684 m 1
 60 0 l 1
 493 0 l 5
 492 684 l 5
 60 684 l 1
EndSplineSet
EndChar

StartChar: lfblock
Encoding: 9612 9612 480
GlifName: lfblock
Width: 467
VWidth: 900
Flags: HMW
LayerCount: 2
Fore
SplineSet
60 684 m 1
 60 0 l 1
 407 0 l 5
 406 684 l 5
 60 684 l 1
EndSplineSet
EndChar

StartChar: uni258D
Encoding: 9613 9613 481
GlifName: uni258D_
Width: 381
VWidth: 900
Flags: HMW
LayerCount: 2
Fore
SplineSet
60 684 m 1
 60 0 l 1
 321 0 l 5
 320 684 l 5
 60 684 l 1
EndSplineSet
EndChar

StartChar: uni258E
Encoding: 9614 9614 482
GlifName: uni258E_
Width: 295
VWidth: 900
Flags: HMW
LayerCount: 2
Fore
SplineSet
60 684 m 1
 60 0 l 1
 235 0 l 5
 234 684 l 5
 60 684 l 1
EndSplineSet
EndChar

StartChar: uni258F
Encoding: 9615 9615 483
GlifName: uni258F_
Width: 209
VWidth: 900
Flags: HMW
LayerCount: 2
Fore
SplineSet
60 684 m 1
 60 0 l 1
 149 0 l 5
 148 684 l 5
 60 684 l 1
EndSplineSet
EndChar

StartChar: filledbox
Encoding: 9632 9632 484
GlifName: filledbox
Width: 811
VWidth: 900
Flags: HMW
LayerCount: 2
Fore
SplineSet
60 684 m 1
 60 0 l 1
 751 0 l 1
 750 684 l 1
 60 684 l 1
EndSplineSet
EndChar

StartChar: H22073
Encoding: 9633 9633 485
GlifName: H_22073
Width: 811
VWidth: 900
Flags: HMW
LayerCount: 2
Fore
SplineSet
129 616 m 1
 129 68 l 1
 682 68 l 1
 681 616 l 1
 129 616 l 1
60 684 m 1
 750 684 l 1
 751 0 l 1
 60 0 l 1
 60 684 l 1
EndSplineSet
EndChar

StartChar: uni25A2
Encoding: 9634 9634 486
GlifName: uni25A_2
Width: 811
VWidth: 900
Flags: HMW
LayerCount: 2
Fore
SplineSet
681 572 m 2
 681 598 661 619 636 619 c 2
 176 617 l 2
 150 617 129 597 129 572 c 2
 129 112 l 2
 129 86 150 65 176 65 c 2
 636 65 l 2
 662 65 682 86 682 112 c 2
 681 572 l 2
750 584 m 2
 751 100 l 2
 751 43 705 -4 648 -4 c 2
 164 -4 l 2
 107 -4 60 43 60 100 c 2
 60 584 l 2
 60 640 107 686 164 686 c 2
 648 688 l 2
 704 688 750 641 750 584 c 2
EndSplineSet
EndChar

StartChar: H18543
Encoding: 9642 9642 487
GlifName: H_18543
Width: 465
VWidth: 900
Flags: HMW
LayerCount: 2
Fore
SplineSet
60 513 m 1
 60 171 l 1
 405 171 l 1
 405 513 l 1
 60 513 l 1
EndSplineSet
EndChar

StartChar: H18551
Encoding: 9643 9643 488
GlifName: H_18551
Width: 465
VWidth: 900
Flags: HMW
LayerCount: 2
Fore
SplineSet
122 451 m 1
 122 233 l 1
 343 233 l 1
 343 451 l 1
 122 451 l 1
60 513 m 1
 405 513 l 1
 405 171 l 1
 60 171 l 1
 60 513 l 1
EndSplineSet
EndChar

StartChar: uni25B1
Encoding: 9649 9649 489
GlifName: uni25B_1
Width: 902
VWidth: 900
Flags: HMW
LayerCount: 2
Fore
SplineSet
309 451 m 1
 175 233 l 1
 586 233 l 1
 720 451 l 1
 309 451 l 1
274 513 m 1
 842 513 l 1
 628 171 l 1
 60 171 l 1
 274 513 l 1
EndSplineSet
EndChar

StartChar: triagup
Encoding: 9650 9650 490
GlifName: triagup
Width: 811
VWidth: 900
Flags: HMW
LayerCount: 2
Fore
SplineSet
60 0 m 5
 751 0 l 5
 405 684 l 5
 60 0 l 5
EndSplineSet
EndChar

StartChar: uni25B3
Encoding: 9651 9651 491
GlifName: uni25B_3
Width: 811
VWidth: 900
Flags: HMW
LayerCount: 2
Fore
SplineSet
184.379882812 79.1201171875 m 1
 626.620117188 79.1201171875 l 1
 405.1796875 516.879882812 l 1
 184.379882812 79.1201171875 l 1
60 0 m 1
 405 684 l 1
 751 0 l 1
 60 0 l 1
EndSplineSet
EndChar

StartChar: uni25B6
Encoding: 9654 9654 492
GlifName: uni25B_6
Width: 804
VWidth: 900
Flags: HMW
LayerCount: 2
Fore
SplineSet
60 687.5 m 5
 60 -3.5 l 5
 744 342.5 l 5
 60 687.5 l 5
EndSplineSet
EndChar

StartChar: uni25B7
Encoding: 9655 9655 493
GlifName: uni25B_7
Width: 804
VWidth: 900
Flags: HMW
LayerCount: 2
Fore
SplineSet
139.120117188 563.120117188 m 1
 139.120117188 120.879882812 l 1
 576.879882812 342.3203125 l 1
 139.120117188 563.120117188 l 1
60 687.5 m 1
 744 342.5 l 1
 60 -3.5 l 1
 60 687.5 l 1
EndSplineSet
EndChar

StartChar: triagdn
Encoding: 9660 9660 494
GlifName: triagdn
Width: 811
VWidth: 900
Flags: HMW
LayerCount: 2
Fore
SplineSet
751 684 m 5
 60 684 l 5
 406 0 l 5
 751 684 l 5
EndSplineSet
EndChar

StartChar: uni25BD
Encoding: 9661 9661 495
GlifName: uni25B_D_
Width: 811
VWidth: 900
Flags: HMW
LayerCount: 2
Fore
SplineSet
626.620117188 604.879882812 m 1
 184.379882812 604.879882812 l 1
 405.8203125 167.120117188 l 1
 626.620117188 604.879882812 l 1
751 684 m 1
 406 0 l 1
 60 684 l 1
 751 684 l 1
EndSplineSet
EndChar

StartChar: uni25C0
Encoding: 9664 9664 496
GlifName: uni25C_0
Width: 804
VWidth: 900
Flags: HMW
LayerCount: 2
Fore
SplineSet
744 -3.5 m 5
 744 687.5 l 5
 60 341.5 l 5
 744 -3.5 l 5
EndSplineSet
EndChar

StartChar: uni25C1
Encoding: 9665 9665 497
GlifName: uni25C_1
Width: 804
VWidth: 900
Flags: HMW
LayerCount: 2
Fore
SplineSet
664.879882812 120.879882812 m 1
 664.879882812 563.120117188 l 1
 227.120117188 341.6796875 l 1
 664.879882812 120.879882812 l 1
744 -3.5 m 1
 60 341.5 l 1
 744 687.5 l 1
 744 -3.5 l 1
EndSplineSet
EndChar

StartChar: uni25C6
Encoding: 9670 9670 498
GlifName: uni25C_6
Width: 812
VWidth: 900
Flags: HMW
LayerCount: 2
Fore
SplineSet
60 338 m 0
 406 -8 l 0
 752 338 l 0
 406 684 l 0
 60 338 l 0
EndSplineSet
EndChar

StartChar: uni25C7
Encoding: 9671 9671 499
GlifName: uni25C_7
Width: 812
VWidth: 900
Flags: HMW
LayerCount: 2
Fore
SplineSet
406 559.439453125 m 0
 184.560546875 338 l 0
 406 116.560546875 l 0
 627.439453125 338 l 0
 406 559.439453125 l 0
60 338 m 0
 406 684 l 0
 752 338 l 0
 406 -8 l 0
 60 338 l 0
EndSplineSet
EndChar

StartChar: uni25C9
Encoding: 9673 9673 500
GlifName: uni25C_9
Width: 812
VWidth: 900
Flags: HMW
LayerCount: 2
Fore
SplineSet
230 338 m 0
 230 435.15625 308.84375 514 406 514 c 0
 503.15625 514 582 435.15625 582 338 c 0
 582 240.84375 503.15625 162 406 162 c 0
 308.84375 162 230 240.84375 230 338 c 0
129.200195312 338 m 0
 129.200195312 185.200195312 253.200195312 61.2001953125 406 61.2001953125 c 0
 558.799804688 61.2001953125 682.799804688 185.200195312 682.799804688 338 c 0
 682.799804688 490.799804688 558.799804688 614.799804688 406 614.799804688 c 0
 253.200195312 614.799804688 129.200195312 490.799804688 129.200195312 338 c 0
60 338 m 0
 60 529 215 684 406 684 c 0
 597 684 752 529 752 338 c 0
 752 147 597 -8 406 -8 c 0
 215 -8 60 147 60 338 c 0
EndSplineSet
EndChar

StartChar: circle
Encoding: 9675 9675 501
GlifName: circle
Width: 812
VWidth: 900
Flags: HMW
LayerCount: 2
Fore
SplineSet
129.200195312 338 m 4
 129.200195312 185.200195312 253.200195312 61.2001953125 406 61.2001953125 c 4
 558.799804688 61.2001953125 682.799804688 185.200195312 682.799804688 338 c 4
 682.799804688 490.799804688 558.799804688 614.799804688 406 614.799804688 c 4
 253.200195312 614.799804688 129.200195312 490.799804688 129.200195312 338 c 4
60 338 m 4
 60 529 215 684 406 684 c 4
 597 684 752 529 752 338 c 4
 752 147 597 -8 406 -8 c 4
 215 -8 60 147 60 338 c 4
EndSplineSet
EndChar

StartChar: uni25CC
Encoding: 9676 9676 502
GlifName: uni25C_C_
Width: 832
VWidth: 900
Flags: HMW
LayerCount: 2
Fore
SplineSet
368 30 m 0
 368 57 389 79 416 79 c 0
 443 79 465 57 465 30 c 0
 465 3 443 -18 416 -18 c 0
 389 -18 368 3 368 30 c 0
368 645 m 0
 368 672 389 694 416 694 c 0
 443 694 465 672 465 645 c 0
 465 618 443 597 416 597 c 0
 389 597 368 618 368 645 c 0
214 71 m 0
 214 97 236 120 263 120 c 0
 289 120 311 98 311 71 c 0
 311 45 290 23 263 23 c 0
 237 23 214 44 214 71 c 0
521 604 m 0
 521 630 543 653 570 653 c 0
 596 653 619 631 619 604 c 0
 619 578 598 556 571 556 c 0
 545 556 521 577 521 604 c 0
101 185 m 0
 101 212 124 233 150 233 c 0
 177 233 198 210 198 184 c 0
 198 157 176 135 150 135 c 0
 123 135 101 159 101 185 c 0
634 492 m 0
 634 519 657 540 683 540 c 0
 710 540 731 518 731 492 c 0
 731 465 709 443 683 443 c 0
 656 443 634 466 634 492 c 0
108 386 m 0
 135 386 157 365 157 338 c 0
 157 311 135 289 108 289 c 0
 81 289 60 311 60 338 c 0
 60 365 81 386 108 386 c 0
723 386 m 0
 750 386 772 365 772 338 c 0
 772 311 750 289 723 289 c 0
 696 289 675 311 675 338 c 0
 675 365 696 386 723 386 c 0
150 540 m 0
 176 540 199 518 199 491 c 0
 199 465 177 443 150 443 c 0
 124 443 102 464 102 491 c 0
 102 517 123 540 150 540 c 0
682 233 m 0
 708 233 731 211 731 184 c 0
 731 158 709 136 682 136 c 0
 656 136 634 157 634 184 c 0
 634 210 655 233 682 233 c 0
263 653 m 0
 290 653 311 630 311 604 c 0
 311 577 289 556 263 556 c 0
 236 556 214 578 214 604 c 0
 214 631 237 653 263 653 c 0
571 120 m 0
 598 120 619 97 619 71 c 0
 619 44 596 23 570 23 c 0
 543 23 521 46 521 72 c 0
 521 99 545 120 571 120 c 0
EndSplineSet
EndChar

StartChar: uni25CE
Encoding: 9678 9678 503
GlifName: uni25C_E_
Width: 812
VWidth: 900
Flags: HMW
LayerCount: 2
Fore
SplineSet
299.200195312 338 m 0
 299.200195312 279.043945312 347.043945312 231.200195312 406 231.200195312 c 0
 464.956054688 231.200195312 512.799804688 279.043945312 512.799804688 338 c 0
 512.799804688 396.956054688 464.956054688 444.799804688 406 444.799804688 c 0
 347.043945312 444.799804688 299.200195312 396.956054688 299.200195312 338 c 0
230 338 m 0
 230 435.15625 308.84375 514 406 514 c 0
 503.15625 514 582 435.15625 582 338 c 0
 582 240.84375 503.15625 162 406 162 c 0
 308.84375 162 230 240.84375 230 338 c 0
129.200195312 338 m 0
 129.200195312 185.200195312 253.200195312 61.2001953125 406 61.2001953125 c 0
 558.799804688 61.2001953125 682.799804688 185.200195312 682.799804688 338 c 0
 682.799804688 490.799804688 558.799804688 614.799804688 406 614.799804688 c 0
 253.200195312 614.799804688 129.200195312 490.799804688 129.200195312 338 c 0
60 338 m 0
 60 529 215 684 406 684 c 0
 597 684 752 529 752 338 c 0
 752 147 597 -8 406 -8 c 0
 215 -8 60 147 60 338 c 0
EndSplineSet
EndChar

StartChar: H18533
Encoding: 9679 9679 504
GlifName: H_18533
Width: 812
VWidth: 900
Flags: HMW
LayerCount: 2
Fore
SplineSet
60 338 m 4
 60 147 215 -8 406 -8 c 4
 597 -8 752 147 752 338 c 4
 752 529 597 684 406 684 c 4
 215 684 60 529 60 338 c 4
EndSplineSet
EndChar

StartChar: uni25D0
Encoding: 9680 9680 505
GlifName: uni25D_0
Width: 812
VWidth: 900
Flags: HMW
LayerCount: 2
Fore
SplineSet
406 61.2001953125 m 0
 558.799804688 61.2001953125 682.799804688 185.200195312 682.799804688 338 c 0
 682.799804688 490.799804688 558.799804688 614.799804688 406 614.799804688 c 0
 406 61.2001953125 l 0
60 338 m 0
 60 529 215 684 406 684 c 0
 597 684 752 529 752 338 c 0
 752 147 597 -8 406 -8 c 0
 215 -8 60 147 60 338 c 0
EndSplineSet
EndChar

StartChar: uni25D1
Encoding: 9681 9681 506
GlifName: uni25D_1
Width: 812
VWidth: 900
Flags: HMW
LayerCount: 2
Fore
SplineSet
406 614.799804688 m 0
 253.200195312 614.799804688 129.200195312 490.799804688 129.200195312 338 c 0
 129.200195312 185.200195312 253.200195312 61.2001953125 406 61.2001953125 c 0
 406 614.799804688 l 0
752 338 m 0
 752 147 597 -8 406 -8 c 0
 215 -8 60 147 60 338 c 0
 60 529 215 684 406 684 c 0
 597 684 752 529 752 338 c 0
EndSplineSet
EndChar

StartChar: uni25D2
Encoding: 9682 9682 507
GlifName: uni25D_2
Width: 812
VWidth: 900
Flags: HMW
LayerCount: 2
Fore
SplineSet
682.799804688 338 m 0
 682.799804688 490.799804688 558.799804688 614.799804688 406 614.799804688 c 0
 253.200195312 614.799804688 129.200195312 490.799804688 129.200195312 338 c 0
 682.799804688 338 l 0
406 -8 m 0
 215 -8 60 147 60 338 c 0
 60 529 215 684 406 684 c 0
 597 684 752 529 752 338 c 0
 752 147 597 -8 406 -8 c 0
EndSplineSet
EndChar

StartChar: uni25D3
Encoding: 9683 9683 508
GlifName: uni25D_3
Width: 812
VWidth: 900
Flags: HMW
LayerCount: 2
Fore
SplineSet
129.200195312 338 m 0
 129.200195312 185.200195312 253.200195312 61.2001953125 406 61.2001953125 c 0
 558.799804688 61.2001953125 682.799804688 185.200195312 682.799804688 338 c 0
 129.200195312 338 l 0
406 684 m 0
 597 684 752 529 752 338 c 0
 752 147 597 -8 406 -8 c 0
 215 -8 60 147 60 338 c 0
 60 529 215 684 406 684 c 0
EndSplineSet
EndChar

StartChar: uni25E2
Encoding: 9698 9698 509
GlifName: uni25E_2
Width: 811
VWidth: 900
Flags: HMW
LayerCount: 2
Fore
SplineSet
60 0 m 1
 751 0 l 1
 750 684 l 1
 60 0 l 1
EndSplineSet
EndChar

StartChar: uni25E3
Encoding: 9699 9699 510
GlifName: uni25E_3
Width: 804
VWidth: 900
Flags: HMW
LayerCount: 2
Fore
SplineSet
60 687.5 m 1
 60 -3.5 l 1
 744 -2.5 l 1
 60 687.5 l 1
EndSplineSet
EndChar

StartChar: uni25E4
Encoding: 9700 9700 511
GlifName: uni25E_4
Width: 811
VWidth: 900
Flags: HMW
LayerCount: 2
Fore
SplineSet
751 684 m 1
 60 684 l 1
 61 0 l 1
 751 684 l 1
EndSplineSet
EndChar

StartChar: uni25E5
Encoding: 9701 9701 512
GlifName: uni25E_5
Width: 804
VWidth: 900
Flags: HMW
LayerCount: 2
Fore
SplineSet
744 -3.5 m 1
 744 687.5 l 1
 60 686.5 l 1
 744 -3.5 l 1
EndSplineSet
EndChar

StartChar: openbullet
Encoding: 9702 9702 513
GlifName: openbullet
Width: 466
VWidth: 900
Flags: HMW
LayerCount: 2
Fore
SplineSet
122 338 m 0
 122 277 172 227 233 227 c 0
 294 227 344 277 344 338 c 0
 344 399 294 449 233 449 c 0
 172 449 122 399 122 338 c 0
60 338 m 0
 60 434 137 511 233 511 c 0
 329 511 406 434 406 338 c 0
 406 242 329 165 233 165 c 0
 137 165 60 242 60 338 c 0
EndSplineSet
EndChar

StartChar: uni25EF
Encoding: 9711 9711 514
GlifName: uni25E_F_
Width: 984
VWidth: 900
Flags: HMW
LayerCount: 2
Fore
SplineSet
132 338 m 0
 132 139 293 -22 492 -22 c 0
 691 -22 852 139 852 338 c 0
 852 537 691 698 492 698 c 0
 293 698 132 537 132 338 c 0
60 338 m 0
 60 576 254 770 492 770 c 0
 730 770 924 576 924 338 c 0
 924 100 730 -94 492 -94 c 0
 254 -94 60 100 60 338 c 0
EndSplineSet
EndChar

StartChar: uni25FD
Encoding: 9725 9725 515
GlifName: uni25F_D_
Width: 465
VWidth: 900
Flags: HMW
LayerCount: 2
Fore
SplineSet
122 451 m 1
 122 233 l 1
 343 233 l 1
 343 451 l 1
 122 451 l 1
60 513 m 1
 405 513 l 1
 405 171 l 1
 60 171 l 1
 60 513 l 1
EndSplineSet
EndChar

StartChar: uni25FE
Encoding: 9726 9726 516
GlifName: uni25F_E_
Width: 465
VWidth: 900
Flags: HMW
LayerCount: 2
Fore
SplineSet
60 513 m 1
 60 171 l 1
 405 171 l 1
 405 513 l 1
 60 513 l 1
EndSplineSet
EndChar

StartChar: uni2713
Encoding: 10003 10003 517
GlifName: uni2713
Width: 661
VWidth: 900
Flags: HMW
LayerCount: 2
Fore
SplineSet
263 125 m 5
 60 328 l 5
 106 374 l 5
 261 220 l 5
 552 512 l 5
 601 463 l 5
 263 125 l 5
EndSplineSet
EndChar

StartChar: uni2776
Encoding: 10102 10102 518
GlifName: uni2776
Width: 792
VWidth: 900
Flags: HMW
LayerCount: 2
Fore
SplineSet
50 338 m 0
 50 147 205 -8 396 -8 c 0
 587 -8 742 147 742 338 c 0
 742 529 587 684 396 684 c 0
 205 684 50 529 50 338 c 0
276 158 m 5
 276 226 l 5
 379 226 l 5
 379 434 l 5
 286 356 l 5
 242 411 l 5
 379 519 l 5
 448 519 l 5
 448 226 l 5
 545 226 l 5
 545 158 l 5
 276 158 l 5
EndSplineSet
EndChar

StartChar: uni2777
Encoding: 10103 10103 519
GlifName: uni2777
Width: 792
VWidth: 900
Flags: HMW
LayerCount: 2
Fore
SplineSet
50 338 m 0
 50 147 205 -8 396 -8 c 0
 587 -8 742 147 742 338 c 0
 742 529 587 684 396 684 c 0
 205 684 50 529 50 338 c 0
264 259 m 5
 378 316 l 6
 460 358 478 376 478 406 c 4
 478 439 449 462 406 462 c 4
 356 462 322 432 314 384 c 5
 244 384 l 5
 251 471 315 528 404 528 c 4
 489 528 548 476 548 401 c 4
 548 339 507 299 396 249 c 6
 336 223 l 5
 548 223 l 5
 548 158 l 5
 264 158 l 5
 264 259 l 5
EndSplineSet
EndChar

StartChar: uni2778
Encoding: 10104 10104 520
GlifName: uni2778
Width: 792
VWidth: 900
Flags: HMW
LayerCount: 2
Fore
SplineSet
50 338 m 0
 50 147 205 -8 396 -8 c 0
 587 -8 742 147 742 338 c 0
 742 529 587 684 396 684 c 0
 205 684 50 529 50 338 c 0
430 371 m 6
 460 371 478 387 478 413 c 4
 478 442 447 462 402 462 c 4
 353 462 321 441 314 406 c 5
 244 406 l 5
 251 481 309 528 398 528 c 4
 483 528 548 482 548 414 c 4
 548 379 531 350 502 334 c 5
 531 321 548 296 548 263 c 4
 548 199 484 151 398 151 c 4
 311 151 251 195 244 264 c 5
 314 264 l 5
 321 235 354 217 404 217 c 4
 448 217 478 235 478 264 c 4
 478 287 461 303 430 303 c 6
 354 303 l 5
 354 371 l 5
 430 371 l 6
EndSplineSet
EndChar

StartChar: uni2779
Encoding: 10105 10105 521
GlifName: uni2779
Width: 792
VWidth: 900
Flags: HMW
LayerCount: 2
Fore
SplineSet
50 338 m 0
 50 147 205 -8 396 -8 c 0
 587 -8 742 147 742 338 c 0
 742 529 587 684 396 684 c 0
 205 684 50 529 50 338 c 0
324 317 m 5
 420 317 l 5
 420 443 l 5
 324 317 l 5
244 317 m 5
 392 519 l 5
 488 519 l 5
 488 317 l 5
 548 317 l 5
 548 249 l 5
 488 249 l 5
 488 159 l 5
 420 159 l 5
 420 249 l 5
 244 249 l 5
 244 317 l 5
EndSplineSet
EndChar

StartChar: uni277A
Encoding: 10106 10106 522
GlifName: uni277A_
Width: 792
VWidth: 900
Flags: HMW
LayerCount: 2
Fore
SplineSet
50 338 m 0
 50 529 205 684 396 684 c 0
 587 684 742 529 742 338 c 0
 742 147 587 -8 396 -8 c 0
 205 -8 50 147 50 338 c 0
478 279 m 4
 478 241 447 217 398 217 c 4
 353 217 321 236 314 267 c 5
 244 267 l 5
 251 196 309 151 394 151 c 4
 485 151 548 203 548 281 c 4
 548 350 498 400 430 400 c 4
 398 400 369 389 346 368 c 5
 346 454 l 5
 530 454 l 5
 530 519 l 5
 274 519 l 5
 274 313 l 5
 354 313 l 5
 376 329 391 334 412 334 c 4
 454 334 478 314 478 279 c 4
EndSplineSet
EndChar

StartChar: uni277B
Encoding: 10107 10107 523
GlifName: uni277B_
Width: 792
VWidth: 900
Flags: HMW
LayerCount: 2
Fore
SplineSet
50 338 m 0
 50 147 205 -8 396 -8 c 0
 587 -8 742 147 742 338 c 0
 742 529 587 684 396 684 c 0
 205 684 50 529 50 338 c 0
244 327 m 6
 244 341 l 6
 244 460 306 532 406 532 c 4
 484 532 541 487 548 419 c 5
 478 419 l 5
 472 448 442 467 404 467 c 4
 350 467 314 427 314 370 c 6
 314 356 l 5
 342 386 378 402 420 402 c 4
 496 402 548 352 548 280 c 6
 548 278 l 6
 548 203 488 151 402 151 c 4
 305 151 244 218 244 327 c 6
316 291 m 5
 321 243 352 217 402 217 c 4
 449 217 478 241 478 278 c 6
 478 280 l 6
 478 314 451 336 410 336 c 4
 372 336 330 316 316 291 c 5
EndSplineSet
EndChar

StartChar: uni277C
Encoding: 10108 10108 524
GlifName: uni277C_
Width: 792
VWidth: 900
Flags: HMW
LayerCount: 2
Fore
SplineSet
50 338 m 0
 50 529 205 684 396 684 c 0
 587 684 742 529 742 338 c 0
 742 147 587 -8 396 -8 c 0
 205 -8 50 147 50 338 c 0
342 159 m 5
 420 159 l 5
 548 436 l 5
 548 519 l 5
 244 519 l 5
 244 454 l 5
 482 454 l 5
 342 159 l 5
EndSplineSet
EndChar

StartChar: uni277D
Encoding: 10109 10109 525
GlifName: uni277D_
Width: 792
VWidth: 900
Flags: HMW
LayerCount: 2
Fore
SplineSet
50 338 m 0
 50 147 205 -8 396 -8 c 0
 587 -8 742 147 742 338 c 0
 742 529 587 684 396 684 c 0
 205 684 50 529 50 338 c 0
314 261 m 6
 314 233 342 217 394 217 c 4
 445 217 478 233 478 258 c 6
 478 261 l 6
 478 286 447 307 392 318 c 5
 345 307 314 284 314 262 c 6
 314 261 l 6
284 429 m 6
 284 489 330 530 400 530 c 4
 469 530 514 489 514 426 c 6
 514 422 l 6
 514 390 490 360 456 352 c 5
 511 341 548 303 548 256 c 6
 548 252 l 6
 548 193 484 151 392 151 c 4
 302 151 244 191 244 253 c 6
 244 257 l 6
 244 301 279 342 328 354 c 5
 301 361 284 390 284 424 c 6
 284 429 l 6
394 384 m 5
 425 392 446 407 446 422 c 6
 446 423 l 6
 446 449 427 464 398 464 c 4
 369 464 352 449 352 425 c 6
 352 424 l 6
 352 406 367 392 394 384 c 5
EndSplineSet
EndChar

StartChar: uni277E
Encoding: 10110 10110 526
GlifName: uni277E_
Width: 792
VWidth: 900
Flags: HMW
LayerCount: 2
Fore
SplineSet
50 338 m 0
 50 147 205 -8 396 -8 c 0
 587 -8 742 147 742 338 c 0
 742 529 587 684 396 684 c 0
 205 684 50 529 50 338 c 0
548 356 m 6
 548 343 l 6
 548 224 486 151 386 151 c 4
 308 151 251 196 244 264 c 5
 314 264 l 5
 320 235 348 217 386 217 c 4
 440 217 478 256 478 313 c 6
 478 327 l 5
 450 297 414 281 372 281 c 4
 296 281 244 332 244 404 c 6
 244 406 l 6
 244 481 304 532 390 532 c 4
 487 532 548 465 548 356 c 6
476 392 m 5
 471 440 440 467 390 467 c 4
 343 467 314 443 314 406 c 6
 314 404 l 6
 314 370 341 347 382 347 c 4
 420 347 462 367 476 392 c 5
EndSplineSet
EndChar

StartChar: uni277F
Encoding: 10111 10111 527
GlifName: uni277F_
Width: 792
VWidth: 900
Flags: HMW
LayerCount: 2
Fore
SplineSet
405 365 m 2
 405 448.739130435 453.439490446 509 522 509 c 0
 587.342465753 509 628 454.135135135 628 364 c 2
 628 315 l 2
 628 231.387978142 581.688741722 172 517 172 c 0
 447.736842105 172 405 226.864864865 405 317 c 2
 405 365 l 2
474 317 m 2
 474 266.546218487 489.882352941 238 519 238 c 0
 543.5 238 559 268.273504274 559 315 c 2
 559 364 l 2
 559 414.453781513 545.17721519 443 520 443 c 0
 492.186046512 443 474 411.93220339 474 365 c 2
 474 317 l 2
50 338 m 0
 50 147 205 -8 396 -8 c 0
 587 -8 742 147 742 338 c 0
 742 529 587 684 396 684 c 0
 205 684 50 529 50 338 c 0
191 178 m 1
 191 246 l 1
 254 246 l 1
 254 424 l 1
 201 385 l 1
 167 440 l 1
 254 499 l 1
 323 499 l 1
 323 246 l 1
 380 246 l 1
 380 178 l 1
 191 178 l 1
EndSplineSet
EndChar

StartChar: uni2780
Encoding: 10112 10112 528
GlifName: uni2780
Width: 792
VWidth: 900
Flags: HMW
LayerCount: 2
Fore
SplineSet
119.200195312 338 m 4
 119.200195312 185.200107817 243.200107817 61.2001953125 396 61.2001953125 c 4
 548.799892183 61.2001953125 672.799804688 185.200107817 672.799804688 338 c 4
 672.799804688 490.799892183 548.799892183 614.799804688 396 614.799804688 c 4
 243.200107817 614.799804688 119.200195312 490.799892183 119.200195312 338 c 4
50 338 m 4
 50 529 205 684 396 684 c 4
 587 684 742 529 742 338 c 4
 742 147 587 -8 396 -8 c 4
 205 -8 50 147 50 338 c 4
276 158 m 1
 276 226 l 1
 379 226 l 1
 379 434 l 1
 286 356 l 1
 242 411 l 1
 379 519 l 1
 448 519 l 1
 448 226 l 1
 545 226 l 1
 545 158 l 1
 276 158 l 1
EndSplineSet
EndChar

StartChar: uni2781
Encoding: 10113 10113 529
GlifName: uni2781
Width: 792
VWidth: 900
Flags: HMW
LayerCount: 2
Fore
SplineSet
119.200195312 338 m 4
 119.200195312 185.200107817 243.200107817 61.2001953125 396 61.2001953125 c 4
 548.799892183 61.2001953125 672.799804688 185.200107817 672.799804688 338 c 4
 672.799804688 490.799892183 548.799892183 614.799804688 396 614.799804688 c 4
 243.200107817 614.799804688 119.200195312 490.799892183 119.200195312 338 c 4
50 338 m 0
 50 529 205 684 396 684 c 0
 587 684 742 529 742 338 c 0
 742 147 587 -8 396 -8 c 0
 205 -8 50 147 50 338 c 0
264 259 m 1
 378 316 l 2
 460 358 478 376 478 406 c 0
 478 439 449 462 406 462 c 0
 356 462 322 432 314 384 c 1
 244 384 l 1
 251 471 315 528 404 528 c 0
 489 528 548 476 548 401 c 0
 548 339 507 299 396 249 c 2
 336 223 l 1
 548 223 l 1
 548 158 l 1
 264 158 l 1
 264 259 l 1
EndSplineSet
EndChar

StartChar: uni2782
Encoding: 10114 10114 530
GlifName: uni2782
Width: 792
VWidth: 900
Flags: HMW
LayerCount: 2
Fore
SplineSet
119.200195312 338 m 4
 119.200195312 185.200107817 243.200107817 61.2001953125 396 61.2001953125 c 4
 548.799892183 61.2001953125 672.799804688 185.200107817 672.799804688 338 c 4
 672.799804688 490.799892183 548.799892183 614.799804688 396 614.799804688 c 4
 243.200107817 614.799804688 119.200195312 490.799892183 119.200195312 338 c 4
50 338 m 0
 50 529 205 684 396 684 c 0
 587 684 742 529 742 338 c 0
 742 147 587 -8 396 -8 c 0
 205 -8 50 147 50 338 c 0
430 371 m 2
 460 371 478 387 478 413 c 0
 478 442 447 462 402 462 c 0
 353 462 321 441 314 406 c 1
 244 406 l 1
 251 481 309 528 398 528 c 0
 483 528 548 482 548 414 c 0
 548 379 531 350 502 334 c 1
 531 321 548 296 548 263 c 0
 548 199 484 151 398 151 c 0
 311 151 251 195 244 264 c 1
 314 264 l 1
 321 235 354 217 404 217 c 0
 448 217 478 235 478 264 c 0
 478 287 461 303 430 303 c 2
 354 303 l 1
 354 371 l 1
 430 371 l 2
EndSplineSet
EndChar

StartChar: uni2783
Encoding: 10115 10115 531
GlifName: uni2783
Width: 792
VWidth: 900
Flags: HMW
LayerCount: 2
Fore
SplineSet
119.200195312 338 m 4
 119.200195312 185.200107817 243.200107817 61.2001953125 396 61.2001953125 c 4
 548.799892183 61.2001953125 672.799804688 185.200107817 672.799804688 338 c 4
 672.799804688 490.799892183 548.799892183 614.799804688 396 614.799804688 c 4
 243.200107817 614.799804688 119.200195312 490.799892183 119.200195312 338 c 4
50 338 m 0
 50 529 205 684 396 684 c 0
 587 684 742 529 742 338 c 0
 742 147 587 -8 396 -8 c 0
 205 -8 50 147 50 338 c 0
324 317 m 1
 420 317 l 1
 420 443 l 1
 324 317 l 1
244 317 m 1
 392 519 l 1
 488 519 l 1
 488 317 l 1
 548 317 l 1
 548 249 l 1
 488 249 l 1
 488 159 l 1
 420 159 l 1
 420 249 l 1
 244 249 l 1
 244 317 l 1
EndSplineSet
EndChar

StartChar: uni2784
Encoding: 10116 10116 532
GlifName: uni2784
Width: 792
VWidth: 900
Flags: HMW
LayerCount: 2
Fore
SplineSet
119.200195312 338 m 4
 119.200195312 185.200107817 243.200107817 61.2001953125 396 61.2001953125 c 4
 548.799892183 61.2001953125 672.799804688 185.200107817 672.799804688 338 c 4
 672.799804688 490.799892183 548.799892183 614.799804688 396 614.799804688 c 4
 243.200107817 614.799804688 119.200195312 490.799892183 119.200195312 338 c 4
50 338 m 0
 50 529 205 684 396 684 c 0
 587 684 742 529 742 338 c 0
 742 147 587 -8 396 -8 c 0
 205 -8 50 147 50 338 c 0
478 279 m 0
 478 314 454 334 412 334 c 0
 391 334 376 329 354 313 c 1
 274 313 l 1
 274 519 l 1
 530 519 l 1
 530 454 l 1
 346 454 l 1
 346 368 l 1
 369 389 398 400 430 400 c 0
 498 400 548 350 548 281 c 0
 548 203 485 151 394 151 c 0
 309 151 251 196 244 267 c 1
 314 267 l 1
 321 236 353 217 398 217 c 0
 447 217 478 241 478 279 c 0
EndSplineSet
EndChar

StartChar: uni2785
Encoding: 10117 10117 533
GlifName: uni2785
Width: 792
VWidth: 900
Flags: HMW
LayerCount: 2
Fore
SplineSet
119.200195312 338 m 4
 119.200195312 185.200107817 243.200107817 61.2001953125 396 61.2001953125 c 4
 548.799892183 61.2001953125 672.799804688 185.200107817 672.799804688 338 c 4
 672.799804688 490.799892183 548.799892183 614.799804688 396 614.799804688 c 4
 243.200107817 614.799804688 119.200195312 490.799892183 119.200195312 338 c 4
50 338 m 0
 50 529 205 684 396 684 c 0
 587 684 742 529 742 338 c 0
 742 147 587 -8 396 -8 c 0
 205 -8 50 147 50 338 c 0
244 327 m 2
 244 341 l 2
 244 460 306 532 406 532 c 0
 484 532 541 487 548 419 c 1
 478 419 l 1
 472 448 442 467 404 467 c 0
 350 467 314 427 314 370 c 2
 314 356 l 1
 342 386 378 402 420 402 c 0
 496 402 548 352 548 280 c 2
 548 278 l 2
 548 203 488 151 402 151 c 0
 305 151 244 218 244 327 c 2
316 291 m 1
 321 243 352 217 402 217 c 0
 449 217 478 241 478 278 c 2
 478 280 l 2
 478 314 451 336 410 336 c 0
 372 336 330 316 316 291 c 1
EndSplineSet
EndChar

StartChar: uni2786
Encoding: 10118 10118 534
GlifName: uni2786
Width: 792
VWidth: 900
Flags: HMW
LayerCount: 2
Fore
SplineSet
119.200195312 338 m 4
 119.200195312 185.200107817 243.200107817 61.2001953125 396 61.2001953125 c 4
 548.799892183 61.2001953125 672.799804688 185.200107817 672.799804688 338 c 4
 672.799804688 490.799892183 548.799892183 614.799804688 396 614.799804688 c 4
 243.200107817 614.799804688 119.200195312 490.799892183 119.200195312 338 c 4
50 338 m 0
 50 529 205 684 396 684 c 0
 587 684 742 529 742 338 c 0
 742 147 587 -8 396 -8 c 0
 205 -8 50 147 50 338 c 0
342 159 m 1
 482 454 l 1
 244 454 l 1
 244 519 l 1
 548 519 l 1
 548 436 l 1
 420 159 l 1
 342 159 l 1
EndSplineSet
EndChar

StartChar: uni2787
Encoding: 10119 10119 535
GlifName: uni2787
Width: 792
VWidth: 900
Flags: HMW
LayerCount: 2
Fore
SplineSet
119.200195312 338 m 4
 119.200195312 185.200107817 243.200107817 61.2001953125 396 61.2001953125 c 4
 548.799892183 61.2001953125 672.799804688 185.200107817 672.799804688 338 c 4
 672.799804688 490.799892183 548.799892183 614.799804688 396 614.799804688 c 4
 243.200107817 614.799804688 119.200195312 490.799892183 119.200195312 338 c 4
50 338 m 0
 50 529 205 684 396 684 c 0
 587 684 742 529 742 338 c 0
 742 147 587 -8 396 -8 c 0
 205 -8 50 147 50 338 c 0
314 261 m 2
 314 233 342 217 394 217 c 0
 445 217 478 233 478 258 c 2
 478 261 l 2
 478 286 447 307 392 318 c 1
 345 307 314 284 314 262 c 2
 314 261 l 2
284 429 m 2
 284 489 330 530 400 530 c 0
 469 530 514 489 514 426 c 2
 514 422 l 2
 514 390 490 360 456 352 c 1
 511 341 548 303 548 256 c 2
 548 252 l 2
 548 193 484 151 392 151 c 0
 302 151 244 191 244 253 c 2
 244 257 l 2
 244 301 279 342 328 354 c 1
 301 361 284 390 284 424 c 2
 284 429 l 2
394 384 m 1
 425 392 446 407 446 422 c 2
 446 423 l 2
 446 449 427 464 398 464 c 0
 369 464 352 449 352 425 c 2
 352 424 l 2
 352 406 367 392 394 384 c 1
EndSplineSet
EndChar

StartChar: uni2788
Encoding: 10120 10120 536
GlifName: uni2788
Width: 792
VWidth: 900
Flags: HMW
LayerCount: 2
Fore
SplineSet
119.200195312 338 m 4
 119.200195312 185.200107817 243.200107817 61.2001953125 396 61.2001953125 c 4
 548.799892183 61.2001953125 672.799804688 185.200107817 672.799804688 338 c 4
 672.799804688 490.799892183 548.799892183 614.799804688 396 614.799804688 c 4
 243.200107817 614.799804688 119.200195312 490.799892183 119.200195312 338 c 4
50 338 m 0
 50 529 205 684 396 684 c 0
 587 684 742 529 742 338 c 0
 742 147 587 -8 396 -8 c 0
 205 -8 50 147 50 338 c 0
548 356 m 2
 548 343 l 2
 548 224 486 151 386 151 c 0
 308 151 251 196 244 264 c 1
 314 264 l 1
 320 235 348 217 386 217 c 0
 440 217 478 256 478 313 c 2
 478 327 l 1
 450 297 414 281 372 281 c 0
 296 281 244 332 244 404 c 2
 244 406 l 2
 244 481 304 532 390 532 c 0
 487 532 548 465 548 356 c 2
476 392 m 1
 471 440 440 467 390 467 c 0
 343 467 314 443 314 406 c 2
 314 404 l 2
 314 370 341 347 382 347 c 0
 420 347 462 367 476 392 c 1
EndSplineSet
EndChar

StartChar: uni2789
Encoding: 10121 10121 537
GlifName: uni2789
Width: 792
VWidth: 900
Flags: HMW
LayerCount: 2
Fore
SplineSet
119.200195312 338 m 0
 119.200195312 185.200107817 243.200107817 61.2001953125 396 61.2001953125 c 0
 548.799892183 61.2001953125 672.799804688 185.200107817 672.799804688 338 c 0
 672.799804688 490.799892183 548.799892183 614.799804688 396 614.799804688 c 0
 243.200107817 614.799804688 119.200195312 490.799892183 119.200195312 338 c 0
405 365 m 6
 405 448.739130435 453.439490446 509 522 509 c 4
 587.342465753 509 628 454.135135135 628 364 c 6
 628 315 l 6
 628 231.387978142 581.688741722 172 517 172 c 4
 447.736842105 172 405 226.864864865 405 317 c 6
 405 365 l 6
474 317 m 6
 474 266.546218487 489.882352941 238 519 238 c 4
 543.5 238 559 268.273504274 559 315 c 6
 559 364 l 6
 559 414.453781513 545.17721519 443 520 443 c 4
 492.186046512 443 474 411.93220339 474 365 c 6
 474 317 l 6
50 338 m 0
 50 529 205 684 396 684 c 0
 587 684 742 529 742 338 c 0
 742 147 587 -8 396 -8 c 0
 205 -8 50 147 50 338 c 0
191 178 m 5
 191 246 l 5
 254 246 l 5
 254 424 l 5
 201 385 l 5
 167 440 l 5
 254 499 l 5
 323 499 l 5
 323 246 l 5
 380 246 l 5
 380 178 l 5
 191 178 l 5
EndSplineSet
EndChar

StartChar: uni35F4
Encoding: 13812 13812 538
GlifName: uni35F_4
Width: 900
VWidth: 900
Flags: HMW
LayerCount: 2
Fore
SplineSet
644 212 m 1
 534 206 l 1
 534 155 l 1
 644 161 l 1
 644 212 l 1
534 302 m 1
 534 248 l 1
 644 256 l 1
 644 310 l 1
 534 302 l 1
481 483 m 1
 481 536 l 1
 396 528 l 1
 396 474 l 1
 481 483 l 1
481 631 m 1
 396 622 l 1
 396 567 l 1
 481 578 l 1
 481 631 l 1
430 -32 m 1
 419 -23 l 1
 446 10 465 65 465 112 c 2
 465 377 l 1
 479 381 l 1
 529 343 l 1
 638 350 l 1
 638 377 l 1
 651 380 l 1
 712 332 l 1
 712 114 l 2
 712 21 679 -34 624 -34 c 0
 616 -34 607 14 563 23 c 1
 567 35 l 1
 579 33 590 32 603 32 c 0
 631 32 644 57 644 113 c 2
 644 120 l 1
 534 111 l 1
 534 68 495 14 430 -32 c 1
396 -123 m 1
 328 -150 l 1
 328 697 l 1
 337 699 l 1
 387 654 l 1
 478 663 l 1
 478 694 l 1
 492 696 l 1
 549 663 l 1
 549 442 l 1
 500 410 l 1
 484 410 l 1
 484 440 l 1
 396 433 l 1
 396 -123 l 1
126 -51 m 1
 58 -78 l 1
 58 634 l 1
 70 636 l 1
 120 591 l 1
 200 600 l 1
 200 659 l 1
 214 662 l 1
 270 616 l 1
 270 -15 l 1
 202 -28 l 1
 202 91 l 1
 126 86 l 1
 126 -51 l 1
202 559 m 1
 126 554 l 1
 126 123 l 1
 202 132 l 1
 202 559 l 1
689 474 m 1
 774 483 l 1
 774 534 l 1
 689 528 l 1
 689 474 l 1
689 622 m 1
 689 566 l 1
 774 576 l 1
 774 634 l 1
 689 622 l 1
842 -35 m 2
 842 -109 797 -148 745 -148 c 0
 732 -148 723 -89 670 -84 c 1
 670 -72 l 1
 699 -76 731 -77 742 -77 c 0
 768 -77 774 -68 774 -27 c 2
 774 438 l 1
 692 436 l 1
 639 410 l 1
 621 410 l 1
 621 704 l 1
 641 708 l 1
 682 654 l 1
 773 663 l 1
 773 702 l 1
 788 706 l 1
 842 663 l 1
 842 -35 l 2
EndSplineSet
EndChar

StartChar: tonos
Encoding: 900 900 539
GlifName: tonos
Width: 337
VWidth: 900
Flags: HMW
AnchorPoint: "Top1" 141 477 mark 0
LayerCount: 2
Fore
SplineSet
152 675 m 1
 220 675 l 1
 166 468 l 1
 107 468 l 1
 152 675 l 1
EndSplineSet
EndChar

StartChar: dieresistonos
Encoding: 901 901 540
GlifName: dieresistonos
Width: 397
VWidth: 900
Flags: HMW
AnchorPoint: "Top1" 202 486 mark 0
LayerCount: 2
Fore
SplineSet
286 526 m 0
 286 553 308 575 335 575 c 0
 362 575 384 553 384 526 c 0
 384 499 362 478 335 478 c 0
 308 478 286 499 286 526 c 0
14 526 m 0
 14 553 35 575 62 575 c 0
 89 575 111 553 111 526 c 0
 111 499 89 478 62 478 c 0
 35 478 14 499 14 526 c 0
208 750 m 1
 277 750 l 1
 223 543 l 1
 163 543 l 1
 208 750 l 1
EndSplineSet
EndChar

StartChar: Alphatonos
Encoding: 902 902 541
GlifName: A_lphatonos
Width: 610
VWidth: 900
Flags: HMW
LayerCount: 2
Fore
SplineSet
465 167 m 1
 147 167 l 1
 147 236 l 1
 465 236 l 1
 465 167 l 1
569 0 m 1
 494 0 l 1
 308 565 l 1
 113 0 l 1
 42 0 l 1
 265 639 l 1
 356 639 l 1
 569 0 l 1
70 658 m 1
 139 658 l 1
 85 451 l 1
 25 451 l 1
 70 658 l 1
EndSplineSet
EndChar

StartChar: anoteleia
Encoding: 903 903 542
GlifName: anoteleia
Width: 225
VWidth: 900
Flags: HMW
LayerCount: 2
Fore
SplineSet
64 292 m 4
 64 319 85 341 112 341 c 4
 139 341 161 319 161 292 c 4
 161 265 139 244 112 244 c 4
 85 244 64 265 64 292 c 4
EndSplineSet
EndChar

StartChar: Epsilontonos
Encoding: 904 904 543
GlifName: E_psilontonos
Width: 650
VWidth: 900
Flags: HMW
LayerCount: 2
Fore
SplineSet
273 283 m 5
 273 68 l 5
 591 68 l 5
 591 0 l 5
 204 0 l 5
 204 639 l 5
 591 639 l 5
 591 571 l 5
 273 571 l 5
 273 351 l 5
 573 351 l 5
 573 283 l 5
 273 283 l 5
79 658 m 1
 148 658 l 1
 94 451 l 1
 34 451 l 1
 79 658 l 1
EndSplineSet
EndChar

StartChar: Etatonos
Encoding: 905 905 544
GlifName: E_tatonos
Width: 747
VWidth: 900
Flags: HMW
LayerCount: 2
Fore
SplineSet
213 639 m 5
 282 639 l 5
 282 353 l 5
 600 353 l 5
 600 639 l 5
 669 639 l 5
 669 0 l 5
 600 0 l 5
 600 284 l 5
 282 284 l 5
 282 0 l 5
 213 0 l 5
 213 639 l 5
88 658 m 5
 157 658 l 5
 103 451 l 5
 43 451 l 5
 88 658 l 5
EndSplineSet
EndChar

StartChar: Iotatonos
Encoding: 906 906 545
GlifName: I_otatonos
Width: 609
VWidth: 900
Flags: HMW
LayerCount: 2
Fore
SplineSet
559 639 m 5
 559 571 l 5
 420 571 l 5
 420 68 l 5
 559 68 l 5
 559 0 l 5
 213 0 l 5
 213 68 l 5
 352 68 l 5
 352 571 l 5
 213 571 l 5
 213 639 l 5
 559 639 l 5
89 658 m 5
 158 658 l 5
 104 451 l 5
 44 451 l 5
 89 658 l 5
EndSplineSet
EndChar

StartChar: Omicrontonos
Encoding: 908 908 546
GlifName: O_microntonos
Width: 747
VWidth: 900
Flags: HMW
LayerCount: 2
Fore
SplineSet
177 335 m 6
 177 522 283 653 433 653 c 4
 591 653 687 532 687 333 c 6
 687 307 l 6
 687 120 579 -12 428 -12 c 4
 273 -12 177 110 177 309 c 6
 177 335 l 6
246 309 m 6
 246 146 312 54 430 54 c 4
 543 54 618 155 618 307 c 6
 618 333 l 6
 618 496 551 588 430 588 c 4
 319 588 246 487 246 335 c 6
 246 309 l 6
94 658 m 1
 163 658 l 1
 109 451 l 1
 50 451 l 1
 94 658 l 1
EndSplineSet
EndChar

StartChar: Upsilontonos
Encoding: 910 910 547
GlifName: U_psilontonos
Width: 744
VWidth: 900
Flags: HMW
LayerCount: 2
Fore
SplineSet
418 215 m 5
 212 639 l 5
 286 639 l 5
 451 292 l 5
 616 639 l 5
 693 639 l 5
 486 215 l 5
 486 0 l 5
 418 0 l 5
 418 215 l 5
97 658 m 5
 166 658 l 5
 112 451 l 5
 52 451 l 5
 97 658 l 5
EndSplineSet
EndChar

StartChar: Omegatonos
Encoding: 911 911 548
GlifName: O_megatonos
Width: 752
VWidth: 900
Flags: HMW
LayerCount: 2
Fore
SplineSet
394 0 m 1
 168 0 l 1
 168 68 l 1
 394 68 l 1
 394 0 l 1
466 0 m 1
 466 68 l 1
 692 68 l 1
 692 0 l 1
 466 0 l 1
683 323 m 2
 683 310 l 2
 683 140 604 36 475 36 c 1
 466 68 l 1
 561 68 615 155 615 310 c 2
 615 323 l 2
 615 482 541 588 430 588 c 0
 319 588 246 482 246 323 c 2
 246 310 l 2
 246 155 299 68 394 68 c 1
 385 36 l 1
 256 36 177 140 177 310 c 2
 177 323 l 2
 177 517 281 653 430 653 c 0
 579 653 683 517 683 323 c 2
92 658 m 1
 160 658 l 1
 106 451 l 1
 47 451 l 1
 92 658 l 1
EndSplineSet
EndChar

StartChar: Alpha
Encoding: 913 913 550
GlifName: A_lpha
Width: 610
VWidth: 900
Flags: HMW
AnchorPoint: "Top1" 309 720 basechar 0
LayerCount: 2
Fore
SplineSet
465 167 m 5
 147 167 l 5
 147 236 l 5
 465 236 l 5
 465 167 l 5
569 0 m 5
 494 0 l 5
 308 565 l 5
 113 0 l 5
 42 0 l 5
 265 639 l 5
 356 639 l 5
 569 0 l 5
EndSplineSet
EndChar

StartChar: Beta
Encoding: 914 914 551
GlifName: B_eta
Width: 582
VWidth: 900
Flags: HMW
LayerCount: 2
Fore
SplineSet
147 283 m 5
 147 68 l 5
 321 68 l 6
 407 68 454 103 454 167 c 6
 454 179 l 6
 454 241 401 283 320 283 c 6
 147 283 l 5
330 639 m 6
 443 639 514 574 514 467 c 6
 514 459 l 6
 514 397 480 346 425 320 c 5
 485 293 523 242 523 176 c 6
 523 167 l 6
 523 63 450 0 330 0 c 6
 78 0 l 5
 78 639 l 5
 330 639 l 6
321 571 m 6
 147 571 l 5
 147 351 l 5
 320 351 l 6
 396 351 446 392 446 455 c 6
 446 467 l 6
 446 534 401 571 321 571 c 6
EndSplineSet
EndChar

StartChar: Gamma
Encoding: 915 915 552
GlifName: G_amma
Width: 515
VWidth: 900
Flags: HMW
LayerCount: 2
Fore
SplineSet
78 639 m 5
 465 639 l 5
 465 571 l 5
 147 571 l 5
 147 0 l 5
 78 0 l 5
 78 639 l 5
EndSplineSet
EndChar

StartChar: uni0394
Encoding: 916 916 553
GlifName: uni0394
Width: 610
VWidth: 900
Flags: HMW
LayerCount: 2
Fore
SplineSet
569 0 m 1
 42 0 l 1
 42 77 l 1
 265 639 l 1
 356 639 l 1
 569 77 l 1
 569 0 l 1
494 68 m 1
 308 574 l 5
 113 68 l 1
 494 68 l 1
EndSplineSet
EndChar

StartChar: Epsilon
Encoding: 917 917 554
GlifName: E_psilon
Width: 524
VWidth: 900
Flags: HMW
AnchorPoint: "Top1" 273 720 basechar 0
LayerCount: 2
Fore
SplineSet
147 283 m 5
 147 68 l 5
 465 68 l 5
 465 0 l 5
 78 0 l 5
 78 639 l 5
 465 639 l 5
 465 571 l 5
 147 571 l 5
 147 351 l 5
 447 351 l 5
 447 283 l 5
 147 283 l 5
EndSplineSet
EndChar

StartChar: Zeta
Encoding: 918 918 555
GlifName: Z_eta
Width: 520
VWidth: 900
Flags: HMW
LayerCount: 2
Fore
SplineSet
51 0 m 5
 469 0 l 5
 469 65 l 5
 116 65 l 5
 469 547 l 5
 469 639 l 5
 51 639 l 5
 51 574 l 5
 404 574 l 5
 51 92 l 5
 51 0 l 5
EndSplineSet
EndChar

StartChar: Eta
Encoding: 919 919 556
GlifName: E_ta
Width: 612
VWidth: 900
Flags: HMW
AnchorPoint: "Top1" 309 720 basechar 0
LayerCount: 2
Fore
SplineSet
78 639 m 1
 147 639 l 1
 147 353 l 1
 465 353 l 1
 465 639 l 1
 534 639 l 1
 534 0 l 1
 465 0 l 1
 465 284 l 1
 147 284 l 1
 147 0 l 1
 78 0 l 1
 78 639 l 1
EndSplineSet
EndChar

StartChar: Theta
Encoding: 920 920 557
GlifName: T_heta
Width: 630
VWidth: 900
Flags: HMW
LayerCount: 2
Fore
SplineSet
415 284 m 5
 213 284 l 1
 213 353 l 1
 415 353 l 5
 415 284 l 5
60 335 m 2
 60 522 166 653 316 653 c 0
 474 653 570 532 570 333 c 2
 570 307 l 2
 570 120 462 -12 311 -12 c 0
 156 -12 60 110 60 309 c 2
 60 335 l 2
129 309 m 2
 129 146 195 54 313 54 c 0
 426 54 501 155 501 307 c 2
 501 333 l 2
 501 496 434 588 313 588 c 0
 202 588 129 487 129 335 c 2
 129 309 l 2
EndSplineSet
EndChar

StartChar: Iota
Encoding: 921 921 558
GlifName: I_ota
Width: 447
VWidth: 900
Flags: HMW
AnchorPoint: "Top1" 229 720 basechar 0
LayerCount: 2
Fore
SplineSet
397 639 m 1
 397 571 l 1
 258 571 l 1
 258 68 l 1
 397 68 l 1
 397 0 l 1
 51 0 l 1
 51 68 l 1
 190 68 l 1
 190 571 l 1
 51 571 l 1
 51 639 l 1
 397 639 l 1
EndSplineSet
EndChar

StartChar: Kappa
Encoding: 922 922 559
GlifName: K_appa
Width: 554
VWidth: 900
Flags: HMW
LayerCount: 2
Fore
SplineSet
410 0 m 5
 189 333 l 5
 241 383 l 5
 499 0 l 5
 410 0 l 5
423 639 m 5
 510 639 l 5
 112 194 l 5
 112 288 l 5
 423 639 l 5
78 639 m 5
 147 639 l 5
 147 0 l 5
 78 0 l 5
 78 639 l 5
EndSplineSet
EndChar

StartChar: Lambda
Encoding: 923 923 560
GlifName: L_ambda
Width: 610
VWidth: 900
Flags: HMW
LayerCount: 2
Fore
SplineSet
569 0 m 1
 494 0 l 1
 308 565 l 1
 113 0 l 1
 42 0 l 1
 265 639 l 1
 356 639 l 1
 569 0 l 1
EndSplineSet
EndChar

StartChar: Mu
Encoding: 924 924 561
GlifName: M_u
Width: 765
VWidth: 900
Flags: HMW
LayerCount: 2
Fore
SplineSet
78 639 m 5
 165 639 l 5
 382 135 l 5
 600 639 l 5
 687 639 l 5
 687 0 l 5
 618 0 l 5
 618 517 l 5
 417 45 l 5
 348 45 l 5
 147 517 l 5
 147 0 l 5
 78 0 l 5
 78 639 l 5
EndSplineSet
EndChar

StartChar: Nu
Encoding: 925 925 562
GlifName: N_u
Width: 612
VWidth: 900
Flags: HMW
LayerCount: 2
Fore
SplineSet
78 639 m 5
 165 639 l 5
 465 104 l 5
 465 639 l 5
 534 639 l 5
 534 0 l 5
 447 0 l 5
 147 535 l 5
 147 0 l 5
 78 0 l 5
 78 639 l 5
EndSplineSet
EndChar

StartChar: Xi
Encoding: 926 926 563
GlifName: X_i
Width: 524
VWidth: 900
Flags: HMW
LayerCount: 2
Fore
SplineSet
447 351 m 1
 447 283 l 1
 77 283 l 1
 77 351 l 1
 447 351 l 1
465 639 m 1
 465 571 l 1
 59 571 l 1
 59 639 l 1
 465 639 l 1
465 68 m 1
 465 0 l 1
 59 0 l 1
 59 68 l 1
 465 68 l 1
EndSplineSet
EndChar

